; NON-PLATED HOLES START AT T1
; THROUGH (PLATED) HOLES START AT T100
M48
INCH
T1C0.125984
T100C0.052000
T101C0.043417
T102C0.039861
T103C0.035000
T104C0.039370
T105C0.031497
T106C0.036000
T107C0.038000
T108C0.040000
T109C0.065600
%
T1
X007061Y038229
X007083Y026523
X017465Y026535
X052077Y037898
X071610Y037886
X052085Y023920
X071584Y023901
X017443Y038185
T100
X010224Y021450
X010254Y018214
X013224Y021450
X013254Y018214
T101
X043314Y017781
X041314Y017781
X042314Y017781
X041245Y028649
X040315Y017781
X042245Y028649
T102
X052300Y030430
X052300Y031431
T103
X050400Y012468
X001926Y018208
X054378Y019442
X050378Y019442
X001828Y007635
X054400Y012468
X001891Y012121
X001958Y021533
X054449Y006258
X005891Y012121
X011355Y001986
X005958Y021533
X015355Y001986
X005926Y018208
X005828Y007635
X050449Y006258
T104
X041939Y001865
X043907Y003165
X041939Y004346
T105
X022497Y005066
X021513Y005066
T106
X071688Y015987
X071688Y005987
X025414Y015453
X031414Y023453
X065688Y005987
X071688Y011987
X031414Y027453
X071688Y007987
X025414Y023453
X065688Y016987
X025414Y018453
X071688Y009987
X065688Y006987
X065688Y007987
X031414Y013453
X071688Y014987
X031414Y022453
X065688Y008987
X065688Y012987
X031414Y019453
X025414Y017453
X071688Y012987
X065688Y010987
X031414Y021453
X025414Y026453
X031414Y016453
X065688Y009987
X025414Y019453
X071688Y010987
X031414Y018453
X071688Y018987
X025414Y024453
X071688Y004987
X071688Y008987
X031414Y020453
X065688Y014987
X065688Y013987
X025414Y020453
X065688Y018987
X031414Y026453
X031414Y015453
X071688Y016987
X025414Y016453
X071688Y013987
X031414Y014453
X065688Y004987
X025414Y013453
X071688Y006987
X065688Y015987
X065688Y017987
X031414Y025453
X031414Y024453
X025414Y025453
X025414Y022453
X025414Y027453
X071688Y017987
X025414Y021453
X031414Y017453
X025414Y014453
X065688Y011987
T107
X077471Y012859
X019043Y007955
X037694Y005603
X016423Y030573
X007908Y034573
X008433Y028076
X019043Y006955
X010861Y034573
X016423Y029573
X037694Y004603
X011433Y028076
X076471Y012859
X016423Y031573
X009433Y028076
X075471Y012859
X037694Y003603
X019043Y008955
X011845Y034573
X008892Y034573
X016423Y032573
X009876Y034580
X010433Y028076
T108
X057578Y009877
X012211Y006354
X012211Y005284
X056508Y009877
X012327Y012113
X058648Y009877
X057156Y016111
X056086Y016111
X012327Y013113
X012327Y014113
X012211Y007424
X058226Y016111
T109
X045383Y011629
X045383Y009528
T00
M30
