G04 MADE WITH FRITZING*
G04 WWW.FRITZING.ORG*
G04 DOUBLE SIDED*
G04 HOLES PLATED*
G04 CONTOUR ON CENTER OF CONTOUR VECTOR*
%ASAXBY*%
%FSLAX23Y23*%
%MOIN*%
%OFA0B0*%
%SFA1.0B1.0*%
%ADD10C,0.062992*%
%ADD11C,0.145600*%
%ADD12C,0.078000*%
%ADD13C,0.092000*%
%ADD14C,0.070000*%
%ADD15C,0.075000*%
%ADD16C,0.074000*%
%ADD17C,0.071195*%
%ADD18C,0.067639*%
%ADD19C,0.078740*%
%ADD20R,0.062992X0.062992*%
%ADD21R,0.078000X0.078000*%
%ADD22R,0.074803X0.062992*%
%ADD23R,0.092000X0.092000*%
%ADD24R,0.069972X0.070000*%
%ADD25C,0.048000*%
%ADD26R,0.001000X0.001000*%
%LNCOPPER1*%
G90*
G70*
G54D10*
X2250Y507D03*
X2151Y507D03*
G54D11*
X4538Y953D03*
X4538Y1163D03*
G54D12*
X7747Y1286D03*
X7647Y1286D03*
X7547Y1286D03*
X7747Y1286D03*
X7647Y1286D03*
X7547Y1286D03*
G54D13*
X1025Y1821D03*
X1325Y1821D03*
X1022Y2145D03*
X1322Y2145D03*
G54D14*
X6569Y1899D03*
X6569Y1799D03*
X6569Y1699D03*
X6569Y1599D03*
X6569Y1499D03*
X6569Y1399D03*
X6569Y1299D03*
X6569Y1199D03*
X6569Y1099D03*
X6569Y999D03*
X6569Y899D03*
X6569Y799D03*
X6569Y699D03*
X6569Y599D03*
X6569Y499D03*
X7169Y1899D03*
X7169Y1799D03*
X7169Y1699D03*
X7169Y1599D03*
X7169Y1499D03*
X7169Y1399D03*
X7169Y1299D03*
X7169Y1199D03*
X7169Y1099D03*
X7169Y999D03*
X7169Y899D03*
X7169Y799D03*
X7169Y699D03*
X7169Y599D03*
X7169Y499D03*
X2541Y2745D03*
X2541Y2645D03*
X2541Y2545D03*
X2541Y2445D03*
X2541Y2345D03*
X2541Y2245D03*
X2541Y2145D03*
X2541Y2045D03*
X2541Y1945D03*
X2541Y1845D03*
X2541Y1745D03*
X2541Y1645D03*
X2541Y1545D03*
X2541Y1445D03*
X2541Y1345D03*
X3141Y2745D03*
X3141Y2645D03*
X3141Y2545D03*
X3141Y2445D03*
X3141Y2345D03*
X3141Y2245D03*
X3141Y2145D03*
X3141Y2045D03*
X3141Y1945D03*
X3141Y1845D03*
X3141Y1745D03*
X3141Y1645D03*
X3141Y1545D03*
X3141Y1445D03*
X3141Y1345D03*
G54D15*
X183Y764D03*
X583Y764D03*
X193Y1821D03*
X593Y1821D03*
X196Y2153D03*
X596Y2153D03*
X189Y1212D03*
X589Y1212D03*
X5040Y1247D03*
X5440Y1247D03*
X5045Y626D03*
X5445Y626D03*
X5038Y1944D03*
X5438Y1944D03*
X1136Y199D03*
X1536Y199D03*
G54D16*
X5865Y988D03*
X5758Y988D03*
X5651Y988D03*
X5865Y988D03*
X5758Y988D03*
X5651Y988D03*
X5823Y1611D03*
X5716Y1611D03*
X5609Y1611D03*
X5823Y1611D03*
X5716Y1611D03*
X5609Y1611D03*
X1221Y742D03*
X1221Y635D03*
X1221Y528D03*
X1221Y742D03*
X1221Y635D03*
X1221Y528D03*
X1233Y1411D03*
X1233Y1311D03*
X1233Y1211D03*
X1233Y1411D03*
X1233Y1311D03*
X1233Y1211D03*
G54D12*
X1904Y896D03*
X1904Y796D03*
X1904Y696D03*
X843Y2808D03*
X943Y2808D03*
X1043Y2808D03*
X1143Y2808D03*
X1642Y2957D03*
X1642Y3057D03*
X1642Y3157D03*
X1642Y3257D03*
X791Y3457D03*
X889Y3457D03*
X988Y3458D03*
X1086Y3457D03*
X1185Y3457D03*
X3769Y560D03*
X3769Y460D03*
X3769Y360D03*
G54D17*
X4032Y1778D03*
X4132Y1778D03*
X4232Y1778D03*
X4332Y1778D03*
X4125Y2865D03*
X4225Y2865D03*
G54D18*
X5230Y3043D03*
X5230Y3143D03*
G54D19*
X4194Y435D03*
X4194Y187D03*
X4391Y317D03*
X4194Y435D03*
X4194Y187D03*
X4391Y317D03*
G54D20*
X2250Y507D03*
G54D21*
X7747Y1286D03*
X7747Y1286D03*
G54D22*
X6012Y613D03*
X6012Y491D03*
G54D23*
X1025Y1821D03*
X1022Y2145D03*
G54D24*
X6569Y1899D03*
X2541Y2745D03*
G54D21*
X1904Y896D03*
X3769Y560D03*
G54D25*
X1374Y1713D02*
X1336Y1798D01*
D02*
X1374Y1408D02*
X1374Y1713D01*
D02*
X1249Y1323D02*
X1374Y1408D01*
D02*
X1345Y1311D02*
X1253Y1311D01*
D02*
X1300Y634D02*
X1374Y776D01*
D02*
X1375Y1239D02*
X1345Y1311D01*
D02*
X1374Y776D02*
X1375Y1239D01*
D02*
X1241Y635D02*
X1300Y634D01*
D02*
X1377Y640D02*
X1241Y636D01*
D02*
X1799Y794D02*
X1377Y640D01*
D02*
X1885Y795D02*
X1799Y794D01*
D02*
X2015Y799D02*
X2902Y1437D01*
D02*
X2902Y1437D02*
X3124Y1445D01*
D02*
X1923Y796D02*
X2015Y799D01*
D02*
X1144Y2752D02*
X2452Y1747D01*
D02*
X2452Y1747D02*
X2524Y1746D01*
D02*
X1049Y2729D02*
X2439Y1649D01*
D02*
X2439Y1649D02*
X2524Y1646D01*
D02*
X2407Y1547D02*
X942Y2729D01*
D02*
X942Y2729D02*
X943Y2789D01*
D02*
X850Y2705D02*
X845Y2789D01*
D02*
X2401Y1446D02*
X850Y2705D01*
D02*
X1144Y2789D02*
X1144Y2752D01*
D02*
X1045Y2789D02*
X1049Y2729D01*
D02*
X2524Y1546D02*
X2407Y1547D01*
D02*
X2524Y1446D02*
X2401Y1446D01*
D02*
X1325Y1847D02*
X1323Y2119D01*
D02*
X5462Y626D02*
X5578Y625D01*
D02*
X3157Y2637D02*
X4224Y2070D01*
D02*
X4224Y2070D02*
X4231Y1800D01*
D02*
X4229Y1891D02*
X4231Y1800D01*
D02*
X5020Y1944D02*
X4371Y1944D01*
D02*
X4371Y1944D02*
X4229Y1891D01*
D02*
X5563Y991D02*
X5448Y1231D01*
D02*
X5631Y988D02*
X5563Y991D01*
D02*
X5866Y1096D02*
X6483Y1401D01*
D02*
X6483Y1401D02*
X6551Y1399D01*
D02*
X6452Y1501D02*
X6551Y1499D01*
D02*
X5865Y1008D02*
X5866Y1096D01*
D02*
X5647Y1123D02*
X6452Y1501D01*
D02*
X5650Y1008D02*
X5647Y1123D01*
D02*
X5863Y881D02*
X5864Y968D01*
D02*
X5578Y625D02*
X5863Y881D01*
D02*
X6797Y356D02*
X6798Y1500D01*
D02*
X5902Y420D02*
X6055Y160D01*
D02*
X6798Y1500D02*
X6585Y1592D01*
D02*
X6055Y160D02*
X6660Y164D01*
D02*
X5904Y610D02*
X5902Y420D01*
D02*
X6660Y164D02*
X6797Y356D01*
D02*
X5980Y612D02*
X5904Y610D01*
D02*
X6645Y310D02*
X6709Y360D01*
D02*
X6703Y1238D02*
X6585Y1291D01*
D02*
X6375Y310D02*
X6645Y310D01*
D02*
X6116Y486D02*
X6375Y310D01*
D02*
X6709Y360D02*
X6703Y1238D01*
D02*
X6044Y489D02*
X6116Y486D01*
D02*
X5904Y608D02*
X5623Y360D01*
D02*
X5054Y442D02*
X5046Y608D01*
D02*
X5623Y360D02*
X5174Y360D01*
D02*
X5980Y611D02*
X5904Y608D01*
D02*
X5174Y360D02*
X5054Y442D01*
D02*
X7383Y181D02*
X7253Y77D01*
D02*
X4698Y322D02*
X4707Y1443D01*
D02*
X4707Y1443D02*
X4036Y1611D01*
D02*
X4036Y1611D02*
X4032Y1756D01*
D02*
X4928Y81D02*
X4698Y322D01*
D02*
X7284Y886D02*
X7393Y744D01*
D02*
X7393Y744D02*
X7383Y181D01*
D02*
X7253Y77D02*
X4928Y81D01*
D02*
X7187Y897D02*
X7284Y886D01*
D02*
X4287Y3032D02*
X5210Y3043D01*
D02*
X4236Y3128D02*
X5210Y3143D01*
D02*
X4133Y2885D02*
X4236Y3128D01*
D02*
X4232Y2885D02*
X4287Y3032D01*
D02*
X2021Y506D02*
X2136Y506D01*
D02*
X1137Y308D02*
X2021Y506D01*
D02*
X1136Y216D02*
X1137Y308D01*
D02*
X3227Y1839D02*
X3345Y1721D01*
D02*
X3352Y896D02*
X2682Y896D01*
D02*
X3345Y1721D02*
X3352Y896D01*
D02*
X2247Y639D02*
X2249Y522D01*
D02*
X2682Y896D02*
X2247Y639D01*
D02*
X3159Y1844D02*
X3227Y1839D01*
G54D26*
X4149Y474D02*
X4239Y474D01*
X4145Y473D02*
X4244Y473D01*
X4142Y472D02*
X4247Y472D01*
X4139Y471D02*
X4249Y471D01*
X4137Y470D02*
X4252Y470D01*
X4136Y469D02*
X4253Y469D01*
X4134Y468D02*
X4255Y468D01*
X4132Y467D02*
X4256Y467D01*
X4131Y466D02*
X4258Y466D01*
X4130Y465D02*
X4259Y465D01*
X4129Y464D02*
X4260Y464D01*
X4128Y463D02*
X4261Y463D01*
X4127Y462D02*
X4262Y462D01*
X4126Y461D02*
X4263Y461D01*
X4125Y460D02*
X4264Y460D01*
X4124Y459D02*
X4265Y459D01*
X4124Y458D02*
X4265Y458D01*
X4123Y457D02*
X4266Y457D01*
X4122Y456D02*
X4267Y456D01*
X4122Y455D02*
X4267Y455D01*
X4121Y454D02*
X4189Y454D01*
X4200Y454D02*
X4268Y454D01*
X4120Y453D02*
X4186Y453D01*
X4203Y453D02*
X4268Y453D01*
X4120Y452D02*
X4184Y452D01*
X4205Y452D02*
X4269Y452D01*
X4120Y451D02*
X4182Y451D01*
X4206Y451D02*
X4269Y451D01*
X4119Y450D02*
X4181Y450D01*
X4208Y450D02*
X4270Y450D01*
X4119Y449D02*
X4180Y449D01*
X4209Y449D02*
X4270Y449D01*
X4118Y448D02*
X4179Y448D01*
X4210Y448D02*
X4270Y448D01*
X4118Y447D02*
X4178Y447D01*
X4211Y447D02*
X4271Y447D01*
X4118Y446D02*
X4178Y446D01*
X4211Y446D02*
X4271Y446D01*
X4117Y445D02*
X4177Y445D01*
X4212Y445D02*
X4271Y445D01*
X4117Y444D02*
X4176Y444D01*
X4212Y444D02*
X4272Y444D01*
X4117Y443D02*
X4176Y443D01*
X4213Y443D02*
X4272Y443D01*
X4117Y442D02*
X4176Y442D01*
X4213Y442D02*
X4272Y442D01*
X4117Y441D02*
X4175Y441D01*
X4214Y441D02*
X4272Y441D01*
X4116Y440D02*
X4175Y440D01*
X4214Y440D02*
X4272Y440D01*
X4116Y439D02*
X4175Y439D01*
X4214Y439D02*
X4272Y439D01*
X4116Y438D02*
X4175Y438D01*
X4214Y438D02*
X4272Y438D01*
X4116Y437D02*
X4174Y437D01*
X4214Y437D02*
X4273Y437D01*
X4116Y436D02*
X4174Y436D01*
X4214Y436D02*
X4273Y436D01*
X4116Y435D02*
X4174Y435D01*
X4215Y435D02*
X4273Y435D01*
X4116Y434D02*
X4174Y434D01*
X4214Y434D02*
X4273Y434D01*
X4116Y433D02*
X4174Y433D01*
X4214Y433D02*
X4273Y433D01*
X4116Y432D02*
X4175Y432D01*
X4214Y432D02*
X4272Y432D01*
X4116Y431D02*
X4175Y431D01*
X4214Y431D02*
X4272Y431D01*
X4117Y430D02*
X4175Y430D01*
X4214Y430D02*
X4272Y430D01*
X4117Y429D02*
X4175Y429D01*
X4214Y429D02*
X4272Y429D01*
X4117Y428D02*
X4176Y428D01*
X4213Y428D02*
X4272Y428D01*
X4117Y427D02*
X4176Y427D01*
X4213Y427D02*
X4272Y427D01*
X4117Y426D02*
X4177Y426D01*
X4212Y426D02*
X4272Y426D01*
X4118Y425D02*
X4177Y425D01*
X4212Y425D02*
X4271Y425D01*
X4118Y424D02*
X4178Y424D01*
X4211Y424D02*
X4271Y424D01*
X4118Y423D02*
X4179Y423D01*
X4210Y423D02*
X4271Y423D01*
X4118Y422D02*
X4179Y422D01*
X4209Y422D02*
X4270Y422D01*
X4119Y421D02*
X4180Y421D01*
X4209Y421D02*
X4270Y421D01*
X4119Y420D02*
X4181Y420D01*
X4207Y420D02*
X4270Y420D01*
X4120Y419D02*
X4183Y419D01*
X4206Y419D02*
X4269Y419D01*
X4120Y418D02*
X4184Y418D01*
X4204Y418D02*
X4269Y418D01*
X4121Y417D02*
X4186Y417D01*
X4202Y417D02*
X4268Y417D01*
X4121Y416D02*
X4189Y416D01*
X4199Y416D02*
X4268Y416D01*
X4122Y415D02*
X4267Y415D01*
X4122Y414D02*
X4266Y414D01*
X4123Y413D02*
X4266Y413D01*
X4124Y412D02*
X4265Y412D01*
X4124Y411D02*
X4264Y411D01*
X4125Y410D02*
X4264Y410D01*
X4126Y409D02*
X4263Y409D01*
X4127Y408D02*
X4262Y408D01*
X4128Y407D02*
X4261Y407D01*
X4129Y406D02*
X4260Y406D01*
X4130Y405D02*
X4259Y405D01*
X4132Y404D02*
X4257Y404D01*
X4133Y403D02*
X4256Y403D01*
X4134Y402D02*
X4254Y402D01*
X4136Y401D02*
X4253Y401D01*
X4138Y400D02*
X4251Y400D01*
X4140Y399D02*
X4249Y399D01*
X4143Y398D02*
X4246Y398D01*
X4146Y397D02*
X4243Y397D01*
X4151Y396D02*
X4237Y396D01*
X4384Y395D02*
X4398Y395D01*
X4380Y394D02*
X4402Y394D01*
X4377Y393D02*
X4405Y393D01*
X4375Y392D02*
X4407Y392D01*
X4373Y391D02*
X4410Y391D01*
X4371Y390D02*
X4411Y390D01*
X4370Y389D02*
X4413Y389D01*
X4368Y388D02*
X4414Y388D01*
X4367Y387D02*
X4416Y387D01*
X4366Y386D02*
X4417Y386D01*
X4365Y385D02*
X4418Y385D01*
X4364Y384D02*
X4419Y384D01*
X4363Y383D02*
X4420Y383D01*
X4362Y382D02*
X4421Y382D01*
X4361Y381D02*
X4421Y381D01*
X4360Y380D02*
X4422Y380D01*
X4360Y379D02*
X4423Y379D01*
X4359Y378D02*
X4424Y378D01*
X4358Y377D02*
X4424Y377D01*
X4358Y376D02*
X4425Y376D01*
X4357Y375D02*
X4425Y375D01*
X4357Y374D02*
X4426Y374D01*
X4356Y373D02*
X4426Y373D01*
X4356Y372D02*
X4427Y372D01*
X4355Y371D02*
X4427Y371D01*
X4355Y370D02*
X4428Y370D01*
X4354Y369D02*
X4428Y369D01*
X4354Y368D02*
X4428Y368D01*
X4354Y367D02*
X4429Y367D01*
X4354Y366D02*
X4429Y366D01*
X4353Y365D02*
X4429Y365D01*
X4353Y364D02*
X4429Y364D01*
X4353Y363D02*
X4430Y363D01*
X4353Y362D02*
X4430Y362D01*
X4353Y361D02*
X4430Y361D01*
X4353Y360D02*
X4430Y360D01*
X4353Y359D02*
X4430Y359D01*
X4352Y358D02*
X4430Y358D01*
X4352Y357D02*
X4430Y357D01*
X4352Y356D02*
X4430Y356D01*
X4352Y355D02*
X4430Y355D01*
X4352Y354D02*
X4430Y354D01*
X4352Y353D02*
X4430Y353D01*
X4352Y352D02*
X4430Y352D01*
X4352Y351D02*
X4430Y351D01*
X4352Y350D02*
X4430Y350D01*
X4352Y349D02*
X4430Y349D01*
X4352Y348D02*
X4430Y348D01*
X4352Y347D02*
X4430Y347D01*
X4352Y346D02*
X4430Y346D01*
X4352Y345D02*
X4430Y345D01*
X4352Y344D02*
X4430Y344D01*
X4352Y343D02*
X4430Y343D01*
X4352Y342D02*
X4430Y342D01*
X4352Y341D02*
X4430Y341D01*
X4352Y340D02*
X4430Y340D01*
X4352Y339D02*
X4430Y339D01*
X4352Y338D02*
X4430Y338D01*
X4352Y337D02*
X4430Y337D01*
X4352Y336D02*
X4386Y336D01*
X4397Y336D02*
X4430Y336D01*
X4352Y335D02*
X4383Y335D01*
X4400Y335D02*
X4430Y335D01*
X4352Y334D02*
X4381Y334D01*
X4402Y334D02*
X4430Y334D01*
X4352Y333D02*
X4379Y333D01*
X4403Y333D02*
X4430Y333D01*
X4352Y332D02*
X4378Y332D01*
X4404Y332D02*
X4430Y332D01*
X4352Y331D02*
X4377Y331D01*
X4406Y331D02*
X4430Y331D01*
X4352Y330D02*
X4376Y330D01*
X4406Y330D02*
X4430Y330D01*
X4352Y329D02*
X4375Y329D01*
X4407Y329D02*
X4430Y329D01*
X4352Y328D02*
X4374Y328D01*
X4408Y328D02*
X4430Y328D01*
X4352Y327D02*
X4374Y327D01*
X4409Y327D02*
X4430Y327D01*
X4352Y326D02*
X4373Y326D01*
X4409Y326D02*
X4430Y326D01*
X4352Y325D02*
X4373Y325D01*
X4410Y325D02*
X4430Y325D01*
X4352Y324D02*
X4372Y324D01*
X4410Y324D02*
X4430Y324D01*
X4352Y323D02*
X4372Y323D01*
X4410Y323D02*
X4430Y323D01*
X4352Y322D02*
X4372Y322D01*
X4411Y322D02*
X4430Y322D01*
X4352Y321D02*
X4371Y321D01*
X4411Y321D02*
X4430Y321D01*
X4352Y320D02*
X4371Y320D01*
X4411Y320D02*
X4430Y320D01*
X4352Y319D02*
X4371Y319D01*
X4411Y319D02*
X4430Y319D01*
X4352Y318D02*
X4371Y318D01*
X4411Y318D02*
X4430Y318D01*
X4352Y317D02*
X4371Y317D01*
X4411Y317D02*
X4430Y317D01*
X4352Y316D02*
X4371Y316D01*
X4411Y316D02*
X4430Y316D01*
X4352Y315D02*
X4371Y315D01*
X4411Y315D02*
X4430Y315D01*
X4352Y314D02*
X4371Y314D01*
X4411Y314D02*
X4430Y314D01*
X4352Y313D02*
X4372Y313D01*
X4411Y313D02*
X4430Y313D01*
X4352Y312D02*
X4372Y312D01*
X4411Y312D02*
X4430Y312D01*
X4352Y311D02*
X4372Y311D01*
X4410Y311D02*
X4430Y311D01*
X4352Y310D02*
X4372Y310D01*
X4410Y310D02*
X4430Y310D01*
X4352Y309D02*
X4373Y309D01*
X4410Y309D02*
X4430Y309D01*
X4352Y308D02*
X4373Y308D01*
X4409Y308D02*
X4430Y308D01*
X4352Y307D02*
X4374Y307D01*
X4409Y307D02*
X4430Y307D01*
X4352Y306D02*
X4374Y306D01*
X4408Y306D02*
X4430Y306D01*
X4352Y305D02*
X4375Y305D01*
X4407Y305D02*
X4430Y305D01*
X4352Y304D02*
X4376Y304D01*
X4406Y304D02*
X4430Y304D01*
X4352Y303D02*
X4377Y303D01*
X4406Y303D02*
X4430Y303D01*
X4352Y302D02*
X4378Y302D01*
X4404Y302D02*
X4430Y302D01*
X4352Y301D02*
X4379Y301D01*
X4403Y301D02*
X4430Y301D01*
X4352Y300D02*
X4381Y300D01*
X4401Y300D02*
X4430Y300D01*
X4352Y299D02*
X4383Y299D01*
X4400Y299D02*
X4430Y299D01*
X4352Y298D02*
X4386Y298D01*
X4397Y298D02*
X4430Y298D01*
X4352Y297D02*
X4430Y297D01*
X4352Y296D02*
X4430Y296D01*
X4352Y295D02*
X4430Y295D01*
X4352Y294D02*
X4430Y294D01*
X4352Y293D02*
X4430Y293D01*
X4352Y292D02*
X4430Y292D01*
X4352Y291D02*
X4430Y291D01*
X4352Y290D02*
X4430Y290D01*
X4352Y289D02*
X4430Y289D01*
X4352Y288D02*
X4430Y288D01*
X4352Y287D02*
X4430Y287D01*
X4352Y286D02*
X4430Y286D01*
X4352Y285D02*
X4430Y285D01*
X4352Y284D02*
X4430Y284D01*
X4352Y283D02*
X4430Y283D01*
X4352Y282D02*
X4430Y282D01*
X4352Y281D02*
X4430Y281D01*
X4352Y280D02*
X4430Y280D01*
X4352Y279D02*
X4430Y279D01*
X4352Y278D02*
X4430Y278D01*
X4352Y277D02*
X4430Y277D01*
X4352Y276D02*
X4430Y276D01*
X4353Y275D02*
X4430Y275D01*
X4353Y274D02*
X4430Y274D01*
X4353Y273D02*
X4430Y273D01*
X4353Y272D02*
X4430Y272D01*
X4353Y271D02*
X4430Y271D01*
X4353Y270D02*
X4429Y270D01*
X4353Y269D02*
X4429Y269D01*
X4354Y268D02*
X4429Y268D01*
X4354Y267D02*
X4429Y267D01*
X4354Y266D02*
X4428Y266D01*
X4354Y265D02*
X4428Y265D01*
X4355Y264D02*
X4428Y264D01*
X4355Y263D02*
X4427Y263D01*
X4356Y262D02*
X4427Y262D01*
X4356Y261D02*
X4426Y261D01*
X4357Y260D02*
X4426Y260D01*
X4357Y259D02*
X4425Y259D01*
X4358Y258D02*
X4425Y258D01*
X4358Y257D02*
X4424Y257D01*
X4359Y256D02*
X4424Y256D01*
X4360Y255D02*
X4423Y255D01*
X4360Y254D02*
X4422Y254D01*
X4361Y253D02*
X4421Y253D01*
X4362Y252D02*
X4421Y252D01*
X4363Y251D02*
X4420Y251D01*
X4364Y250D02*
X4419Y250D01*
X4365Y249D02*
X4418Y249D01*
X4366Y248D02*
X4417Y248D01*
X4367Y247D02*
X4415Y247D01*
X4368Y246D02*
X4414Y246D01*
X4370Y245D02*
X4413Y245D01*
X4371Y244D02*
X4411Y244D01*
X4373Y243D02*
X4409Y243D01*
X4375Y242D02*
X4407Y242D01*
X4377Y241D02*
X4405Y241D01*
X4380Y240D02*
X4402Y240D01*
X4384Y239D02*
X4398Y239D01*
X4150Y226D02*
X4239Y226D01*
X4145Y225D02*
X4244Y225D01*
X4142Y224D02*
X4247Y224D01*
X4139Y223D02*
X4249Y223D01*
X4137Y222D02*
X4251Y222D01*
X4136Y221D02*
X4253Y221D01*
X4134Y220D02*
X4255Y220D01*
X4133Y219D02*
X4256Y219D01*
X4131Y218D02*
X4258Y218D01*
X4130Y217D02*
X4259Y217D01*
X4129Y216D02*
X4260Y216D01*
X4128Y215D02*
X4261Y215D01*
X4127Y214D02*
X4262Y214D01*
X4126Y213D02*
X4263Y213D01*
X4125Y212D02*
X4264Y212D01*
X4124Y211D02*
X4265Y211D01*
X4124Y210D02*
X4265Y210D01*
X4123Y209D02*
X4266Y209D01*
X4122Y208D02*
X4267Y208D01*
X4122Y207D02*
X4267Y207D01*
X4121Y206D02*
X4189Y206D01*
X4200Y206D02*
X4268Y206D01*
X4120Y205D02*
X4186Y205D01*
X4203Y205D02*
X4268Y205D01*
X4120Y204D02*
X4184Y204D01*
X4205Y204D02*
X4269Y204D01*
X4120Y203D02*
X4182Y203D01*
X4206Y203D02*
X4269Y203D01*
X4119Y202D02*
X4181Y202D01*
X4208Y202D02*
X4270Y202D01*
X4119Y201D02*
X4180Y201D01*
X4209Y201D02*
X4270Y201D01*
X4118Y200D02*
X4179Y200D01*
X4210Y200D02*
X4270Y200D01*
X4118Y199D02*
X4178Y199D01*
X4210Y199D02*
X4271Y199D01*
X4118Y198D02*
X4178Y198D01*
X4211Y198D02*
X4271Y198D01*
X4117Y197D02*
X4177Y197D01*
X4212Y197D02*
X4271Y197D01*
X4117Y196D02*
X4176Y196D01*
X4212Y196D02*
X4272Y196D01*
X4117Y195D02*
X4176Y195D01*
X4213Y195D02*
X4272Y195D01*
X4117Y194D02*
X4176Y194D01*
X4213Y194D02*
X4272Y194D01*
X4117Y193D02*
X4175Y193D01*
X4214Y193D02*
X4272Y193D01*
X4116Y192D02*
X4175Y192D01*
X4214Y192D02*
X4272Y192D01*
X4116Y191D02*
X4175Y191D01*
X4214Y191D02*
X4272Y191D01*
X4116Y190D02*
X4175Y190D01*
X4214Y190D02*
X4272Y190D01*
X4116Y189D02*
X4174Y189D01*
X4214Y189D02*
X4273Y189D01*
X4116Y188D02*
X4174Y188D01*
X4214Y188D02*
X4273Y188D01*
X4116Y187D02*
X4174Y187D01*
X4215Y187D02*
X4273Y187D01*
X4116Y186D02*
X4174Y186D01*
X4214Y186D02*
X4273Y186D01*
X4116Y185D02*
X4174Y185D01*
X4214Y185D02*
X4273Y185D01*
X4116Y184D02*
X4175Y184D01*
X4214Y184D02*
X4272Y184D01*
X4116Y183D02*
X4175Y183D01*
X4214Y183D02*
X4272Y183D01*
X4117Y182D02*
X4175Y182D01*
X4214Y182D02*
X4272Y182D01*
X4117Y181D02*
X4175Y181D01*
X4214Y181D02*
X4272Y181D01*
X4117Y180D02*
X4176Y180D01*
X4213Y180D02*
X4272Y180D01*
X4117Y179D02*
X4176Y179D01*
X4213Y179D02*
X4272Y179D01*
X4117Y178D02*
X4177Y178D01*
X4212Y178D02*
X4272Y178D01*
X4118Y177D02*
X4177Y177D01*
X4212Y177D02*
X4271Y177D01*
X4118Y176D02*
X4178Y176D01*
X4211Y176D02*
X4271Y176D01*
X4118Y175D02*
X4178Y175D01*
X4210Y175D02*
X4271Y175D01*
X4118Y174D02*
X4179Y174D01*
X4209Y174D02*
X4270Y174D01*
X4119Y173D02*
X4180Y173D01*
X4209Y173D02*
X4270Y173D01*
X4119Y172D02*
X4181Y172D01*
X4207Y172D02*
X4270Y172D01*
X4120Y171D02*
X4183Y171D01*
X4206Y171D02*
X4269Y171D01*
X4120Y170D02*
X4184Y170D01*
X4204Y170D02*
X4269Y170D01*
X4121Y169D02*
X4186Y169D01*
X4203Y169D02*
X4268Y169D01*
X4121Y168D02*
X4189Y168D01*
X4199Y168D02*
X4268Y168D01*
X4122Y167D02*
X4267Y167D01*
X4122Y166D02*
X4266Y166D01*
X4123Y165D02*
X4266Y165D01*
X4124Y164D02*
X4265Y164D01*
X4124Y163D02*
X4264Y163D01*
X4125Y162D02*
X4264Y162D01*
X4126Y161D02*
X4263Y161D01*
X4127Y160D02*
X4262Y160D01*
X4128Y159D02*
X4261Y159D01*
X4129Y158D02*
X4260Y158D01*
X4130Y157D02*
X4259Y157D01*
X4131Y156D02*
X4257Y156D01*
X4133Y155D02*
X4256Y155D01*
X4134Y154D02*
X4255Y154D01*
X4136Y153D02*
X4253Y153D01*
X4138Y152D02*
X4251Y152D01*
X4140Y151D02*
X4249Y151D01*
X4142Y150D02*
X4246Y150D01*
X4146Y149D02*
X4243Y149D01*
X4151Y148D02*
X4238Y148D01*
D02*
G04 End of Copper1*
M02*