<?xml version='1.0' encoding='UTF-8' standalone='no'?>
<!-- Created with Fritzing (http://www.fritzing.org/) -->
<svg xmlns="http://www.w3.org/2000/svg" version="1.2" height="3.93701in" xmlns:svg="http://www.w3.org/2000/svg" x="0in" y="0in" viewBox="0 0 566.929 283.465"  baseProfile="tiny" width="7.87402in">
 <g transform="matrix(-1, 0, 0, 1, 566.929, 0)">
  <g partID="57660">
   <g transform="translate(566.929,283.465)">
    <g transform="matrix(-1,0,0,-1,0,0)">
     <g id="board" >
      <rect stroke-width="0.5" id="boardoutline" height="282.889" fill-opacity="0.5" x="0.288" y="0.288" stroke="black"  fill="none" width="566.354"/>
     </g>
    </g>
   </g>
  </g>
  <g partID="213902">
   <g transform="translate(308.916,194.226)">
    <g transform="matrix(1, 0, 0, 1, 0.54, -104.076)">
     <g id="copper1">
      <g gorn="0.3.0.0.0.0">
       <g stroke-opacity="1" style="fill-rule:evenodd;stroke-linecap:butt;stroke-linejoin:miter;stroke-miterlimit:4;stroke-dasharray:none;" stroke-width="2.88" id="0" fill-opacity="1" cx="17.3016" stroke="black" r="3.8016" cy="124.709" fill="none" gorn="0.3.0.0.0.0.0"/>
       <g stroke-opacity="1" style="fill-rule:evenodd;stroke-linecap:butt;stroke-linejoin:miter;stroke-miterlimit:4;stroke-dasharray:none;" stroke-width="2.88" id="1" fill-opacity="1" cx="17.3016" stroke="black" r="3.8016" cy="109.584" fill="none" gorn="0.3.0.0.0.0.1"/>
      </g>
     </g>
    </g>
   </g>
  </g>
  <g partID="246851">
   <g transform="translate(562.833,185.834)">
    <g transform="matrix(0,1,-1,0,0,0)">
     <g flipped="1" id="copper1">
      <g transform="matrix(-1, 0, 0, 1, 10.08, 0)">
       <g>
        <g>
         <g>
          <g stroke-width="1.44" id="2" height="4.176" x="2.952" y="2.952" stroke="black" fill="none" width="4.176"/>
          <g stroke-width="1.44" id="3" cx="5.04" cy="5.04" r="2.088" stroke="black" fill="none"/>
          <g stroke-width="1.44" id="4" cx="5.04" cy="12.24" r="2.088" stroke="black" fill="none"/>
          <g stroke-width="1.44" id="5" cx="5.04" cy="19.44" r="2.088" stroke="black" fill="none"/>
         </g>
         <g>
          <g id="copper0">
           <g stroke-width="1.44" id="6" height="4.176" x="2.952" y="2.952" stroke="black" fill="none" width="4.176"/>
           <g stroke-width="1.44" id="7" cx="5.04" cy="5.04" r="2.088" stroke="black" fill="none"/>
           <g stroke-width="1.44" id="8" cx="5.04" cy="12.24" r="2.088" stroke="black" fill="none"/>
           <g stroke-width="1.44" id="9" cx="5.04" cy="19.44" r="2.088" stroke="black" fill="none"/>
          </g>
         </g>
        </g>
       </g>
      </g>
     </g>
    </g>
   </g>
  </g>
  <g partID="271030">
   <g transform="translate(436.125,236.507)">
    <g transform="matrix(0,1,-1,0,0,0)">
     <g id="copper1" >
      <rect id="10" height="5.38583" fill-opacity="1" x="0.566929" y="0.566929" stroke="none"  fill="black" width="4.53543"/>
      <rect id="11" height="5.38583" fill-opacity="1" x="9.35433" y="0.566929" stroke="none"  fill="black" width="4.53543"/>
     </g>
    </g>
   </g>
  </g>
  <g partID="186242">
   <g transform="translate(70.5231,149.008)">
    <g id="copper1" >
     <g id="copper0" >
      <g stroke-width="1.44" id="12" height="5.184" x="0.72" y="0.72" stroke="black"  fill="none" width="5.184"/>
      <g stroke-width="1.44" id="13" cx="3.312" cy="3.312" r="2.592" stroke="black"  fill="none"/>
      <g stroke-width="1.44" id="14" cx="24.912" cy="3.312" r="2.592" stroke="black"  fill="none"/>
     </g>
    </g>
   </g>
  </g>
  <g partID="184472">
   <g transform="translate(70.3075,125.71)">
    <g id="copper1" >
     <g id="copper0" >
      <g stroke-width="1.44" id="15" height="5.184" x="0.72" y="0.72" stroke="black"  fill="none" width="5.184"/>
      <g stroke-width="1.44" id="16" cx="3.312" cy="3.312" r="2.592" stroke="black"  fill="none"/>
      <g stroke-width="1.44" id="17" cx="24.912" cy="3.312" r="2.592" stroke="black"  fill="none"/>
     </g>
    </g>
   </g>
  </g>
  <g partID="240652">
   <g transform="translate(469.357,135.953)">
    <g id="copper1" >
     <g id="copper0" >
      <g stroke-width="1.224" id="18" cx="3.6" stroke="black" cy="10.8" r="1.908"  fill="none"/>
      <g stroke-width="1.224" id="19" height="3.816" x="1.692" y="8.892" stroke="black"  fill="none" width="3.814"/>
      <g stroke-width="1.224" id="20" cx="3.6" stroke="black" cy="18" r="1.908"  fill="none"/>
      <g stroke-width="1.224" id="21" cx="3.6" stroke="black" cy="25.2" r="1.908"  fill="none"/>
      <g stroke-width="1.224" id="22" cx="3.6" stroke="black" cy="32.4" r="1.908"  fill="none"/>
      <g stroke-width="1.224" id="23" cx="3.6" stroke="black" cy="39.6" r="1.908"  fill="none"/>
      <g stroke-width="1.224" id="24" cx="3.6" stroke="black" cy="46.8" r="1.908"  fill="none"/>
      <g stroke-width="1.224" id="25" cx="3.6" stroke="black" cy="54" r="1.908"  fill="none"/>
      <g stroke-width="1.224" id="26" cx="3.6" stroke="black" cy="61.2" r="1.908"  fill="none"/>
      <g stroke-width="1.224" id="27" cx="3.6" stroke="black" cy="68.4" r="1.908"  fill="none"/>
      <g stroke-width="1.224" id="28" cx="3.6" stroke="black" cy="75.6" r="1.908"  fill="none"/>
      <g stroke-width="1.224" id="29" cx="3.6" stroke="black" cy="82.8" r="1.908"  fill="none"/>
      <g stroke-width="1.224" id="30" cx="3.6" stroke="black" cy="90" r="1.908"  fill="none"/>
      <g stroke-width="1.224" id="31" cx="3.6" stroke="black" cy="97.2" r="1.908"  fill="none"/>
      <g stroke-width="1.224" id="32" cx="3.6" stroke="black" cy="104.4" r="1.908"  fill="none"/>
      <g stroke-width="1.224" id="33" cx="3.6" stroke="black" cy="111.6" r="1.908"  fill="none"/>
      <g stroke-width="1.224" id="34" cx="46.8" stroke="black" cy="10.8" r="1.908"  fill="none"/>
      <g stroke-width="1.224" id="35" cx="46.8" stroke="black" cy="18" r="1.908"  fill="none"/>
      <g stroke-width="1.224" id="36" cx="46.8" stroke="black" cy="25.2" r="1.908"  fill="none"/>
      <g stroke-width="1.224" id="37" cx="46.8" stroke="black" cy="32.4" r="1.908"  fill="none"/>
      <g stroke-width="1.224" id="38" cx="46.8" stroke="black" cy="39.6" r="1.908"  fill="none"/>
      <g stroke-width="1.224" id="39" cx="46.8" stroke="black" cy="46.8" r="1.908"  fill="none"/>
      <g stroke-width="1.224" id="40" cx="46.8" stroke="black" cy="54" r="1.908"  fill="none"/>
      <g stroke-width="1.224" id="41" cx="46.8" stroke="black" cy="61.2" r="1.908"  fill="none"/>
      <g stroke-width="1.224" id="42" cx="46.8" stroke="black" cy="68.4" r="1.908"  fill="none"/>
      <g stroke-width="1.224" id="43" cx="46.8" stroke="black" cy="75.6" r="1.908"  fill="none"/>
      <g stroke-width="1.224" id="44" cx="46.8" stroke="black" cy="82.8" r="1.908"  fill="none"/>
      <g stroke-width="1.224" id="45" cx="46.8" stroke="black" cy="90" r="1.908"  fill="none"/>
      <g stroke-width="1.224" id="46" cx="46.8" stroke="black" cy="97.2" r="1.908"  fill="none"/>
      <g stroke-width="1.224" id="47" cx="46.8" stroke="black" cy="104.4" r="1.908"  fill="none"/>
      <g stroke-width="1.224" id="48" cx="46.8" stroke="black" cy="111.6" r="1.908"  fill="none"/>
     </g>
    </g>
   </g>
  </g>
  <g partID="68102">
   <g transform="translate(179.387,74.9971)">
    <g id="copper1" >
     <g id="copper0" >
      <g stroke-width="1.224" id="49" cx="3.6" stroke="black" cy="10.8" r="1.908"  fill="none"/>
      <g stroke-width="1.224" id="50" height="3.816" x="1.692" y="8.892" stroke="black"  fill="none" width="3.814"/>
      <g stroke-width="1.224" id="51" cx="3.6" stroke="black" cy="18" r="1.908"  fill="none"/>
      <g stroke-width="1.224" id="52" cx="3.6" stroke="black" cy="25.2" r="1.908"  fill="none"/>
      <g stroke-width="1.224" id="53" cx="3.6" stroke="black" cy="32.4" r="1.908"  fill="none"/>
      <g stroke-width="1.224" id="54" cx="3.6" stroke="black" cy="39.6" r="1.908"  fill="none"/>
      <g stroke-width="1.224" id="55" cx="3.6" stroke="black" cy="46.8" r="1.908"  fill="none"/>
      <g stroke-width="1.224" id="56" cx="3.6" stroke="black" cy="54" r="1.908"  fill="none"/>
      <g stroke-width="1.224" id="57" cx="3.6" stroke="black" cy="61.2" r="1.908"  fill="none"/>
      <g stroke-width="1.224" id="58" cx="3.6" stroke="black" cy="68.4" r="1.908"  fill="none"/>
      <g stroke-width="1.224" id="59" cx="3.6" stroke="black" cy="75.6" r="1.908"  fill="none"/>
      <g stroke-width="1.224" id="60" cx="3.6" stroke="black" cy="82.8" r="1.908"  fill="none"/>
      <g stroke-width="1.224" id="61" cx="3.6" stroke="black" cy="90" r="1.908"  fill="none"/>
      <g stroke-width="1.224" id="62" cx="3.6" stroke="black" cy="97.2" r="1.908"  fill="none"/>
      <g stroke-width="1.224" id="63" cx="3.6" stroke="black" cy="104.4" r="1.908"  fill="none"/>
      <g stroke-width="1.224" id="64" cx="3.6" stroke="black" cy="111.6" r="1.908"  fill="none"/>
      <g stroke-width="1.224" id="65" cx="46.8" stroke="black" cy="10.8" r="1.908"  fill="none"/>
      <g stroke-width="1.224" id="66" cx="46.8" stroke="black" cy="18" r="1.908"  fill="none"/>
      <g stroke-width="1.224" id="67" cx="46.8" stroke="black" cy="25.2" r="1.908"  fill="none"/>
      <g stroke-width="1.224" id="68" cx="46.8" stroke="black" cy="32.4" r="1.908"  fill="none"/>
      <g stroke-width="1.224" id="69" cx="46.8" stroke="black" cy="39.6" r="1.908"  fill="none"/>
      <g stroke-width="1.224" id="70" cx="46.8" stroke="black" cy="46.8" r="1.908"  fill="none"/>
      <g stroke-width="1.224" id="71" cx="46.8" stroke="black" cy="54" r="1.908"  fill="none"/>
      <g stroke-width="1.224" id="72" cx="46.8" stroke="black" cy="61.2" r="1.908"  fill="none"/>
      <g stroke-width="1.224" id="73" cx="46.8" stroke="black" cy="68.4" r="1.908"  fill="none"/>
      <g stroke-width="1.224" id="74" cx="46.8" stroke="black" cy="75.6" r="1.908"  fill="none"/>
      <g stroke-width="1.224" id="75" cx="46.8" stroke="black" cy="82.8" r="1.908"  fill="none"/>
      <g stroke-width="1.224" id="76" cx="46.8" stroke="black" cy="90" r="1.908"  fill="none"/>
      <g stroke-width="1.224" id="77" cx="46.8" stroke="black" cy="97.2" r="1.908"  fill="none"/>
      <g stroke-width="1.224" id="78" cx="46.8" stroke="black" cy="104.4" r="1.908"  fill="none"/>
      <g stroke-width="1.224" id="79" cx="46.8" stroke="black" cy="111.6" r="1.908"  fill="none"/>
     </g>
    </g>
   </g>
  </g>
  <g partID="100562">
   <g transform="translate(10.466,225.39)">
    <g id="copper1" >
     <!-- <rect width="55" x="10" y="15.5" fill="none" height="55" stroke="rgb(255, 191, 0)" stroke-width="20" />  -->
     <g stroke-width="1.44" id="80" cx="2.7" cy="3.096" stroke="black" r="1.98"  fill="none"/>
     <g stroke-width="1.44" id="81" cx="31.5" cy="3.096" stroke="black" r="1.98"  fill="none"/>
    </g>
   </g>
  </g>
  <g partID="87832">
   <g transform="translate(11.17,149.269)">
    <g id="copper1" >
     <!-- <rect width="55" x="10" y="15.5" fill="none" height="55" stroke="rgb(255, 191, 0)" stroke-width="20" />  -->
     <g stroke-width="1.44" id="82" cx="2.7" cy="3.096" stroke="black" r="1.98"  fill="none"/>
     <g stroke-width="1.44" id="83" cx="31.5" cy="3.096" stroke="black" r="1.98"  fill="none"/>
    </g>
   </g>
  </g>
  <g partID="75392">
   <g transform="translate(11.403,125.328)">
    <g id="copper1" >
     <!-- <rect width="55" x="10" y="15.5" fill="none" height="55" stroke="rgb(255, 191, 0)" stroke-width="20" />  -->
     <g stroke-width="1.44" id="84" cx="2.7" cy="3.096" stroke="black" r="1.98"  fill="none"/>
     <g stroke-width="1.44" id="85" cx="31.5" cy="3.096" stroke="black" r="1.98"  fill="none"/>
    </g>
   </g>
  </g>
  <g partID="75782">
   <g transform="translate(10.9208,193.091)">
    <g id="copper1" >
     <!-- <rect width="55" x="10" y="15.5" fill="none" height="55" stroke="rgb(255, 191, 0)" stroke-width="20" />  -->
     <g stroke-width="1.44" id="86" cx="2.7" cy="3.096" stroke="black" r="1.98"  fill="none"/>
     <g stroke-width="1.44" id="87" cx="31.5" cy="3.096" stroke="black" r="1.98"  fill="none"/>
    </g>
   </g>
  </g>
  <g partID="259012">
   <g transform="translate(360.185,190.592)">
    <g id="copper1" >
     <!-- <rect width="55" x="10" y="15.5" fill="none" height="55" stroke="rgb(255, 191, 0)" stroke-width="20" />  -->
     <g stroke-width="1.44" id="88" cx="2.7" cy="3.096" stroke="black" r="1.98"  fill="none"/>
     <g stroke-width="1.44" id="89" cx="31.5" cy="3.096" stroke="black" r="1.98"  fill="none"/>
    </g>
   </g>
  </g>
  <g partID="258992">
   <g transform="translate(360.536,235.305)">
    <g id="copper1" >
     <!-- <rect width="55" x="10" y="15.5" fill="none" height="55" stroke="rgb(255, 191, 0)" stroke-width="20" />  -->
     <g stroke-width="1.44" id="90" cx="2.7" cy="3.096" stroke="black" r="1.98"  fill="none"/>
     <g stroke-width="1.44" id="91" cx="31.5" cy="3.096" stroke="black" r="1.98"  fill="none"/>
    </g>
   </g>
  </g>
  <g partID="258822">
   <g transform="translate(360.024,140.385)">
    <g id="copper1" >
     <!-- <rect width="55" x="10" y="15.5" fill="none" height="55" stroke="rgb(255, 191, 0)" stroke-width="20" />  -->
     <g stroke-width="1.44" id="92" cx="2.7" cy="3.096" stroke="black" r="1.98"  fill="none"/>
     <g stroke-width="1.44" id="93" cx="31.5" cy="3.096" stroke="black" r="1.98"  fill="none"/>
    </g>
   </g>
  </g>
  <g partID="247602">
   <g transform="translate(431.335,205.895)">
    <g transform="matrix(0,1,-1,0,0,0)">
     <g id="copper1" >
      <g connectorname="1" stroke-width="1.224" id="94" cx="6.45336" cy="9.06746" r="2.052" stroke="black"  fill="none"/>
      <g connectorname="2" stroke-width="1.224" id="95" cx="6.45336" cy="16.7715" r="2.052" stroke="black"  fill="none"/>
      <g connectorname="3" stroke-width="1.224" id="96" cx="6.45336" cy="24.4755" r="2.052" stroke="black"  fill="none"/>
      <g id="copper0" >
       <g connectorname="1" stroke-width="1.224" id="97" cx="6.45336" cy="9.06746" r="2.052" stroke="black"  fill="none"/>
       <g connectorname="2" stroke-width="1.224" id="98" cx="6.45336" cy="16.7715" r="2.052" stroke="black"  fill="none"/>
       <g connectorname="3" stroke-width="1.224" id="99" cx="6.45336" cy="24.4755" r="2.052" stroke="black"  fill="none"/>
      </g>
     </g>
    </g>
   </g>
  </g>
  <g partID="247582">
   <g transform="translate(428.297,161.005)">
    <g transform="matrix(0,1,-1,0,0,0)">
     <g id="copper1" >
      <g connectorname="1" stroke-width="1.224" id="100" cx="6.45336" cy="9.06746" r="2.052" stroke="black"  fill="none"/>
      <g connectorname="2" stroke-width="1.224" id="101" cx="6.45336" cy="16.7715" r="2.052" stroke="black"  fill="none"/>
      <g connectorname="3" stroke-width="1.224" id="102" cx="6.45336" cy="24.4755" r="2.052" stroke="black"  fill="none"/>
      <g id="copper0" >
       <g connectorname="1" stroke-width="1.224" id="103" cx="6.45336" cy="9.06746" r="2.052" stroke="black"  fill="none"/>
       <g connectorname="2" stroke-width="1.224" id="104" cx="6.45336" cy="16.7715" r="2.052" stroke="black"  fill="none"/>
       <g connectorname="3" stroke-width="1.224" id="105" cx="6.45336" cy="24.4755" r="2.052" stroke="black"  fill="none"/>
      </g>
     </g>
    </g>
   </g>
  </g>
  <g partID="75132">
   <g transform="translate(81.4697,220.942)">
    <g id="copper1" >
     <g connectorname="1" stroke-width="1.224" id="106" cx="6.45336" cy="9.06746" r="2.052" stroke="black"  fill="none"/>
     <g connectorname="2" stroke-width="1.224" id="107" cx="6.45336" cy="16.7715" r="2.052" stroke="black"  fill="none"/>
     <g connectorname="3" stroke-width="1.224" id="108" cx="6.45336" cy="24.4755" r="2.052" stroke="black"  fill="none"/>
     <g id="copper0" >
      <g connectorname="1" stroke-width="1.224" id="109" cx="6.45336" cy="9.06746" r="2.052" stroke="black"  fill="none"/>
      <g connectorname="2" stroke-width="1.224" id="110" cx="6.45336" cy="16.7715" r="2.052" stroke="black"  fill="none"/>
      <g connectorname="3" stroke-width="1.224" id="111" cx="6.45336" cy="24.4755" r="2.052" stroke="black"  fill="none"/>
     </g>
    </g>
   </g>
  </g>
  <g partID="75272">
   <g transform="translate(82.3042,172.276)">
    <g id="copper1" >
     <g connectorname="1" stroke-width="1.224" id="112" cx="6.45336" cy="9.57146" r="2.052" stroke="black"  fill="none"/>
     <g connectorname="2" stroke-width="1.224" id="113" cx="6.45336" cy="16.7715" r="2.052" stroke="black"  fill="none"/>
     <g connectorname="3" stroke-width="1.224" id="114" cx="6.45336" cy="23.9715" r="2.052" stroke="black"  fill="none"/>
     <g id="copper0" >
      <g connectorname="1" stroke-width="1.224" id="115" cx="6.45336" cy="9.57146" r="2.052" stroke="black"  fill="none"/>
      <g connectorname="2" stroke-width="1.224" id="116" cx="6.45336" cy="16.7715" r="2.052" stroke="black"  fill="none"/>
      <g connectorname="3" stroke-width="1.224" id="117" cx="6.45336" cy="23.9715" r="2.052" stroke="black"  fill="none"/>
     </g>
    </g>
   </g>
  </g>
  <g partID="76742">
   <g transform="translate(132.07,213.945)">
    <g id="copper1" >
     <g id="copper0" >
      <g stroke-width="1.44" id="118" height="4.176" x="2.952" y="2.952" stroke="black"  fill="none" width="4.176"/>
      <g stroke-width="1.44" id="119" cx="5.04" cy="5.04" r="2.088" stroke="black"  fill="none"/>
      <g stroke-width="1.44" id="120" cx="5.04" cy="12.24" r="2.088" stroke="black"  fill="none"/>
      <g stroke-width="1.44" id="121" cx="5.04" cy="19.44" r="2.088" stroke="black"  fill="none"/>
     </g>
    </g>
   </g>
  </g>
  <g partID="79212">
   <g transform="translate(42.2912,99.6953)">
    <g transform="matrix(0,-1,1,0,0,0)">
     <g id="copper1">
      <g transform="matrix(1, 0, 0, 1, -2.74415, 0.362573)">
       <g id="copper0">
        <g transform="matrix(1, 0, 0, 1, 18.3175, 7.26522)">
         <g id="control">
          <g stroke-width="1.44" id="122" cx="2.808" r="2.088" stroke="black" cy="10.8026" fill="none" gorn="0.2.0.0"/>
          <g stroke-width="1.44" id="123" cx="2.808" r="2.088" stroke="black" cy="18.0026" fill="none" gorn="0.2.0.1"/>
          <g stroke-width="1.44" id="124" cx="2.808" r="2.088" stroke="black" cy="25.2026" fill="none" gorn="0.2.0.2"/>
          <g stroke-width="1.44" id="125" cx="2.808" r="2.088" stroke="black" cy="32.4026" fill="none" gorn="0.2.0.3"/>
         </g>
        </g>
        <g transform="matrix(1, 0, 0, 1, 7.49903, 35.9911)">
         <g id="power">
          <g transform="rotate(-90)">
           <g stroke-width="1.44" id="126" cx="-39.6026" r="2.088" stroke="black" cy="24.408" fill="none" gorn="0.2.0.4"/>
          </g>
          <g transform="rotate(-90)">
           <g stroke-width="1.44" id="127" cx="-39.6026" r="2.088" stroke="black" cy="31.608" fill="none" gorn="0.2.0.5"/>
          </g>
          <g transform="rotate(-90)">
           <g stroke-width="1.44" id="128" cx="-39.6026" r="2.088" stroke="black" cy="38.808" fill="none" gorn="0.2.0.6"/>
          </g>
          <g transform="rotate(-90)">
           <g stroke-width="1.44" id="129" cx="-39.6026" r="2.088" stroke="black" cy="46.008" fill="none" gorn="0.2.0.7"/>
          </g>
         </g>
        </g>
        <g transform="matrix(1, 0, 0, 1, 3.94497, 6.85673)">
         <g id="motor">
          <g stroke-width="1.44" id="130" cx="63.9587" r="2.088" stroke="black" cy="7.42934" fill="none" gorn="0.2.0.8"/>
          <g stroke-width="1.44" id="131" cx="63.9587" r="2.088" stroke="black" cy="14.516" fill="none" gorn="0.2.0.9"/>
          <g stroke-width="1.44" id="132" cx="64.008" r="2.088" stroke="black" cy="21.6026" fill="none" gorn="0.2.0.10"/>
          <g stroke-width="1.44" id="133" cx="63.9587" r="2.088" stroke="black" cy="28.6892" fill="none" gorn="0.2.0.11"/>
          <g stroke-width="1.44" id="134" cx="63.9587" r="2.088" stroke="black" cy="35.7758" fill="none" gorn="0.2.0.12"/>
         </g>
        </g>
       </g>
      </g>
     </g>
    </g>
   </g>
  </g>
  <g partID="83902">
   <g transform="translate(186.942,230.303)">
    <g id="copper1"  gorn="0.4">
     <g id="copper0"  gorn="0.4.0">
      <g stroke-width="1.44" id="135" height="4.176" x="82.3725" y="10.7252" stroke="black"  fill="none" width="4.176" gorn="0.4.0.0"/>
      <g stroke-width="1.44" id="136" cx="84.4605" r="2.088" cy="12.8132" stroke="black"  fill="none" gorn="0.4.0.1"/>
      <g stroke-width="1.44" id="137" cx="84.4605" r="2.088" cy="20.0132" stroke="black"  fill="none" gorn="0.4.0.2"/>
      <g stroke-width="1.44" id="138" cx="84.4605" r="2.088" cy="27.2132" stroke="black"  fill="none" gorn="0.4.0.3"/>
     </g>
    </g>
   </g>
  </g>
  <g partID="84161">
   <g transform="translate(281.041,72.0012)">
    <g id="copper1"  gorn="0.2">
     <g id="copper0"  gorn="0.2.0">
      <g stroke-width="1" id="139" cx="9.228" cy="83.4359" stroke="black" r="2.063"  stroke-miterlimit="10" fill="none" gorn="0.2.0.0"/>
      <g stroke-width="1" id="140" cx="16.427" cy="83.4359" stroke="black" r="2.063"  stroke-miterlimit="10" fill="none" gorn="0.2.0.1"/>
      <g stroke-width="1" id="141" cx="23.627" cy="83.4359" stroke="black" r="2.063"  stroke-miterlimit="10" fill="none" gorn="0.2.0.2"/>
      <g stroke-width="1" id="142" cx="30.827" cy="83.4359" stroke="black" r="2.063"  stroke-miterlimit="10" fill="none" gorn="0.2.0.3"/>
     </g>
     <g id="copper0_2_"  gorn="0.2.1">
      <g id="copper0_1_"  gorn="0.2.1.0">
       <g stroke-width="1" id="143" cx="15.926" cy="5.186" stroke="black" r="2.063"  stroke-miterlimit="10" fill="none" gorn="0.2.1.0.0"/>
       <g stroke-width="1" id="144" cx="23.125" cy="5.186" stroke="black" r="2.063"  stroke-miterlimit="10" fill="none" gorn="0.2.1.0.1"/>
      </g>
     </g>
    </g>
   </g>
  </g>
  <g partID="84192">
   <g transform="translate(368.741,117.705)">
    <g transform="matrix(0,-1,1,0,0,0)">
     <g id="copper1"  gorn="0.3">
      <g id="copper0"  gorn="0.3.0">
       <g stroke-width="1" id="145" cx="53.3432" cy="7.82201" stroke="black" r="1.93501"  stroke-miterlimit="10" fill="none" gorn="0.3.0.0"/>
       <g stroke-width="1" id="146" cx="60.5442" cy="7.82201" stroke="black" r="1.93501"  stroke-miterlimit="10" fill="none" gorn="0.3.0.1"/>
      </g>
     </g>
    </g>
   </g>
  </g>
  <g partID="91832">
   <g transform="translate(296.292,249.336)">
    <g id="copper1" >
     <g connectorname="PWR" stroke-width="1.41732" id="147" cx="5.66929" cy="2.83465" r="2.12598" stroke="black"  fill="none"/>
     <g d="m8.50393,0a2.83464,2.83465,0,0,1,2.83464,2.83465l0,0a2.83464,2.83465,0,0,1,-2.83464,2.83465l-5.66929,0a2.83464,2.83465,0,0,1,-2.83464,-2.83465l0,0a2.83464,2.83465,0,0,1,2.83464,-2.83465l5.66929,0zM4.25197,2.83465a1.41732,1.41732,0,1,0,2.83464,0,1.41732,1.41732,0,1,0,-2.83464,0z" stroke-width="0" id="148" stroke="none"  fill="black"/>
     <g connectorname="GND@1" stroke-width="1.41732" id="149" cx="5.66929" cy="20.6929" r="2.12598" stroke="black"  fill="none"/>
     <g d="m8.50393,17.8583a2.83464,2.83465,0,0,1,2.83464,2.83465l0,0a2.83464,2.83465,0,0,1,-2.83464,2.83465l-5.66929,0a2.83464,2.83465,0,0,1,-2.83464,-2.83465l0,0a2.83464,2.83465,0,0,1,2.83464,-2.83465l5.66929,0zM4.25197,20.6929a1.41732,1.41732,0,1,0,2.83464,0,1.41732,1.41732,0,1,0,-2.83464,0z" stroke-width="0" id="150" stroke="none"  fill="black"/>
     <g connectorname="GND@2" stroke-width="1.41732" id="151" cx="19.8425" cy="11.3386" r="2.12598" stroke="black"  fill="none"/>
     <g d="m19.8425,5.66929a2.83464,2.83465,0,0,1,2.83464,2.83465l0,5.66929a2.83464,2.83465,0,0,1,-2.83464,2.83465l0,0a2.83464,2.83465,0,0,1,-2.83464,-2.83465l0,-5.66929a2.83464,2.83465,0,0,1,2.83464,-2.83465l0,0zM18.4252,11.3386a1.41732,1.41732,0,1,0,2.83464,0,1.41732,1.41732,0,1,0,-2.83464,0z" stroke-width="0" id="152" stroke="none"  fill="black"/>
     <g id="copper0" >
      <g connectorname="PWR" stroke-width="1.41732" id="153" cx="5.66929" cy="2.83465" r="2.12598" stroke="black"  fill="none"/>
      <g d="m8.50393,0a2.83464,2.83465,0,0,1,2.83464,2.83465l0,0a2.83464,2.83465,0,0,1,-2.83464,2.83465l-5.66929,0a2.83464,2.83465,0,0,1,-2.83464,-2.83465l0,0a2.83464,2.83465,0,0,1,2.83464,-2.83465l5.66929,0zM4.25197,2.83465a1.41732,1.41732,0,1,0,2.83464,0,1.41732,1.41732,0,1,0,-2.83464,0z" stroke-width="0" id="154" stroke="none"  fill="black"/>
      <g connectorname="GND@1" stroke-width="1.41732" id="155" cx="5.66929" cy="20.6929" r="2.12598" stroke="black"  fill="none"/>
      <g d="m8.50393,17.8583a2.83464,2.83465,0,0,1,2.83464,2.83465l0,0a2.83464,2.83465,0,0,1,-2.83464,2.83465l-5.66929,0a2.83464,2.83465,0,0,1,-2.83464,-2.83465l0,0a2.83464,2.83465,0,0,1,2.83464,-2.83465l5.66929,0zM4.25197,20.6929a1.41732,1.41732,0,1,0,2.83464,0,1.41732,1.41732,0,1,0,-2.83464,0z" stroke-width="0" id="156" stroke="none"  fill="black"/>
      <g connectorname="GND@2" stroke-width="1.41732" id="157" cx="19.8425" cy="11.3386" r="2.12598" stroke="black"  fill="none"/>
      <g d="m19.8425,5.66929a2.83464,2.83465,0,0,1,2.83464,2.83465l0,5.66929a2.83464,2.83465,0,0,1,-2.83464,2.83465l0,0a2.83464,2.83465,0,0,1,-2.83464,-2.83465l0,-5.66929a2.83464,2.83465,0,0,1,2.83464,-2.83465l0,0zM18.4252,11.3386a1.41732,1.41732,0,1,0,2.83464,0,1.41732,1.41732,0,1,0,-2.83464,0z" stroke-width="0" id="158" stroke="none"  fill="black"/>
     </g>
    </g>
   </g>
  </g>
  <g partID="78532">
   <g transform="translate(79.0604,266.064)">
    <g id="copper1" >
     <!-- <rect width="55" x="10" y="15.5" fill="none" height="55" stroke="rgb(255, 191, 0)" stroke-width="20" />  -->
     <g stroke-width="1.44" id="159" cx="2.7" cy="3.096" stroke="black" r="1.98"  fill="none"/>
     <g stroke-width="1.44" id="160" cx="31.5" cy="3.096" stroke="black" r="1.98"  fill="none"/>
    </g>
   </g>
  </g>
  <g partID="365122">
   <g transform="translate(151.349,255.776)">
    <g transform="matrix(0,-1,1,0,0,0)">
     <g id="copper1" >
      <g stroke-width="1.13384" id="161" cx="8.7872" stroke="black" cy="10.6336" r="1.7008"  fill="none"/>
      <g stroke-width="1.13384" id="162" height="3.4016" x="7.0864" y="8.9328" stroke="black"  fill="none" width="3.4016"/>
      <g stroke-width="1.13384" id="163" cx="8.7872" stroke="black" cy="3.5464" r="1.7008"  fill="none"/>
     </g>
    </g>
   </g>
  </g>
 </g>
</svg>
