<?xml version='1.0' encoding='UTF-8' standalone='no'?>
<!-- Created with Fritzing (http://www.fritzing.org/) -->
<svg xmlns="http://www.w3.org/2000/svg" baseProfile="tiny" xmlns:svg="http://www.w3.org/2000/svg" width="7.87402in" height="3.93701in" viewBox="0 0 566.929 283.465" version="1.2"  x="0in" y="0in">
 <g partID="57660">
  <g transform="translate(566.929,283.465)">
   <g transform="matrix(-1,0,0,-1,0,0)">
    <g id="board" >
     <rect fill="none" width="566.354" height="282.889" stroke-width="0.5" id="boardoutline" fill-opacity="0.5" stroke="black"  x="0.288" y="0.288"/>
    </g>
   </g>
  </g>
 </g>
 <g partID="365121">
  <g transform="translate(151.349,255.775)">
   <g transform="matrix(0,-1,1,0,0,0)">
    <g id="copper1" >
     <g fill="none" cy="10.6336" r="1.7008" cx="8.7872" stroke-width="1.13384" id="0" stroke="black" />
     <g fill="none" width="3.4016" height="3.4016" stroke-width="1.13384" id="1" stroke="black"  x="7.0864" y="8.9328"/>
     <g fill="none" cy="3.5464" r="1.7008" cx="8.7872" stroke-width="1.13384" id="2" stroke="black" />
    </g>
   </g>
  </g>
 </g>
 <g partID="213901">
  <g transform="translate(308.916,194.226)">
   <g transform="matrix(1, 0, 0, 1, 0.54, -104.076)">
    <g id="copper1">
     <g gorn="0.3.0.0.0.0">
      <g style="fill-rule:evenodd;stroke-linecap:butt;stroke-linejoin:miter;stroke-miterlimit:4;stroke-dasharray:none;" fill="none" gorn="0.3.0.0.0.0.0" r="3.8016" cy="124.709" cx="17.3016" stroke-width="2.88" id="3" fill-opacity="1" stroke="black" stroke-opacity="1"/>
      <g style="fill-rule:evenodd;stroke-linecap:butt;stroke-linejoin:miter;stroke-miterlimit:4;stroke-dasharray:none;" fill="none" gorn="0.3.0.0.0.0.1" r="3.8016" cy="109.584" cx="17.3016" stroke-width="2.88" id="4" fill-opacity="1" stroke="black" stroke-opacity="1"/>
     </g>
    </g>
   </g>
  </g>
 </g>
 <g partID="246851">
  <g transform="translate(562.834,185.833)">
   <g transform="matrix(0,1,-1,0,0,0)">
    <g flipped="1" id="copper1">
     <g transform="matrix(-1, 0, 0, 1, 10.08, 0)">
      <g>
       <g>
        <g>
         <g fill="none" height="4.176" width="4.176" stroke-width="1.44" id="5" stroke="black" x="2.952" y="2.952"/>
         <g fill="none" cy="5.04" r="2.088" cx="5.04" stroke-width="1.44" id="6" stroke="black"/>
         <g fill="none" cy="12.24" r="2.088" cx="5.04" stroke-width="1.44" id="7" stroke="black"/>
         <g fill="none" cy="19.44" r="2.088" cx="5.04" stroke-width="1.44" id="8" stroke="black"/>
        </g>
        <g>
         <g id="copper0">
          <g fill="none" height="4.176" width="4.176" stroke-width="1.44" id="9" stroke="black" x="2.952" y="2.952"/>
          <g fill="none" cy="5.04" r="2.088" cx="5.04" stroke-width="1.44" id="10" stroke="black"/>
          <g fill="none" cy="12.24" r="2.088" cx="5.04" stroke-width="1.44" id="11" stroke="black"/>
          <g fill="none" cy="19.44" r="2.088" cx="5.04" stroke-width="1.44" id="12" stroke="black"/>
         </g>
        </g>
       </g>
      </g>
     </g>
    </g>
   </g>
  </g>
 </g>
 <g partID="271030">
  <g transform="translate(436.125,236.507)">
   <g transform="matrix(0,1,-1,0,0,0)">
    <g id="copper1" >
     <rect fill="black" width="4.53543" height="5.38583" id="13" fill-opacity="1" stroke="none"  x="0.566929" y="0.566929"/>
     <rect fill="black" width="4.53543" height="5.38583" id="14" fill-opacity="1" stroke="none"  x="9.35433" y="0.566929"/>
    </g>
   </g>
  </g>
 </g>
 <g partID="186241">
  <g transform="translate(70.5235,149.008)">
   <g id="copper1" >
    <g id="copper0" >
     <g fill="none" height="5.184" width="5.184" stroke-width="1.44" id="15" stroke="black"  x="0.72" y="0.72"/>
     <g fill="none" cy="3.312" r="2.592" cx="3.312" stroke-width="1.44" id="16" stroke="black" />
     <g fill="none" cy="3.312" r="2.592" cx="24.912" stroke-width="1.44" id="17" stroke="black" />
    </g>
   </g>
  </g>
 </g>
 <g partID="184471">
  <g transform="translate(70.3075,125.71)">
   <g id="copper1" >
    <g id="copper0" >
     <g fill="none" height="5.184" width="5.184" stroke-width="1.44" id="18" stroke="black"  x="0.72" y="0.72"/>
     <g fill="none" cy="3.312" r="2.592" cx="3.312" stroke-width="1.44" id="19" stroke="black" />
     <g fill="none" cy="3.312" r="2.592" cx="24.912" stroke-width="1.44" id="20" stroke="black" />
    </g>
   </g>
  </g>
 </g>
 <g partID="240651">
  <g transform="translate(469.357,135.953)">
   <g id="copper1" >
    <g id="copper0" >
     <g fill="none" cy="10.8" r="1.908" cx="3.6" stroke-width="1.224" id="21" stroke="black" />
     <g fill="none" width="3.814" height="3.816" stroke-width="1.224" id="22" stroke="black"  x="1.692" y="8.892"/>
     <g fill="none" cy="18" r="1.908" cx="3.6" stroke-width="1.224" id="23" stroke="black" />
     <g fill="none" cy="25.2" r="1.908" cx="3.6" stroke-width="1.224" id="24" stroke="black" />
     <g fill="none" cy="32.4" r="1.908" cx="3.6" stroke-width="1.224" id="25" stroke="black" />
     <g fill="none" cy="39.6" r="1.908" cx="3.6" stroke-width="1.224" id="26" stroke="black" />
     <g fill="none" cy="46.8" r="1.908" cx="3.6" stroke-width="1.224" id="27" stroke="black" />
     <g fill="none" cy="54" r="1.908" cx="3.6" stroke-width="1.224" id="28" stroke="black" />
     <g fill="none" cy="61.2" r="1.908" cx="3.6" stroke-width="1.224" id="29" stroke="black" />
     <g fill="none" cy="68.4" r="1.908" cx="3.6" stroke-width="1.224" id="30" stroke="black" />
     <g fill="none" cy="75.6" r="1.908" cx="3.6" stroke-width="1.224" id="31" stroke="black" />
     <g fill="none" cy="82.8" r="1.908" cx="3.6" stroke-width="1.224" id="32" stroke="black" />
     <g fill="none" cy="90" r="1.908" cx="3.6" stroke-width="1.224" id="33" stroke="black" />
     <g fill="none" cy="97.2" r="1.908" cx="3.6" stroke-width="1.224" id="34" stroke="black" />
     <g fill="none" cy="104.4" r="1.908" cx="3.6" stroke-width="1.224" id="35" stroke="black" />
     <g fill="none" cy="111.6" r="1.908" cx="3.6" stroke-width="1.224" id="36" stroke="black" />
     <g fill="none" cy="10.8" r="1.908" cx="46.8" stroke-width="1.224" id="37" stroke="black" />
     <g fill="none" cy="18" r="1.908" cx="46.8" stroke-width="1.224" id="38" stroke="black" />
     <g fill="none" cy="25.2" r="1.908" cx="46.8" stroke-width="1.224" id="39" stroke="black" />
     <g fill="none" cy="32.4" r="1.908" cx="46.8" stroke-width="1.224" id="40" stroke="black" />
     <g fill="none" cy="39.6" r="1.908" cx="46.8" stroke-width="1.224" id="41" stroke="black" />
     <g fill="none" cy="46.8" r="1.908" cx="46.8" stroke-width="1.224" id="42" stroke="black" />
     <g fill="none" cy="54" r="1.908" cx="46.8" stroke-width="1.224" id="43" stroke="black" />
     <g fill="none" cy="61.2" r="1.908" cx="46.8" stroke-width="1.224" id="44" stroke="black" />
     <g fill="none" cy="68.4" r="1.908" cx="46.8" stroke-width="1.224" id="45" stroke="black" />
     <g fill="none" cy="75.6" r="1.908" cx="46.8" stroke-width="1.224" id="46" stroke="black" />
     <g fill="none" cy="82.8" r="1.908" cx="46.8" stroke-width="1.224" id="47" stroke="black" />
     <g fill="none" cy="90" r="1.908" cx="46.8" stroke-width="1.224" id="48" stroke="black" />
     <g fill="none" cy="97.2" r="1.908" cx="46.8" stroke-width="1.224" id="49" stroke="black" />
     <g fill="none" cy="104.4" r="1.908" cx="46.8" stroke-width="1.224" id="50" stroke="black" />
     <g fill="none" cy="111.6" r="1.908" cx="46.8" stroke-width="1.224" id="51" stroke="black" />
    </g>
   </g>
  </g>
 </g>
 <g partID="68101">
  <g transform="translate(179.388,74.9966)">
   <g id="copper1" >
    <g id="copper0" >
     <g fill="none" cy="10.8" r="1.908" cx="3.6" stroke-width="1.224" id="52" stroke="black" />
     <g fill="none" width="3.814" height="3.816" stroke-width="1.224" id="53" stroke="black"  x="1.692" y="8.892"/>
     <g fill="none" cy="18" r="1.908" cx="3.6" stroke-width="1.224" id="54" stroke="black" />
     <g fill="none" cy="25.2" r="1.908" cx="3.6" stroke-width="1.224" id="55" stroke="black" />
     <g fill="none" cy="32.4" r="1.908" cx="3.6" stroke-width="1.224" id="56" stroke="black" />
     <g fill="none" cy="39.6" r="1.908" cx="3.6" stroke-width="1.224" id="57" stroke="black" />
     <g fill="none" cy="46.8" r="1.908" cx="3.6" stroke-width="1.224" id="58" stroke="black" />
     <g fill="none" cy="54" r="1.908" cx="3.6" stroke-width="1.224" id="59" stroke="black" />
     <g fill="none" cy="61.2" r="1.908" cx="3.6" stroke-width="1.224" id="60" stroke="black" />
     <g fill="none" cy="68.4" r="1.908" cx="3.6" stroke-width="1.224" id="61" stroke="black" />
     <g fill="none" cy="75.6" r="1.908" cx="3.6" stroke-width="1.224" id="62" stroke="black" />
     <g fill="none" cy="82.8" r="1.908" cx="3.6" stroke-width="1.224" id="63" stroke="black" />
     <g fill="none" cy="90" r="1.908" cx="3.6" stroke-width="1.224" id="64" stroke="black" />
     <g fill="none" cy="97.2" r="1.908" cx="3.6" stroke-width="1.224" id="65" stroke="black" />
     <g fill="none" cy="104.4" r="1.908" cx="3.6" stroke-width="1.224" id="66" stroke="black" />
     <g fill="none" cy="111.6" r="1.908" cx="3.6" stroke-width="1.224" id="67" stroke="black" />
     <g fill="none" cy="10.8" r="1.908" cx="46.8" stroke-width="1.224" id="68" stroke="black" />
     <g fill="none" cy="18" r="1.908" cx="46.8" stroke-width="1.224" id="69" stroke="black" />
     <g fill="none" cy="25.2" r="1.908" cx="46.8" stroke-width="1.224" id="70" stroke="black" />
     <g fill="none" cy="32.4" r="1.908" cx="46.8" stroke-width="1.224" id="71" stroke="black" />
     <g fill="none" cy="39.6" r="1.908" cx="46.8" stroke-width="1.224" id="72" stroke="black" />
     <g fill="none" cy="46.8" r="1.908" cx="46.8" stroke-width="1.224" id="73" stroke="black" />
     <g fill="none" cy="54" r="1.908" cx="46.8" stroke-width="1.224" id="74" stroke="black" />
     <g fill="none" cy="61.2" r="1.908" cx="46.8" stroke-width="1.224" id="75" stroke="black" />
     <g fill="none" cy="68.4" r="1.908" cx="46.8" stroke-width="1.224" id="76" stroke="black" />
     <g fill="none" cy="75.6" r="1.908" cx="46.8" stroke-width="1.224" id="77" stroke="black" />
     <g fill="none" cy="82.8" r="1.908" cx="46.8" stroke-width="1.224" id="78" stroke="black" />
     <g fill="none" cy="90" r="1.908" cx="46.8" stroke-width="1.224" id="79" stroke="black" />
     <g fill="none" cy="97.2" r="1.908" cx="46.8" stroke-width="1.224" id="80" stroke="black" />
     <g fill="none" cy="104.4" r="1.908" cx="46.8" stroke-width="1.224" id="81" stroke="black" />
     <g fill="none" cy="111.6" r="1.908" cx="46.8" stroke-width="1.224" id="82" stroke="black" />
    </g>
   </g>
  </g>
 </g>
 <g partID="100561">
  <g transform="translate(10.4659,225.39)">
   <g id="copper1" >
    <!-- <rect width="55" x="10" y="15.5" fill="none" height="55" stroke="rgb(255, 191, 0)" stroke-width="20" />  -->
    <g fill="none" cy="3.096" r="1.98" cx="2.7" stroke-width="1.44" id="83" stroke="black" />
    <g fill="none" cy="3.096" r="1.98" cx="31.5" stroke-width="1.44" id="84" stroke="black" />
   </g>
  </g>
 </g>
 <g partID="87831">
  <g transform="translate(11.1707,149.269)">
   <g id="copper1" >
    <!-- <rect width="55" x="10" y="15.5" fill="none" height="55" stroke="rgb(255, 191, 0)" stroke-width="20" />  -->
    <g fill="none" cy="3.096" r="1.98" cx="2.7" stroke-width="1.44" id="85" stroke="black" />
    <g fill="none" cy="3.096" r="1.98" cx="31.5" stroke-width="1.44" id="86" stroke="black" />
   </g>
  </g>
 </g>
 <g partID="75391">
  <g transform="translate(11.4035,125.328)">
   <g id="copper1" >
    <!-- <rect width="55" x="10" y="15.5" fill="none" height="55" stroke="rgb(255, 191, 0)" stroke-width="20" />  -->
    <g fill="none" cy="3.096" r="1.98" cx="2.7" stroke-width="1.44" id="87" stroke="black" />
    <g fill="none" cy="3.096" r="1.98" cx="31.5" stroke-width="1.44" id="88" stroke="black" />
   </g>
  </g>
 </g>
 <g partID="75781">
  <g transform="translate(10.9211,193.091)">
   <g id="copper1" >
    <!-- <rect width="55" x="10" y="15.5" fill="none" height="55" stroke="rgb(255, 191, 0)" stroke-width="20" />  -->
    <g fill="none" cy="3.096" r="1.98" cx="2.7" stroke-width="1.44" id="89" stroke="black" />
    <g fill="none" cy="3.096" r="1.98" cx="31.5" stroke-width="1.44" id="90" stroke="black" />
   </g>
  </g>
 </g>
 <g partID="259011">
  <g transform="translate(360.185,190.592)">
   <g id="copper1" >
    <!-- <rect width="55" x="10" y="15.5" fill="none" height="55" stroke="rgb(255, 191, 0)" stroke-width="20" />  -->
    <g fill="none" cy="3.096" r="1.98" cx="2.7" stroke-width="1.44" id="91" stroke="black" />
    <g fill="none" cy="3.096" r="1.98" cx="31.5" stroke-width="1.44" id="92" stroke="black" />
   </g>
  </g>
 </g>
 <g partID="258991">
  <g transform="translate(360.536,235.305)">
   <g id="copper1" >
    <!-- <rect width="55" x="10" y="15.5" fill="none" height="55" stroke="rgb(255, 191, 0)" stroke-width="20" />  -->
    <g fill="none" cy="3.096" r="1.98" cx="2.7" stroke-width="1.44" id="93" stroke="black" />
    <g fill="none" cy="3.096" r="1.98" cx="31.5" stroke-width="1.44" id="94" stroke="black" />
   </g>
  </g>
 </g>
 <g partID="258821">
  <g transform="translate(360.024,140.385)">
   <g id="copper1" >
    <!-- <rect width="55" x="10" y="15.5" fill="none" height="55" stroke="rgb(255, 191, 0)" stroke-width="20" />  -->
    <g fill="none" cy="3.096" r="1.98" cx="2.7" stroke-width="1.44" id="95" stroke="black" />
    <g fill="none" cy="3.096" r="1.98" cx="31.5" stroke-width="1.44" id="96" stroke="black" />
   </g>
  </g>
 </g>
 <g partID="78531">
  <g transform="translate(79.0611,266.064)">
   <g id="copper1" >
    <!-- <rect width="55" x="10" y="15.5" fill="none" height="55" stroke="rgb(255, 191, 0)" stroke-width="20" />  -->
    <g fill="none" cy="3.096" r="1.98" cx="2.7" stroke-width="1.44" id="97" stroke="black" />
    <g fill="none" cy="3.096" r="1.98" cx="31.5" stroke-width="1.44" id="98" stroke="black" />
   </g>
  </g>
 </g>
 <g partID="247601">
  <g transform="translate(431.336,205.895)">
   <g transform="matrix(0,1,-1,0,0,0)">
    <g id="copper1" >
     <g connectorname="1" fill="none" cy="9.06746" r="2.052" cx="6.45336" stroke-width="1.224" id="99" stroke="black" />
     <g connectorname="2" fill="none" cy="16.7715" r="2.052" cx="6.45336" stroke-width="1.224" id="100" stroke="black" />
     <g connectorname="3" fill="none" cy="24.4755" r="2.052" cx="6.45336" stroke-width="1.224" id="101" stroke="black" />
     <g id="copper0" >
      <g connectorname="1" fill="none" cy="9.06746" r="2.052" cx="6.45336" stroke-width="1.224" id="102" stroke="black" />
      <g connectorname="2" fill="none" cy="16.7715" r="2.052" cx="6.45336" stroke-width="1.224" id="103" stroke="black" />
      <g connectorname="3" fill="none" cy="24.4755" r="2.052" cx="6.45336" stroke-width="1.224" id="104" stroke="black" />
     </g>
    </g>
   </g>
  </g>
 </g>
 <g partID="247581">
  <g transform="translate(428.298,161.005)">
   <g transform="matrix(0,1,-1,0,0,0)">
    <g id="copper1" >
     <g connectorname="1" fill="none" cy="9.06746" r="2.052" cx="6.45336" stroke-width="1.224" id="105" stroke="black" />
     <g connectorname="2" fill="none" cy="16.7715" r="2.052" cx="6.45336" stroke-width="1.224" id="106" stroke="black" />
     <g connectorname="3" fill="none" cy="24.4755" r="2.052" cx="6.45336" stroke-width="1.224" id="107" stroke="black" />
     <g id="copper0" >
      <g connectorname="1" fill="none" cy="9.06746" r="2.052" cx="6.45336" stroke-width="1.224" id="108" stroke="black" />
      <g connectorname="2" fill="none" cy="16.7715" r="2.052" cx="6.45336" stroke-width="1.224" id="109" stroke="black" />
      <g connectorname="3" fill="none" cy="24.4755" r="2.052" cx="6.45336" stroke-width="1.224" id="110" stroke="black" />
     </g>
    </g>
   </g>
  </g>
 </g>
 <g partID="75131">
  <g transform="translate(81.4699,220.942)">
   <g id="copper1" >
    <g connectorname="1" fill="none" cy="9.06746" r="2.052" cx="6.45336" stroke-width="1.224" id="111" stroke="black" />
    <g connectorname="2" fill="none" cy="16.7715" r="2.052" cx="6.45336" stroke-width="1.224" id="112" stroke="black" />
    <g connectorname="3" fill="none" cy="24.4755" r="2.052" cx="6.45336" stroke-width="1.224" id="113" stroke="black" />
    <g id="copper0" >
     <g connectorname="1" fill="none" cy="9.06746" r="2.052" cx="6.45336" stroke-width="1.224" id="114" stroke="black" />
     <g connectorname="2" fill="none" cy="16.7715" r="2.052" cx="6.45336" stroke-width="1.224" id="115" stroke="black" />
     <g connectorname="3" fill="none" cy="24.4755" r="2.052" cx="6.45336" stroke-width="1.224" id="116" stroke="black" />
    </g>
   </g>
  </g>
 </g>
 <g partID="75271">
  <g transform="translate(82.3043,172.276)">
   <g id="copper1" >
    <g connectorname="1" fill="none" cy="9.57146" r="2.052" cx="6.45336" stroke-width="1.224" id="117" stroke="black" />
    <g connectorname="2" fill="none" cy="16.7715" r="2.052" cx="6.45336" stroke-width="1.224" id="118" stroke="black" />
    <g connectorname="3" fill="none" cy="23.9715" r="2.052" cx="6.45336" stroke-width="1.224" id="119" stroke="black" />
    <g id="copper0" >
     <g connectorname="1" fill="none" cy="9.57146" r="2.052" cx="6.45336" stroke-width="1.224" id="120" stroke="black" />
     <g connectorname="2" fill="none" cy="16.7715" r="2.052" cx="6.45336" stroke-width="1.224" id="121" stroke="black" />
     <g connectorname="3" fill="none" cy="23.9715" r="2.052" cx="6.45336" stroke-width="1.224" id="122" stroke="black" />
    </g>
   </g>
  </g>
 </g>
 <g partID="76741">
  <g transform="translate(132.07,213.945)">
   <g id="copper1" >
    <g id="copper0" >
     <g fill="none" height="4.176" width="4.176" stroke-width="1.44" id="123" stroke="black"  x="2.952" y="2.952"/>
     <g fill="none" cy="5.04" r="2.088" cx="5.04" stroke-width="1.44" id="124" stroke="black" />
     <g fill="none" cy="12.24" r="2.088" cx="5.04" stroke-width="1.44" id="125" stroke="black" />
     <g fill="none" cy="19.44" r="2.088" cx="5.04" stroke-width="1.44" id="126" stroke="black" />
    </g>
   </g>
  </g>
 </g>
 <g partID="79211">
  <g transform="translate(42.2916,99.695)">
   <g transform="matrix(0,-1,1,0,0,0)">
    <g id="copper1">
     <g transform="matrix(1, 0, 0, 1, -2.74415, 0.362573)">
      <g id="copper0">
       <g transform="matrix(1, 0, 0, 1, 18.3175, 7.26522)">
        <g id="control">
         <g fill="none" gorn="0.2.0.0" r="2.088" cy="10.8026" cx="2.808" stroke-width="1.44" id="127" stroke="black"/>
         <g fill="none" gorn="0.2.0.1" r="2.088" cy="18.0026" cx="2.808" stroke-width="1.44" id="128" stroke="black"/>
         <g fill="none" gorn="0.2.0.2" r="2.088" cy="25.2026" cx="2.808" stroke-width="1.44" id="129" stroke="black"/>
         <g fill="none" gorn="0.2.0.3" r="2.088" cy="32.4026" cx="2.808" stroke-width="1.44" id="130" stroke="black"/>
        </g>
       </g>
       <g transform="matrix(1, 0, 0, 1, 7.49903, 35.9911)">
        <g id="power">
         <g transform="rotate(-90)">
          <g fill="none" gorn="0.2.0.4" r="2.088" cy="24.408" cx="-39.6026" stroke-width="1.44" id="131" stroke="black"/>
         </g>
         <g transform="rotate(-90)">
          <g fill="none" gorn="0.2.0.5" r="2.088" cy="31.608" cx="-39.6026" stroke-width="1.44" id="132" stroke="black"/>
         </g>
         <g transform="rotate(-90)">
          <g fill="none" gorn="0.2.0.6" r="2.088" cy="38.808" cx="-39.6026" stroke-width="1.44" id="133" stroke="black"/>
         </g>
         <g transform="rotate(-90)">
          <g fill="none" gorn="0.2.0.7" r="2.088" cy="46.008" cx="-39.6026" stroke-width="1.44" id="134" stroke="black"/>
         </g>
        </g>
       </g>
       <g transform="matrix(1, 0, 0, 1, 3.94497, 6.85673)">
        <g id="motor">
         <g fill="none" gorn="0.2.0.8" r="2.088" cy="7.42934" cx="63.9587" stroke-width="1.44" id="135" stroke="black"/>
         <g fill="none" gorn="0.2.0.9" r="2.088" cy="14.516" cx="63.9587" stroke-width="1.44" id="136" stroke="black"/>
         <g fill="none" gorn="0.2.0.10" r="2.088" cy="21.6026" cx="64.008" stroke-width="1.44" id="137" stroke="black"/>
         <g fill="none" gorn="0.2.0.11" r="2.088" cy="28.6892" cx="63.9587" stroke-width="1.44" id="138" stroke="black"/>
         <g fill="none" gorn="0.2.0.12" r="2.088" cy="35.7758" cx="63.9587" stroke-width="1.44" id="139" stroke="black"/>
        </g>
       </g>
      </g>
     </g>
    </g>
   </g>
  </g>
 </g>
 <g partID="83901">
  <g transform="translate(186.942,230.303)">
   <g gorn="0.4" id="copper1" >
    <g gorn="0.4.0" id="copper0" >
     <g fill="none" gorn="0.4.0.0" width="4.176" height="4.176" stroke-width="1.44" id="140" stroke="black"  x="82.3725" y="10.7252"/>
     <g fill="none" gorn="0.4.0.1" r="2.088" cy="12.8132" cx="84.4605" stroke-width="1.44" id="141" stroke="black" />
     <g fill="none" gorn="0.4.0.2" r="2.088" cy="20.0132" cx="84.4605" stroke-width="1.44" id="142" stroke="black" />
     <g fill="none" gorn="0.4.0.3" r="2.088" cy="27.2132" cx="84.4605" stroke-width="1.44" id="143" stroke="black" />
    </g>
   </g>
  </g>
 </g>
 <g partID="84161">
  <g transform="translate(281.041,72.0014)">
   <g gorn="0.2" id="copper1" >
    <g gorn="0.2.0" id="copper0" >
     <g fill="none" gorn="0.2.0.0" cy="83.4359" r="2.063" cx="9.228" stroke-width="1" id="144" stroke-miterlimit="10" stroke="black" />
     <g fill="none" gorn="0.2.0.1" cy="83.4359" r="2.063" cx="16.427" stroke-width="1" id="145" stroke-miterlimit="10" stroke="black" />
     <g fill="none" gorn="0.2.0.2" cy="83.4359" r="2.063" cx="23.627" stroke-width="1" id="146" stroke-miterlimit="10" stroke="black" />
     <g fill="none" gorn="0.2.0.3" cy="83.4359" r="2.063" cx="30.827" stroke-width="1" id="147" stroke-miterlimit="10" stroke="black" />
    </g>
    <g gorn="0.2.1" id="copper0_2_" >
     <g gorn="0.2.1.0" id="copper0_1_" >
      <g fill="none" gorn="0.2.1.0.0" cy="5.186" r="2.063" cx="15.926" stroke-width="1" id="148" stroke-miterlimit="10" stroke="black" />
      <g fill="none" gorn="0.2.1.0.1" cy="5.186" r="2.063" cx="23.125" stroke-width="1" id="149" stroke-miterlimit="10" stroke="black" />
     </g>
    </g>
   </g>
  </g>
 </g>
 <g partID="84191">
  <g transform="translate(368.741,117.705)">
   <g transform="matrix(0,-1,1,0,0,0)">
    <g gorn="0.3" id="copper1" >
     <g gorn="0.3.0" id="copper0" >
      <g fill="none" gorn="0.3.0.0" cy="7.82201" r="1.93501" cx="53.3432" stroke-width="1" id="150" stroke-miterlimit="10" stroke="black" />
      <g fill="none" gorn="0.3.0.1" cy="7.82201" r="1.93501" cx="60.5442" stroke-width="1" id="151" stroke-miterlimit="10" stroke="black" />
     </g>
    </g>
   </g>
  </g>
 </g>
 <g partID="91831">
  <g transform="translate(296.292,249.336)">
   <g id="copper1" >
    <g connectorname="PWR" fill="none" cy="2.83465" r="2.12598" cx="5.66929" stroke-width="1.41732" id="152" stroke="black" />
    <g fill="black" stroke-width="0" id="153" stroke="none"  d="m8.50393,0a2.83464,2.83465,0,0,1,2.83464,2.83465l0,0a2.83464,2.83465,0,0,1,-2.83464,2.83465l-5.66929,0a2.83464,2.83465,0,0,1,-2.83464,-2.83465l0,0a2.83464,2.83465,0,0,1,2.83464,-2.83465l5.66929,0zM4.25197,2.83465a1.41732,1.41732,0,1,0,2.83464,0,1.41732,1.41732,0,1,0,-2.83464,0z"/>
    <g connectorname="GND@1" fill="none" cy="20.6929" r="2.12598" cx="5.66929" stroke-width="1.41732" id="154" stroke="black" />
    <g fill="black" stroke-width="0" id="155" stroke="none"  d="m8.50393,17.8583a2.83464,2.83465,0,0,1,2.83464,2.83465l0,0a2.83464,2.83465,0,0,1,-2.83464,2.83465l-5.66929,0a2.83464,2.83465,0,0,1,-2.83464,-2.83465l0,0a2.83464,2.83465,0,0,1,2.83464,-2.83465l5.66929,0zM4.25197,20.6929a1.41732,1.41732,0,1,0,2.83464,0,1.41732,1.41732,0,1,0,-2.83464,0z"/>
    <g connectorname="GND@2" fill="none" cy="11.3386" r="2.12598" cx="19.8425" stroke-width="1.41732" id="156" stroke="black" />
    <g fill="black" stroke-width="0" id="157" stroke="none"  d="m19.8425,5.66929a2.83464,2.83465,0,0,1,2.83464,2.83465l0,5.66929a2.83464,2.83465,0,0,1,-2.83464,2.83465l0,0a2.83464,2.83465,0,0,1,-2.83464,-2.83465l0,-5.66929a2.83464,2.83465,0,0,1,2.83464,-2.83465l0,0zM18.4252,11.3386a1.41732,1.41732,0,1,0,2.83464,0,1.41732,1.41732,0,1,0,-2.83464,0z"/>
    <g id="copper0" >
     <g connectorname="PWR" fill="none" cy="2.83465" r="2.12598" cx="5.66929" stroke-width="1.41732" id="158" stroke="black" />
     <g fill="black" stroke-width="0" id="159" stroke="none"  d="m8.50393,0a2.83464,2.83465,0,0,1,2.83464,2.83465l0,0a2.83464,2.83465,0,0,1,-2.83464,2.83465l-5.66929,0a2.83464,2.83465,0,0,1,-2.83464,-2.83465l0,0a2.83464,2.83465,0,0,1,2.83464,-2.83465l5.66929,0zM4.25197,2.83465a1.41732,1.41732,0,1,0,2.83464,0,1.41732,1.41732,0,1,0,-2.83464,0z"/>
     <g connectorname="GND@1" fill="none" cy="20.6929" r="2.12598" cx="5.66929" stroke-width="1.41732" id="160" stroke="black" />
     <g fill="black" stroke-width="0" id="161" stroke="none"  d="m8.50393,17.8583a2.83464,2.83465,0,0,1,2.83464,2.83465l0,0a2.83464,2.83465,0,0,1,-2.83464,2.83465l-5.66929,0a2.83464,2.83465,0,0,1,-2.83464,-2.83465l0,0a2.83464,2.83465,0,0,1,2.83464,-2.83465l5.66929,0zM4.25197,20.6929a1.41732,1.41732,0,1,0,2.83464,0,1.41732,1.41732,0,1,0,-2.83464,0z"/>
     <g connectorname="GND@2" fill="none" cy="11.3386" r="2.12598" cx="19.8425" stroke-width="1.41732" id="162" stroke="black" />
     <g fill="black" stroke-width="0" id="163" stroke="none"  d="m19.8425,5.66929a2.83464,2.83465,0,0,1,2.83464,2.83465l0,5.66929a2.83464,2.83465,0,0,1,-2.83464,2.83465l0,0a2.83464,2.83465,0,0,1,-2.83464,-2.83465l0,-5.66929a2.83464,2.83465,0,0,1,2.83464,-2.83465l0,0zM18.4252,11.3386a1.41732,1.41732,0,1,0,2.83464,0,1.41732,1.41732,0,1,0,-2.83464,0z"/>
    </g>
   </g>
  </g>
 </g>
</svg>
