<?xml version='1.0' encoding='UTF-8' standalone='no'?>
<!-- Created with Fritzing (http://www.fritzing.org/) -->
<svg xmlns="http://www.w3.org/2000/svg" baseProfile="tiny" xmlns:svg="http://www.w3.org/2000/svg" width="7.87402in" height="3.93701in" viewBox="0 0 566.929 283.465" version="1.2"  x="0in" y="0in">
 <g partID="57660">
  <g transform="translate(566.929,283.465)">
   <g transform="matrix(-1,0,0,-1,0,0)">
    <g id="board" >
     <rect fill="none" width="566.354" height="282.889" stroke-width="0.5" id="boardoutline" fill-opacity="0.5" stroke="black"  x="0.288" y="0.288"/>
    </g>
   </g>
  </g>
 </g>
 <g partID="365120">
  <g transform="translate(151.349,255.775)">
   <g transform="matrix(0,-1,1,0,0,0)">
    <g id="copper0" >
     <g id="copper1" >
      <circle fill="none" cy="10.6336" r="1.7008" cx="8.7872" stroke-width="1.13384" id="connector1pad" stroke="black" />
      <rect fill="none" width="3.4016" height="3.4016" stroke-width="1.13384" stroke="black"  x="7.0864" y="8.9328"/>
      <circle fill="none" cy="3.5464" r="1.7008" cx="8.7872" stroke-width="1.13384" id="connector0pad" stroke="black" />
     </g>
    </g>
   </g>
  </g>
 </g>
 <g partID="213900">
  <g transform="translate(308.916,194.226)">
   <g transform="matrix(1, 0, 0, 1, 0.54, -104.076)">
    <g id="copper0">
     <g gorn="0.3.0.0.0">
      <g gorn="0.3.0.0.0.0" id="copper1">
       <circle style="fill-rule:evenodd;stroke-linecap:butt;stroke-linejoin:miter;stroke-miterlimit:4;stroke-dasharray:none;" fill="none" gorn="0.3.0.0.0.0.0" r="3.8016" cy="124.709" cx="17.3016" stroke-width="2.88" id="connector0pin" fill-opacity="1" stroke="black" stroke-opacity="1"/>
       <circle style="fill-rule:evenodd;stroke-linecap:butt;stroke-linejoin:miter;stroke-miterlimit:4;stroke-dasharray:none;" fill="none" gorn="0.3.0.0.0.0.1" r="3.8016" cy="109.584" cx="17.3016" stroke-width="2.88" id="connector1pin" fill-opacity="1" stroke="black" stroke-opacity="1"/>
      </g>
     </g>
    </g>
   </g>
  </g>
 </g>
 <g partID="246850">
  <g transform="translate(562.834,185.833)">
   <g transform="matrix(0,1,-1,0,0,0)">
    <g flipped="1" id="copper0">
     <g transform="matrix(-1, 0, 0, 1, 10.08, 0)">
      <g>
       <g>
        <g>
         <g id="copper0">
          <rect fill="none" height="4.176" width="4.176" stroke-width="1.44" id="square" stroke="black" x="2.952" y="2.952"/>
          <circle fill="none" cy="5.04" r="2.088" cx="5.04" stroke-width="1.44" id="connector0pin" stroke="black"/>
          <circle fill="none" cy="12.24" r="2.088" cx="5.04" stroke-width="1.44" id="connector1pin" stroke="black"/>
          <circle fill="none" cy="19.44" r="2.088" cx="5.04" stroke-width="1.44" id="connector2pin" stroke="black"/>
         </g>
        </g>
        <g>
         <rect fill="none" height="4.176" width="4.176" stroke-width="1.44" id="square" stroke="black" x="2.952" y="2.952"/>
         <circle fill="none" cy="5.04" r="2.088" cx="5.04" stroke-width="1.44" id="connector0pin" stroke="black"/>
         <circle fill="none" cy="12.24" r="2.088" cx="5.04" stroke-width="1.44" id="connector1pin" stroke="black"/>
         <circle fill="none" cy="19.44" r="2.088" cx="5.04" stroke-width="1.44" id="connector2pin" stroke="black"/>
        </g>
       </g>
      </g>
     </g>
    </g>
   </g>
  </g>
 </g>
 <g partID="186240">
  <g transform="translate(70.5235,149.008)">
   <g id="copper0" >
    <rect fill="none" height="5.184" width="5.184" stroke-width="1.44" id="rect20" stroke="black"  x="0.72" y="0.72"/>
    <circle fill="none" cy="3.312" r="2.592" cx="3.312" stroke-width="1.44" id="connector0pin" stroke="black" />
    <circle fill="none" cy="3.312" r="2.592" cx="24.912" stroke-width="1.44" id="connector1pin" stroke="black" />
   </g>
  </g>
 </g>
 <g partID="184470">
  <g transform="translate(70.3075,125.71)">
   <g id="copper0" >
    <rect fill="none" height="5.184" width="5.184" stroke-width="1.44" id="rect20" stroke="black"  x="0.72" y="0.72"/>
    <circle fill="none" cy="3.312" r="2.592" cx="3.312" stroke-width="1.44" id="connector0pin" stroke="black" />
    <circle fill="none" cy="3.312" r="2.592" cx="24.912" stroke-width="1.44" id="connector1pin" stroke="black" />
   </g>
  </g>
 </g>
 <g partID="240650">
  <g transform="translate(469.357,135.953)">
   <g id="copper0" >
    <circle fill="none" cy="10.8" r="1.908" cx="3.6" stroke-width="1.224" id="connector16pad" stroke="black" />
    <rect fill="none" width="3.814" height="3.816" stroke-width="1.224" stroke="black"  x="1.692" y="8.892"/>
    <circle fill="none" cy="18" r="1.908" cx="3.6" stroke-width="1.224" id="connector17pad" stroke="black" />
    <circle fill="none" cy="25.2" r="1.908" cx="3.6" stroke-width="1.224" id="connector18pad" stroke="black" />
    <circle fill="none" cy="32.4" r="1.908" cx="3.6" stroke-width="1.224" id="connector19pad" stroke="black" />
    <circle fill="none" cy="39.6" r="1.908" cx="3.6" stroke-width="1.224" id="connector20pad" stroke="black" />
    <circle fill="none" cy="46.8" r="1.908" cx="3.6" stroke-width="1.224" id="connector21pad" stroke="black" />
    <circle fill="none" cy="54" r="1.908" cx="3.6" stroke-width="1.224" id="connector22pad" stroke="black" />
    <circle fill="none" cy="61.2" r="1.908" cx="3.6" stroke-width="1.224" id="connector23pad" stroke="black" />
    <circle fill="none" cy="68.4" r="1.908" cx="3.6" stroke-width="1.224" id="connector24pad" stroke="black" />
    <circle fill="none" cy="75.6" r="1.908" cx="3.6" stroke-width="1.224" id="connector25pad" stroke="black" />
    <circle fill="none" cy="82.8" r="1.908" cx="3.6" stroke-width="1.224" id="connector26pad" stroke="black" />
    <circle fill="none" cy="90" r="1.908" cx="3.6" stroke-width="1.224" id="connector27pad" stroke="black" />
    <circle fill="none" cy="97.2" r="1.908" cx="3.6" stroke-width="1.224" id="connector28pad" stroke="black" />
    <circle fill="none" cy="104.4" r="1.908" cx="3.6" stroke-width="1.224" id="connector29pad" stroke="black" />
    <circle fill="none" cy="111.6" r="1.908" cx="3.6" stroke-width="1.224" id="connector30pad" stroke="black" />
    <circle fill="none" cy="10.8" r="1.908" cx="46.8" stroke-width="1.224" id="connector31pad" stroke="black" />
    <circle fill="none" cy="18" r="1.908" cx="46.8" stroke-width="1.224" id="connector32pad" stroke="black" />
    <circle fill="none" cy="25.2" r="1.908" cx="46.8" stroke-width="1.224" id="connector33pad" stroke="black" />
    <circle fill="none" cy="32.4" r="1.908" cx="46.8" stroke-width="1.224" id="connector34pad" stroke="black" />
    <circle fill="none" cy="39.6" r="1.908" cx="46.8" stroke-width="1.224" id="connector35pad" stroke="black" />
    <circle fill="none" cy="46.8" r="1.908" cx="46.8" stroke-width="1.224" id="connector36pad" stroke="black" />
    <circle fill="none" cy="54" r="1.908" cx="46.8" stroke-width="1.224" id="connector37pad" stroke="black" />
    <circle fill="none" cy="61.2" r="1.908" cx="46.8" stroke-width="1.224" id="connector38pad" stroke="black" />
    <circle fill="none" cy="68.4" r="1.908" cx="46.8" stroke-width="1.224" id="connector39pad" stroke="black" />
    <circle fill="none" cy="75.6" r="1.908" cx="46.8" stroke-width="1.224" id="connector40pad" stroke="black" />
    <circle fill="none" cy="82.8" r="1.908" cx="46.8" stroke-width="1.224" id="connector41pad" stroke="black" />
    <circle fill="none" cy="90" r="1.908" cx="46.8" stroke-width="1.224" id="connector42pad" stroke="black" />
    <circle fill="none" cy="97.2" r="1.908" cx="46.8" stroke-width="1.224" id="connector43pad" stroke="black" />
    <circle fill="none" cy="104.4" r="1.908" cx="46.8" stroke-width="1.224" id="connector44pad" stroke="black" />
    <circle fill="none" cy="111.6" r="1.908" cx="46.8" stroke-width="1.224" id="connector45pad" stroke="black" />
   </g>
  </g>
 </g>
 <g partID="68100">
  <g transform="translate(179.388,74.9966)">
   <g id="copper0" >
    <circle fill="none" cy="10.8" r="1.908" cx="3.6" stroke-width="1.224" id="connector16pad" stroke="black" />
    <rect fill="none" width="3.814" height="3.816" stroke-width="1.224" stroke="black"  x="1.692" y="8.892"/>
    <circle fill="none" cy="18" r="1.908" cx="3.6" stroke-width="1.224" id="connector17pad" stroke="black" />
    <circle fill="none" cy="25.2" r="1.908" cx="3.6" stroke-width="1.224" id="connector18pad" stroke="black" />
    <circle fill="none" cy="32.4" r="1.908" cx="3.6" stroke-width="1.224" id="connector19pad" stroke="black" />
    <circle fill="none" cy="39.6" r="1.908" cx="3.6" stroke-width="1.224" id="connector20pad" stroke="black" />
    <circle fill="none" cy="46.8" r="1.908" cx="3.6" stroke-width="1.224" id="connector21pad" stroke="black" />
    <circle fill="none" cy="54" r="1.908" cx="3.6" stroke-width="1.224" id="connector22pad" stroke="black" />
    <circle fill="none" cy="61.2" r="1.908" cx="3.6" stroke-width="1.224" id="connector23pad" stroke="black" />
    <circle fill="none" cy="68.4" r="1.908" cx="3.6" stroke-width="1.224" id="connector24pad" stroke="black" />
    <circle fill="none" cy="75.6" r="1.908" cx="3.6" stroke-width="1.224" id="connector25pad" stroke="black" />
    <circle fill="none" cy="82.8" r="1.908" cx="3.6" stroke-width="1.224" id="connector26pad" stroke="black" />
    <circle fill="none" cy="90" r="1.908" cx="3.6" stroke-width="1.224" id="connector27pad" stroke="black" />
    <circle fill="none" cy="97.2" r="1.908" cx="3.6" stroke-width="1.224" id="connector28pad" stroke="black" />
    <circle fill="none" cy="104.4" r="1.908" cx="3.6" stroke-width="1.224" id="connector29pad" stroke="black" />
    <circle fill="none" cy="111.6" r="1.908" cx="3.6" stroke-width="1.224" id="connector30pad" stroke="black" />
    <circle fill="none" cy="10.8" r="1.908" cx="46.8" stroke-width="1.224" id="connector31pad" stroke="black" />
    <circle fill="none" cy="18" r="1.908" cx="46.8" stroke-width="1.224" id="connector32pad" stroke="black" />
    <circle fill="none" cy="25.2" r="1.908" cx="46.8" stroke-width="1.224" id="connector33pad" stroke="black" />
    <circle fill="none" cy="32.4" r="1.908" cx="46.8" stroke-width="1.224" id="connector34pad" stroke="black" />
    <circle fill="none" cy="39.6" r="1.908" cx="46.8" stroke-width="1.224" id="connector35pad" stroke="black" />
    <circle fill="none" cy="46.8" r="1.908" cx="46.8" stroke-width="1.224" id="connector36pad" stroke="black" />
    <circle fill="none" cy="54" r="1.908" cx="46.8" stroke-width="1.224" id="connector37pad" stroke="black" />
    <circle fill="none" cy="61.2" r="1.908" cx="46.8" stroke-width="1.224" id="connector38pad" stroke="black" />
    <circle fill="none" cy="68.4" r="1.908" cx="46.8" stroke-width="1.224" id="connector39pad" stroke="black" />
    <circle fill="none" cy="75.6" r="1.908" cx="46.8" stroke-width="1.224" id="connector40pad" stroke="black" />
    <circle fill="none" cy="82.8" r="1.908" cx="46.8" stroke-width="1.224" id="connector41pad" stroke="black" />
    <circle fill="none" cy="90" r="1.908" cx="46.8" stroke-width="1.224" id="connector42pad" stroke="black" />
    <circle fill="none" cy="97.2" r="1.908" cx="46.8" stroke-width="1.224" id="connector43pad" stroke="black" />
    <circle fill="none" cy="104.4" r="1.908" cx="46.8" stroke-width="1.224" id="connector44pad" stroke="black" />
    <circle fill="none" cy="111.6" r="1.908" cx="46.8" stroke-width="1.224" id="connector45pad" stroke="black" />
   </g>
  </g>
 </g>
 <g partID="100560">
  <g transform="translate(10.4659,225.39)">
   <g id="copper0" >
    <g id="copper1" >
     <!-- <rect width="55" x="10" y="15.5" fill="none" height="55" stroke="rgb(255, 191, 0)" stroke-width="20" />  -->
     <circle fill="none" cy="3.096" r="1.98" cx="2.7" stroke-width="1.44" id="connector0pin" stroke="black" />
     <circle fill="none" cy="3.096" r="1.98" cx="31.5" stroke-width="1.44" id="connector1pin" stroke="black" />
    </g>
   </g>
  </g>
 </g>
 <g partID="87830">
  <g transform="translate(11.1707,149.269)">
   <g id="copper0" >
    <g id="copper1" >
     <!-- <rect width="55" x="10" y="15.5" fill="none" height="55" stroke="rgb(255, 191, 0)" stroke-width="20" />  -->
     <circle fill="none" cy="3.096" r="1.98" cx="2.7" stroke-width="1.44" id="connector0pin" stroke="black" />
     <circle fill="none" cy="3.096" r="1.98" cx="31.5" stroke-width="1.44" id="connector1pin" stroke="black" />
    </g>
   </g>
  </g>
 </g>
 <g partID="75390">
  <g transform="translate(11.4035,125.328)">
   <g id="copper0" >
    <g id="copper1" >
     <!-- <rect width="55" x="10" y="15.5" fill="none" height="55" stroke="rgb(255, 191, 0)" stroke-width="20" />  -->
     <circle fill="none" cy="3.096" r="1.98" cx="2.7" stroke-width="1.44" id="connector0pin" stroke="black" />
     <circle fill="none" cy="3.096" r="1.98" cx="31.5" stroke-width="1.44" id="connector1pin" stroke="black" />
    </g>
   </g>
  </g>
 </g>
 <g partID="75780">
  <g transform="translate(10.9211,193.091)">
   <g id="copper0" >
    <g id="copper1" >
     <!-- <rect width="55" x="10" y="15.5" fill="none" height="55" stroke="rgb(255, 191, 0)" stroke-width="20" />  -->
     <circle fill="none" cy="3.096" r="1.98" cx="2.7" stroke-width="1.44" id="connector0pin" stroke="black" />
     <circle fill="none" cy="3.096" r="1.98" cx="31.5" stroke-width="1.44" id="connector1pin" stroke="black" />
    </g>
   </g>
  </g>
 </g>
 <g partID="259010">
  <g transform="translate(360.185,190.592)">
   <g id="copper0" >
    <g id="copper1" >
     <!-- <rect width="55" x="10" y="15.5" fill="none" height="55" stroke="rgb(255, 191, 0)" stroke-width="20" />  -->
     <circle fill="none" cy="3.096" r="1.98" cx="2.7" stroke-width="1.44" id="connector0pin" stroke="black" />
     <circle fill="none" cy="3.096" r="1.98" cx="31.5" stroke-width="1.44" id="connector1pin" stroke="black" />
    </g>
   </g>
  </g>
 </g>
 <g partID="258990">
  <g transform="translate(360.536,235.305)">
   <g id="copper0" >
    <g id="copper1" >
     <!-- <rect width="55" x="10" y="15.5" fill="none" height="55" stroke="rgb(255, 191, 0)" stroke-width="20" />  -->
     <circle fill="none" cy="3.096" r="1.98" cx="2.7" stroke-width="1.44" id="connector0pin" stroke="black" />
     <circle fill="none" cy="3.096" r="1.98" cx="31.5" stroke-width="1.44" id="connector1pin" stroke="black" />
    </g>
   </g>
  </g>
 </g>
 <g partID="258820">
  <g transform="translate(360.024,140.385)">
   <g id="copper0" >
    <g id="copper1" >
     <!-- <rect width="55" x="10" y="15.5" fill="none" height="55" stroke="rgb(255, 191, 0)" stroke-width="20" />  -->
     <circle fill="none" cy="3.096" r="1.98" cx="2.7" stroke-width="1.44" id="connector0pin" stroke="black" />
     <circle fill="none" cy="3.096" r="1.98" cx="31.5" stroke-width="1.44" id="connector1pin" stroke="black" />
    </g>
   </g>
  </g>
 </g>
 <g partID="78530">
  <g transform="translate(79.0611,266.064)">
   <g id="copper0" >
    <g id="copper1" >
     <!-- <rect width="55" x="10" y="15.5" fill="none" height="55" stroke="rgb(255, 191, 0)" stroke-width="20" />  -->
     <circle fill="none" cy="3.096" r="1.98" cx="2.7" stroke-width="1.44" id="connector0pin" stroke="black" />
     <circle fill="none" cy="3.096" r="1.98" cx="31.5" stroke-width="1.44" id="connector1pin" stroke="black" />
    </g>
   </g>
  </g>
 </g>
 <g partID="247600">
  <g transform="translate(431.336,205.895)">
   <g transform="matrix(0,1,-1,0,0,0)">
    <g id="copper0" >
     <circle connectorname="1" fill="none" cy="9.06746" r="2.052" cx="6.45336" stroke-width="1.224" id="connector0pad" stroke="black" />
     <circle connectorname="2" fill="none" cy="16.7715" r="2.052" cx="6.45336" stroke-width="1.224" id="connector1pad" stroke="black" />
     <circle connectorname="3" fill="none" cy="24.4755" r="2.052" cx="6.45336" stroke-width="1.224" id="connector2pad" stroke="black" />
    </g>
   </g>
  </g>
 </g>
 <g partID="247580">
  <g transform="translate(428.298,161.005)">
   <g transform="matrix(0,1,-1,0,0,0)">
    <g id="copper0" >
     <circle connectorname="1" fill="none" cy="9.06746" r="2.052" cx="6.45336" stroke-width="1.224" id="connector0pad" stroke="black" />
     <circle connectorname="2" fill="none" cy="16.7715" r="2.052" cx="6.45336" stroke-width="1.224" id="connector1pad" stroke="black" />
     <circle connectorname="3" fill="none" cy="24.4755" r="2.052" cx="6.45336" stroke-width="1.224" id="connector2pad" stroke="black" />
    </g>
   </g>
  </g>
 </g>
 <g partID="75130">
  <g transform="translate(81.4699,220.942)">
   <g id="copper0" >
    <circle connectorname="1" fill="none" cy="9.06746" r="2.052" cx="6.45336" stroke-width="1.224" id="connector0pad" stroke="black" />
    <circle connectorname="2" fill="none" cy="16.7715" r="2.052" cx="6.45336" stroke-width="1.224" id="connector1pad" stroke="black" />
    <circle connectorname="3" fill="none" cy="24.4755" r="2.052" cx="6.45336" stroke-width="1.224" id="connector2pad" stroke="black" />
   </g>
  </g>
 </g>
 <g partID="75270">
  <g transform="translate(82.3043,172.276)">
   <g id="copper0" >
    <circle connectorname="1" fill="none" cy="9.57146" r="2.052" cx="6.45336" stroke-width="1.224" id="connector0pad" stroke="black" />
    <circle connectorname="2" fill="none" cy="16.7715" r="2.052" cx="6.45336" stroke-width="1.224" id="connector1pad" stroke="black" />
    <circle connectorname="3" fill="none" cy="23.9715" r="2.052" cx="6.45336" stroke-width="1.224" id="connector2pad" stroke="black" />
   </g>
  </g>
 </g>
 <g partID="76740">
  <g transform="translate(132.07,213.945)">
   <g id="copper0" >
    <rect fill="none" height="4.176" width="4.176" stroke-width="1.44" id="square" stroke="black"  x="2.952" y="2.952"/>
    <circle fill="none" cy="5.04" r="2.088" cx="5.04" stroke-width="1.44" id="connector0pin" stroke="black" />
    <circle fill="none" cy="12.24" r="2.088" cx="5.04" stroke-width="1.44" id="connector1pin" stroke="black" />
    <circle fill="none" cy="19.44" r="2.088" cx="5.04" stroke-width="1.44" id="connector2pin" stroke="black" />
   </g>
  </g>
 </g>
 <g partID="79210">
  <g transform="translate(42.2916,99.695)">
   <g transform="matrix(0,-1,1,0,0,0)">
    <g transform="matrix(1, 0, 0, 1, -2.74415, 0.362573)">
     <g id="copper0">
      <g transform="matrix(1, 0, 0, 1, 18.3175, 7.26522)">
       <g id="control">
        <circle fill="none" gorn="0.2.0.0" r="2.088" cy="10.8026" cx="2.808" stroke-width="1.44" id="connector0pin" stroke="black"/>
        <circle fill="none" gorn="0.2.0.1" r="2.088" cy="18.0026" cx="2.808" stroke-width="1.44" id="connector1pin" stroke="black"/>
        <circle fill="none" gorn="0.2.0.2" r="2.088" cy="25.2026" cx="2.808" stroke-width="1.44" id="connector2pin" stroke="black"/>
        <circle fill="none" gorn="0.2.0.3" r="2.088" cy="32.4026" cx="2.808" stroke-width="1.44" id="connector3pin" stroke="black"/>
       </g>
      </g>
      <g transform="matrix(1, 0, 0, 1, 7.49903, 35.9911)">
       <g id="power">
        <g transform="rotate(-90)">
         <circle fill="none" gorn="0.2.0.4" r="2.088" cy="24.408" cx="-39.6026" stroke-width="1.44" id="connector4pin" stroke="black"/>
        </g>
        <g transform="rotate(-90)">
         <circle fill="none" gorn="0.2.0.5" r="2.088" cy="31.608" cx="-39.6026" stroke-width="1.44" id="connector5pin" stroke="black"/>
        </g>
        <g transform="rotate(-90)">
         <circle fill="none" gorn="0.2.0.6" r="2.088" cy="38.808" cx="-39.6026" stroke-width="1.44" id="connector6pin" stroke="black"/>
        </g>
        <g transform="rotate(-90)">
         <circle fill="none" gorn="0.2.0.7" r="2.088" cy="46.008" cx="-39.6026" stroke-width="1.44" id="connector7pin" stroke="black"/>
        </g>
       </g>
      </g>
      <g transform="matrix(1, 0, 0, 1, 3.94497, 6.85673)">
       <g id="motor">
        <circle fill="none" gorn="0.2.0.8" r="2.088" cy="7.42934" cx="63.9587" stroke-width="1.44" id="connector8pin" stroke="black"/>
        <circle fill="none" gorn="0.2.0.9" r="2.088" cy="14.516" cx="63.9587" stroke-width="1.44" id="connector9pin" stroke="black"/>
        <circle fill="none" gorn="0.2.0.10" r="2.088" cy="21.6026" cx="64.008" stroke-width="1.44" id="connector10pin" stroke="black"/>
        <circle fill="none" gorn="0.2.0.11" r="2.088" cy="28.6892" cx="63.9587" stroke-width="1.44" id="connector11pin" stroke="black"/>
        <circle fill="none" gorn="0.2.0.12" r="2.088" cy="35.7758" cx="63.9587" stroke-width="1.44" id="connector12pin" stroke="black"/>
       </g>
      </g>
     </g>
    </g>
   </g>
  </g>
 </g>
 <g partID="83900">
  <g transform="translate(186.942,230.303)">
   <g gorn="0.4.0" id="copper0" >
    <rect fill="none" gorn="0.4.0.0" width="4.176" height="4.176" stroke-width="1.44" id="square" stroke="black"  x="82.3725" y="10.7252"/>
    <circle fill="none" gorn="0.4.0.1" r="2.088" cy="12.8132" cx="84.4605" stroke-width="1.44" id="connector0pin" stroke="black" />
    <circle fill="none" gorn="0.4.0.2" r="2.088" cy="20.0132" cx="84.4605" stroke-width="1.44" id="connector1pin" stroke="black" />
    <circle fill="none" gorn="0.4.0.3" r="2.088" cy="27.2132" cx="84.4605" stroke-width="1.44" id="connector2pin" stroke="black" />
   </g>
  </g>
 </g>
 <g partID="84160">
  <g transform="translate(281.041,72.0014)">
   <g gorn="0.2.0" id="copper0" >
    <circle fill="none" gorn="0.2.0.0" cy="83.4359" r="2.063" cx="9.228" stroke-width="1" id="connector11pad" stroke-miterlimit="10" stroke="black" />
    <circle fill="none" gorn="0.2.0.1" cy="83.4359" r="2.063" cx="16.427" stroke-width="1" id="connector10pad" stroke-miterlimit="10" stroke="black" />
    <circle fill="none" gorn="0.2.0.2" cy="83.4359" r="2.063" cx="23.627" stroke-width="1" id="connector9pad" stroke-miterlimit="10" stroke="black" />
    <circle fill="none" gorn="0.2.0.3" cy="83.4359" r="2.063" cx="30.827" stroke-width="1" id="connector8pad" stroke-miterlimit="10" stroke="black" />
   </g>
  </g>
 </g>
 <g partID="84190">
  <g transform="translate(368.741,117.705)">
   <g transform="matrix(0,-1,1,0,0,0)">
    <g gorn="0.3.0" id="copper0" >
     <circle fill="none" gorn="0.3.0.0" cy="7.82201" r="1.93501" cx="53.3432" stroke-width="1" id="connector8pad" stroke-miterlimit="10" stroke="black" />
     <circle fill="none" gorn="0.3.0.1" cy="7.82201" r="1.93501" cx="60.5442" stroke-width="1" id="connector9pad" stroke-miterlimit="10" stroke="black" />
    </g>
   </g>
  </g>
 </g>
 <g partID="91830">
  <g transform="translate(296.292,249.336)">
   <g id="copper0" >
    <circle connectorname="PWR" fill="none" cy="2.83465" r="2.12598" cx="5.66929" stroke-width="1.41732" id="connector2pad" stroke="black" />
    <path fill="black" stroke-width="0" stroke="none"  d="m8.50393,0a2.83464,2.83465,0,0,1,2.83464,2.83465l0,0a2.83464,2.83465,0,0,1,-2.83464,2.83465l-5.66929,0a2.83464,2.83465,0,0,1,-2.83464,-2.83465l0,0a2.83464,2.83465,0,0,1,2.83464,-2.83465l5.66929,0zM4.25197,2.83465a1.41732,1.41732,0,1,0,2.83464,0,1.41732,1.41732,0,1,0,-2.83464,0z"/>
    <circle connectorname="GND@1" fill="none" cy="20.6929" r="2.12598" cx="5.66929" stroke-width="1.41732" id="connector0pad" stroke="black" />
    <path fill="black" stroke-width="0" stroke="none"  d="m8.50393,17.8583a2.83464,2.83465,0,0,1,2.83464,2.83465l0,0a2.83464,2.83465,0,0,1,-2.83464,2.83465l-5.66929,0a2.83464,2.83465,0,0,1,-2.83464,-2.83465l0,0a2.83464,2.83465,0,0,1,2.83464,-2.83465l5.66929,0zM4.25197,20.6929a1.41732,1.41732,0,1,0,2.83464,0,1.41732,1.41732,0,1,0,-2.83464,0z"/>
    <circle connectorname="GND@2" fill="none" cy="11.3386" r="2.12598" cx="19.8425" stroke-width="1.41732" id="connector1pad" stroke="black" />
    <path fill="black" stroke-width="0" stroke="none"  d="m19.8425,5.66929a2.83464,2.83465,0,0,1,2.83464,2.83465l0,5.66929a2.83464,2.83465,0,0,1,-2.83464,2.83465l0,0a2.83464,2.83465,0,0,1,-2.83464,-2.83465l0,-5.66929a2.83464,2.83465,0,0,1,2.83464,-2.83465l0,0zM18.4252,11.3386a1.41732,1.41732,0,1,0,2.83464,0,1.41732,1.41732,0,1,0,-2.83464,0z"/>
   </g>
  </g>
 </g>
 <g partID="177620">
  <g transform="translate(119.619,86.2702)">
   <g id="copper0" >
    <circle fill="black" cy="6.13543" r="4.53543" cx="6.13543" stroke-width="0" id="nonconn0" stroke="black" />
   </g>
  </g>
 </g>
 <g partID="177600">
  <g transform="translate(44.8675,86.3598)">
   <g id="copper0" >
    <circle fill="black" cy="6.13543" r="4.53543" cx="6.13543" stroke-width="0" id="nonconn0" stroke="black" />
   </g>
  </g>
 </g>
 <g partID="177580">
  <g transform="translate(44.7051,2.07897)">
   <g id="copper0" >
    <circle fill="black" cy="6.13543" r="4.53543" cx="6.13543" stroke-width="0" id="nonconn0" stroke="black" />
   </g>
  </g>
 </g>
 <g partID="177560">
  <g transform="translate(509.459,4.54857)">
   <g id="copper0" >
    <circle fill="black" cy="6.13543" r="4.53543" cx="6.13543" stroke-width="0" id="nonconn0" stroke="black" />
   </g>
  </g>
 </g>
 <g partID="173260">
  <g transform="translate(119.461,2.39257)">
   <g id="copper0" >
    <circle fill="black" cy="6.13543" r="4.53543" cx="6.13543" stroke-width="0" id="nonconn0" stroke="black" />
   </g>
  </g>
 </g>
 <g partID="173240">
  <g transform="translate(368.823,4.46297)">
   <g id="copper0" >
    <circle fill="black" cy="6.13543" r="4.53543" cx="6.13543" stroke-width="0" id="nonconn0" stroke="black" />
   </g>
  </g>
 </g>
 <g partID="173220">
  <g transform="translate(509.272,105.24)">
   <g id="copper0" >
    <circle fill="black" cy="6.13543" r="4.53543" cx="6.13543" stroke-width="0" id="nonconn0" stroke="black" />
   </g>
  </g>
 </g>
 <g partID="173170">
  <g transform="translate(368.88,105.101)">
   <g id="copper0" >
    <circle fill="black" cy="6.13543" r="4.53543" cx="6.13543" stroke-width="0" id="nonconn0" stroke="black" />
   </g>
  </g>
 </g>
 <g partID="313480">
  <line y2="116.4" y1="122.772" x1="73.6643" stroke-width="3.456" stroke="black" stroke-linecap="round" x2="82.1596"/>
 </g>
 <g partID="313430">
  <line y2="114.62" y1="116.401" x1="82.1595" stroke-width="3.456" stroke="black" stroke-linecap="round" x2="181.692"/>
 </g>
 <g partID="313390">
  <line y2="122.772" y1="127.15" x1="73.6328" stroke-width="3.456" stroke="black" stroke-linecap="round" x2="73.6639"/>
 </g>
 <g partID="313760">
  <line y2="121.848" y1="122.543" x1="163.924" stroke-width="3.456" stroke="black" stroke-linecap="round" x2="181.693"/>
 </g>
 <g partID="313710">
  <line y2="122.542" y1="139.398" x1="146.962" stroke-width="3.456" stroke="black" stroke-linecap="round" x2="163.924"/>
 </g>
 <g partID="313640">
  <line y2="139.398" y1="139.231" x1="82.6907" stroke-width="3.456" stroke="black" stroke-linecap="round" x2="146.962"/>
 </g>
 <g partID="313590">
  <line y2="139.232" y1="145.603" x1="74.1947" stroke-width="3.456" stroke="black" stroke-linecap="round" x2="82.69"/>
 </g>
 <g partID="313550">
  <line y2="145.603" y1="150.45" x1="73.9356" stroke-width="3.456" stroke="black" stroke-linecap="round" x2="74.1952"/>
 </g>
 <g partID="314420">
  <line y2="129.046" y1="129.627" x1="166.386" stroke-width="3.456" stroke="black" stroke-linecap="round" x2="181.693"/>
 </g>
 <g partID="314370">
  <line y2="129.627" y1="196.513" x1="100.042" stroke-width="3.456" stroke="black" stroke-linecap="round" x2="166.386"/>
 </g>
 <g partID="314330">
  <line y2="196.513" y1="196.281" x1="90.1975" stroke-width="3.456" stroke="black" stroke-linecap="round" x2="100.042"/>
 </g>
 <g partID="315060">
  <line y2="245.413" y1="137.047" x1="167.21" stroke-width="3.456" stroke="black" stroke-linecap="round" x2="96.2787"/>
 </g>
 <g partID="314990">
  <line y2="245.416" y1="245.413" x1="96.2787" stroke-width="3.456" stroke="black" stroke-linecap="round" x2="89.3635"/>
 </g>
 <g partID="314950">
  <line y2="137.047" y1="136.267" x1="181.693" stroke-width="3.456" stroke="black" stroke-linecap="round" x2="167.21"/>
 </g>
 <g partID="317010">
  <line y2="227.226" y1="197.447" x1="13.6034" stroke-width="3.456" stroke="black" stroke-linecap="round" x2="13.184"/>
 </g>
 <g partID="317450">
  <line y2="194.927" y1="129.684" x1="14.0946" stroke-width="3.456" stroke="black" stroke-linecap="round" x2="13.6303"/>
 </g>
 <g partID="317870">
  <line y2="237.764" y1="229.746" x1="13.1811" stroke-width="3.456" stroke="black" stroke-linecap="round" x2="13.2777"/>
 </g>
 <g partID="318640">
  <line y2="269.139" y1="268.613" x1="49.5123" stroke-width="3.456" stroke="black" stroke-linecap="round" x2="80.5014"/>
 </g>
 <g partID="318250">
  <line y2="268.613" y1="237.764" x1="13.2779" stroke-width="3.456" stroke="black" stroke-linecap="round" x2="49.5123"/>
 </g>
 <g partID="319760">
  <line y2="121.103" y1="70.903" x1="29.4131" stroke-width="3.456" stroke="black" stroke-linecap="round" x2="14.5841"/>
 </g>
 <g partID="319390">
  <line y2="127.167" y1="121.104" x1="14.5835" stroke-width="3.456" stroke="black" stroke-linecap="round" x2="14.1856"/>
 </g>
 <g partID="319030">
  <line y2="70.9035" y1="70.5383" x1="116.88" stroke-width="3.456" stroke="black" stroke-linecap="round" x2="29.4127"/>
 </g>
 <g partID="320490">
  <line y2="71.3899" y1="107.913" x1="164.685" stroke-width="3.456" stroke="black" stroke-linecap="round" x2="119.313"/>
 </g>
 <g partID="320150">
  <line y2="107.913" y1="107.434" x1="181.692" stroke-width="3.456" stroke="black" stroke-linecap="round" x2="164.685"/>
 </g>
 <g partID="329860">
  <line y2="84.5008" y1="74.2534" x1="226.091" stroke-width="3.456" stroke="black" stroke-linecap="round" x2="226.177"/>
 </g>
 <g partID="321590">
  <line y2="74.2532" y1="63.2766" x1="195.284" stroke-width="3.456" stroke="black" stroke-linecap="round" x2="226.091"/>
 </g>
 <g partID="321190">
  <line y2="63.2773" y1="63.3316" x1="119.616" stroke-width="3.456" stroke="black" stroke-linecap="round" x2="195.284"/>
 </g>
 <g partID="321710">
  <line y2="228.492" y1="245.258" x1="77.0203" stroke-width="3.456" stroke="black" stroke-linecap="round" x2="51.0052"/>
 </g>
 <g partID="321680">
  <line y2="228.487" y1="228.492" x1="51.0051" stroke-width="3.456" stroke="black" stroke-linecap="round" x2="43.2263"/>
 </g>
 <g partID="321660">
  <line y2="245.258" y1="245.396" x1="86.4836" stroke-width="3.456" stroke="black" stroke-linecap="round" x2="77.0203"/>
 </g>
 <g partID="321760">
  <line y2="196.188" y1="196.246" x1="87.3179" stroke-width="3.456" stroke="black" stroke-linecap="round" x2="43.6811"/>
 </g>
 <g partID="321960">
  <line y2="152.363" y1="152.323" x1="71.9635" stroke-width="3.456" stroke="black" stroke-linecap="round" x2="43.9305"/>
 </g>
 <g partID="321980">
  <line y2="128.449" y1="128.986" x1="71.7479" stroke-width="3.456" stroke="black" stroke-linecap="round" x2="44.1628"/>
 </g>
 <g partID="323180">
  <line y2="151.124" y1="195.245" x1="137.849" stroke-width="3.456" stroke="black" stroke-linecap="round" x2="166.05"/>
 </g>
 <g partID="323090">
  <line y2="150.637" y1="151.124" x1="166.05" stroke-width="3.456" stroke="black" stroke-linecap="round" x2="181.692"/>
 </g>
 <g partID="323010">
  <line y2="195.245" y1="217.618" x1="137.153" stroke-width="3.456" stroke="black" stroke-linecap="round" x2="137.849"/>
 </g>
 <g partID="367560">
  <line y2="209.365" y1="211.989" x1="260.107" stroke-width="3.456" stroke="black" stroke-linecap="round" x2="182.698"/>
 </g>
 <g partID="330740">
  <line y2="211.989" y1="227.877" x1="270.911" stroke-width="3.456" stroke="black" stroke-linecap="round" x2="260.107"/>
 </g>
 <g partID="330710">
  <line y2="187.893" y1="209.365" x1="182.698" stroke-width="3.456" stroke="black" stroke-linecap="round" x2="182.971"/>
 </g>
 <g partID="330690">
  <line y2="227.877" y1="241.749" x1="271.359" stroke-width="3.456" stroke="black" stroke-linecap="round" x2="270.911"/>
 </g>
 <g partID="335460">
  <line y2="143.471" y1="143.767" x1="189.425" stroke-width="3.456" stroke="black" stroke-linecap="round" x2="184.281"/>
 </g>
 <g partID="330880">
  <line y2="203.727" y1="164.317" x1="297.767" stroke-width="3.456" stroke="black" stroke-linecap="round" x2="288.07"/>
 </g>
 <g partID="330850">
  <line y2="202.559" y1="203.727" x1="288.07" stroke-width="3.456" stroke="black" stroke-linecap="round" x2="194.737"/>
 </g>
 <g partID="330820">
  <line y2="150.343" y1="202.559" x1="194.738" stroke-width="3.456" stroke="black" stroke-linecap="round" x2="194.648"/>
 </g>
 <g partID="330790">
  <line y2="143.767" y1="150.343" x1="194.648" stroke-width="3.456" stroke="black" stroke-linecap="round" x2="189.425"/>
 </g>
 <g partID="330770">
  <line y2="164.316" y1="156.999" x1="297.521" stroke-width="3.456" stroke="black" stroke-linecap="round" x2="297.767"/>
 </g>
 <g partID="331030">
  <line y2="107.832" y1="148.713" x1="312.313" stroke-width="3.456" stroke="black" stroke-linecap="round" x2="234.847"/>
 </g>
 <g partID="330980">
  <line y2="107.462" y1="107.832" x1="234.847" stroke-width="3.456" stroke="black" stroke-linecap="round" x2="227.482"/>
 </g>
 <g partID="330940">
  <line y2="148.712" y1="153.877" x1="311.972" stroke-width="3.456" stroke="black" stroke-linecap="round" x2="312.313"/>
 </g>
 <g partID="331690">
  <line y2="134.626" y1="85.4822" x1="235.091" stroke-width="3.456" stroke="black" stroke-linecap="round" x2="326.706"/>
 </g>
 <g partID="331640">
  <line y2="197.372" y1="134.626" x1="326.707" stroke-width="3.456" stroke="black" stroke-linecap="round" x2="326.756"/>
 </g>
 <g partID="331440">
  <line y2="85.4819" y1="85.7508" x1="227.483" stroke-width="3.456" stroke="black" stroke-linecap="round" x2="235.091"/>
 </g>
 <g partID="331910">
  <line y2="257.564" y1="257.91" x1="282.623" stroke-width="3.456" stroke="black" stroke-linecap="round" x2="272.77"/>
 </g>
 <g partID="331880">
  <line y2="257.91" y1="169.213" x1="311.477" stroke-width="3.456" stroke="black" stroke-linecap="round" x2="282.623"/>
 </g>
 <g partID="331860">
  <line y2="169.213" y1="156.999" x1="311.824" stroke-width="3.456" stroke="black" stroke-linecap="round" x2="311.477"/>
 </g>
 <g partID="335150">
  <line y2="255.926" y1="264.535" x1="259.478" stroke-width="3.456" stroke="black" stroke-linecap="round" x2="259.346"/>
 </g>
 <g partID="333280">
  <line y2="250.44" y1="250.892" x1="265.052" stroke-width="3.456" stroke="black" stroke-linecap="round" x2="270.041"/>
 </g>
 <g partID="332830">
  <line y2="250.892" y1="255.926" x1="259.346" stroke-width="3.456" stroke="black" stroke-linecap="round" x2="265.051"/>
 </g>
 <g partID="332240">
  <line y2="264.535" y1="269.631" x1="264.999" stroke-width="3.456" stroke="black" stroke-linecap="round" x2="259.478"/>
 </g>
 <g partID="331940">
  <line y2="269.631" y1="270.014" x1="300.544" stroke-width="3.456" stroke="black" stroke-linecap="round" x2="264.998"/>
 </g>
 <g partID="333800">
  <line y2="241.223" y1="215.087" x1="310.379" stroke-width="3.456" stroke="black" stroke-linecap="round" x2="302.687"/>
 </g>
 <g partID="333770">
  <line y2="250.757" y1="241.223" x1="302.687" stroke-width="3.456" stroke="black" stroke-linecap="round" x2="302.055"/>
 </g>
 <g partID="333730">
  <line y2="215.087" y1="214.892" x1="324.397" stroke-width="3.456" stroke="black" stroke-linecap="round" x2="310.379"/>
 </g>
 <g partID="335640">
  <line y2="145.458" y1="139.929" x1="516.525" stroke-width="3.456" stroke="black" stroke-linecap="round" x2="516.227"/>
 </g>
 <g partID="335610">
  <line y2="139.929" y1="129.443" x1="492.977" stroke-width="3.456" stroke="black" stroke-linecap="round" x2="516.525"/>
 </g>
 <g partID="335580">
  <line y2="129.442" y1="129.817" x1="341.511" stroke-width="3.456" stroke="black" stroke-linecap="round" x2="492.977"/>
 </g>
 <g partID="335550">
  <line y2="129.818" y1="144.573" x1="326.924" stroke-width="3.456" stroke="black" stroke-linecap="round" x2="341.511"/>
 </g>
 <g partID="335530">
  <line y2="144.572" y1="197.372" x1="326.765" stroke-width="3.456" stroke="black" stroke-linecap="round" x2="326.924"/>
 </g>
 <g partID="342760">
  <line y2="156.253" y1="161.958" x1="403.988" stroke-width="3.456" stroke="black" stroke-linecap="round" x2="410.029"/>
 </g>
 <g partID="342090">
  <line y2="217.988" y1="156.589" x1="444.596" stroke-width="3.456" stroke="black" stroke-linecap="round" x2="463.069"/>
 </g>
 <g partID="340580">
  <line y2="218.653" y1="217.987" x1="463.069" stroke-width="3.456" stroke="black" stroke-linecap="round" x2="471.665"/>
 </g>
 <g partID="340530">
  <line y2="156.589" y1="156.253" x1="410.029" stroke-width="3.456" stroke="black" stroke-linecap="round" x2="444.596"/>
 </g>
 <g partID="340490">
  <line y2="161.958" y1="166.019" x1="403.865" stroke-width="3.456" stroke="black" stroke-linecap="round" x2="403.988"/>
 </g>
 <g partID="342870">
  <line y2="166.021" y1="161.876" x1="404.184" stroke-width="3.456" stroke="black" stroke-linecap="round" x2="403.916"/>
 </g>
 <g partID="342850">
  <line y2="161.876" y1="144.519" x1="392.239" stroke-width="3.456" stroke="black" stroke-linecap="round" x2="404.184"/>
 </g>
 <g partID="345230">
  <line y2="237.141" y1="194.948" x1="362.895" stroke-width="3.456" stroke="black" stroke-linecap="round" x2="363.226"/>
 </g>
 <g partID="345510">
  <line y2="192.428" y1="144.741" x1="362.728" stroke-width="3.456" stroke="black" stroke-linecap="round" x2="362.881"/>
 </g>
 <g partID="351720">
  <line y2="265.912" y1="228.537" x1="439.112" stroke-width="3.456" stroke="black" stroke-linecap="round" x2="452.111"/>
 </g>
 <g partID="351670">
  <line y2="228.537" y1="222.455" x1="414.954" stroke-width="3.456" stroke="black" stroke-linecap="round" x2="439.112"/>
 </g>
 <g partID="351600">
  <line y2="265.912" y1="265.912" x1="452.112" stroke-width="3.456" stroke="black" stroke-linecap="round" x2="495.227"/>
 </g>
 <g partID="351550">
  <line y2="239.978" y1="265.912" x1="495.227" stroke-width="3.456" stroke="black" stroke-linecap="round" x2="505.754"/>
 </g>
 <g partID="351500">
  <line y2="240.306" y1="239.978" x1="505.754" stroke-width="3.456" stroke="black" stroke-linecap="round" x2="514.862"/>
 </g>
 <g partID="351460">
  <line y2="222.455" y1="213.787" x1="414.62" stroke-width="3.456" stroke="black" stroke-linecap="round" x2="414.954"/>
 </g>
 <g partID="351890">
  <line y2="168.893" y1="203.335" x1="414.484" stroke-width="3.456" stroke="black" stroke-linecap="round" x2="411.645"/>
 </g>
 <g partID="351870">
  <line y2="203.335" y1="210.908" x1="414.552" stroke-width="3.456" stroke="black" stroke-linecap="round" x2="414.484"/>
 </g>
 <g partID="353040">
  <line y2="246.992" y1="201.684" x1="543.158" stroke-width="3.456" stroke="black" stroke-linecap="round" x2="523.902"/>
 </g>
 <g partID="353010">
  <line y2="247.459" y1="246.992" x1="523.903" stroke-width="3.456" stroke="black" stroke-linecap="round" x2="517.45"/>
 </g>
 <g partID="352990">
  <line y2="201.684" y1="192.241" x1="543.364" stroke-width="3.456" stroke="black" stroke-linecap="round" x2="543.159"/>
 </g>
 <g partID="353440">
  <line y2="154.121" y1="182.998" x1="558.022" stroke-width="3.456" stroke="black" stroke-linecap="round" x2="525.747"/>
 </g>
 <g partID="353250">
  <line y2="153.975" y1="154.121" x1="525.747" stroke-width="3.456" stroke="black" stroke-linecap="round" x2="517.453"/>
 </g>
 <g partID="353070">
  <line y2="182.998" y1="189.506" x1="557.834" stroke-width="3.456" stroke="black" stroke-linecap="round" x2="558.022"/>
 </g>
 <g partID="353680">
  <line y2="168.559" y1="185.115" x1="550.644" stroke-width="3.456" stroke="black" stroke-linecap="round" x2="531.692"/>
 </g>
 <g partID="353650">
  <line y2="168.37" y1="168.56" x1="531.692" stroke-width="3.456" stroke="black" stroke-linecap="round" x2="517.453"/>
 </g>
 <g partID="353630">
  <line y2="185.115" y1="189.506" x1="550.606" stroke-width="3.456" stroke="black" stroke-linecap="round" x2="550.645"/>
 </g>
 <g partID="354350">
  <line y2="269.832" y1="238.55" x1="353.217" stroke-width="3.456" stroke="black" stroke-linecap="round" x2="326.176"/>
 </g>
 <g partID="353710">
  <line y2="238.55" y1="238.42" x1="361.976" stroke-width="3.456" stroke="black" stroke-linecap="round" x2="353.218"/>
 </g>
 <g partID="354180">
  <line y2="270.018" y1="269.832" x1="326.176" stroke-width="3.456" stroke="black" stroke-linecap="round" x2="303.379"/>
 </g>
 <g partID="364970">
  <line y2="244.06" y1="219.365" x1="127.243" stroke-width="3.456" stroke="black" stroke-linecap="round" x2="111.014"/>
 </g>
 <g partID="364940">
  <line y2="267.9" y1="244.06" x1="111.014" stroke-width="3.456" stroke="black" stroke-linecap="round" x2="110.584"/>
 </g>
 <g partID="364920">
  <line y2="219.365" y1="219.037" x1="135.744" stroke-width="3.456" stroke="black" stroke-linecap="round" x2="127.243"/>
 </g>
</svg>
