<?xml version='1.0' encoding='UTF-8' standalone='no'?>
<!-- Created with Fritzing (http://www.fritzing.org/) -->
<svg xmlns="http://www.w3.org/2000/svg" version="1.2" height="3.93701in" xmlns:svg="http://www.w3.org/2000/svg" x="0in" y="0in" viewBox="0 0 566.929 283.465"  baseProfile="tiny" width="7.87402in">
 <g transform="matrix(-1, 0, 0, 1, 566.929, 0)">
  <g partID="57660">
   <g transform="translate(566.929,283.465)">
    <g transform="matrix(-1,0,0,-1,0,0)">
     <g id="board" >
      <rect stroke-width="0.5" id="boardoutline" height="282.889" fill-opacity="0.5" x="0.288" y="0.288" stroke="black"  fill="none" width="566.354"/>
     </g>
    </g>
   </g>
  </g>
  <g partID="213900">
   <g transform="translate(308.916,194.226)">
    <g transform="matrix(1, 0, 0, 1, 0.54, -104.076)">
     <g id="copper0">
      <g gorn="0.3.0.0.0">
       <g id="copper1" gorn="0.3.0.0.0.0">
        <circle stroke-opacity="1" style="fill-rule:evenodd;stroke-linecap:butt;stroke-linejoin:miter;stroke-miterlimit:4;stroke-dasharray:none;" stroke-width="2.88" id="connector0pin" fill-opacity="1" cx="17.3016" stroke="black" r="3.8016" cy="124.709" fill="none" gorn="0.3.0.0.0.0.0"/>
        <circle stroke-opacity="1" style="fill-rule:evenodd;stroke-linecap:butt;stroke-linejoin:miter;stroke-miterlimit:4;stroke-dasharray:none;" stroke-width="2.88" id="connector1pin" fill-opacity="1" cx="17.3016" stroke="black" r="3.8016" cy="109.584" fill="none" gorn="0.3.0.0.0.0.1"/>
       </g>
      </g>
     </g>
    </g>
   </g>
  </g>
  <g partID="246850">
   <g transform="translate(562.833,185.834)">
    <g transform="matrix(0,1,-1,0,0,0)">
     <g flipped="1" id="copper0">
      <g transform="matrix(-1, 0, 0, 1, 10.08, 0)">
       <g>
        <g>
         <g>
          <g id="copper0">
           <rect stroke-width="1.44" id="square" height="4.176" x="2.952" y="2.952" stroke="black" fill="none" width="4.176"/>
           <circle stroke-width="1.44" id="connector0pin" cx="5.04" cy="5.04" r="2.088" stroke="black" fill="none"/>
           <circle stroke-width="1.44" id="connector1pin" cx="5.04" cy="12.24" r="2.088" stroke="black" fill="none"/>
           <circle stroke-width="1.44" id="connector2pin" cx="5.04" cy="19.44" r="2.088" stroke="black" fill="none"/>
          </g>
         </g>
         <g>
          <rect stroke-width="1.44" id="square" height="4.176" x="2.952" y="2.952" stroke="black" fill="none" width="4.176"/>
          <circle stroke-width="1.44" id="connector0pin" cx="5.04" cy="5.04" r="2.088" stroke="black" fill="none"/>
          <circle stroke-width="1.44" id="connector1pin" cx="5.04" cy="12.24" r="2.088" stroke="black" fill="none"/>
          <circle stroke-width="1.44" id="connector2pin" cx="5.04" cy="19.44" r="2.088" stroke="black" fill="none"/>
         </g>
        </g>
       </g>
      </g>
     </g>
    </g>
   </g>
  </g>
  <g partID="186240">
   <g transform="translate(70.5231,149.008)">
    <g id="copper0" >
     <rect stroke-width="1.44" id="rect20" height="5.184" x="0.72" y="0.72" stroke="black"  fill="none" width="5.184"/>
     <circle stroke-width="1.44" id="connector0pin" cx="3.312" cy="3.312" r="2.592" stroke="black"  fill="none"/>
     <circle stroke-width="1.44" id="connector1pin" cx="24.912" cy="3.312" r="2.592" stroke="black"  fill="none"/>
    </g>
   </g>
  </g>
  <g partID="184470">
   <g transform="translate(70.3075,125.71)">
    <g id="copper0" >
     <rect stroke-width="1.44" id="rect20" height="5.184" x="0.72" y="0.72" stroke="black"  fill="none" width="5.184"/>
     <circle stroke-width="1.44" id="connector0pin" cx="3.312" cy="3.312" r="2.592" stroke="black"  fill="none"/>
     <circle stroke-width="1.44" id="connector1pin" cx="24.912" cy="3.312" r="2.592" stroke="black"  fill="none"/>
    </g>
   </g>
  </g>
  <g partID="240650">
   <g transform="translate(469.357,135.953)">
    <g id="copper0" >
     <circle stroke-width="1.224" id="connector16pad" cx="3.6" stroke="black" cy="10.8" r="1.908"  fill="none"/>
     <rect stroke-width="1.224" height="3.816" x="1.692" y="8.892" stroke="black"  fill="none" width="3.814"/>
     <circle stroke-width="1.224" id="connector17pad" cx="3.6" stroke="black" cy="18" r="1.908"  fill="none"/>
     <circle stroke-width="1.224" id="connector18pad" cx="3.6" stroke="black" cy="25.2" r="1.908"  fill="none"/>
     <circle stroke-width="1.224" id="connector19pad" cx="3.6" stroke="black" cy="32.4" r="1.908"  fill="none"/>
     <circle stroke-width="1.224" id="connector20pad" cx="3.6" stroke="black" cy="39.6" r="1.908"  fill="none"/>
     <circle stroke-width="1.224" id="connector21pad" cx="3.6" stroke="black" cy="46.8" r="1.908"  fill="none"/>
     <circle stroke-width="1.224" id="connector22pad" cx="3.6" stroke="black" cy="54" r="1.908"  fill="none"/>
     <circle stroke-width="1.224" id="connector23pad" cx="3.6" stroke="black" cy="61.2" r="1.908"  fill="none"/>
     <circle stroke-width="1.224" id="connector24pad" cx="3.6" stroke="black" cy="68.4" r="1.908"  fill="none"/>
     <circle stroke-width="1.224" id="connector25pad" cx="3.6" stroke="black" cy="75.6" r="1.908"  fill="none"/>
     <circle stroke-width="1.224" id="connector26pad" cx="3.6" stroke="black" cy="82.8" r="1.908"  fill="none"/>
     <circle stroke-width="1.224" id="connector27pad" cx="3.6" stroke="black" cy="90" r="1.908"  fill="none"/>
     <circle stroke-width="1.224" id="connector28pad" cx="3.6" stroke="black" cy="97.2" r="1.908"  fill="none"/>
     <circle stroke-width="1.224" id="connector29pad" cx="3.6" stroke="black" cy="104.4" r="1.908"  fill="none"/>
     <circle stroke-width="1.224" id="connector30pad" cx="3.6" stroke="black" cy="111.6" r="1.908"  fill="none"/>
     <circle stroke-width="1.224" id="connector31pad" cx="46.8" stroke="black" cy="10.8" r="1.908"  fill="none"/>
     <circle stroke-width="1.224" id="connector32pad" cx="46.8" stroke="black" cy="18" r="1.908"  fill="none"/>
     <circle stroke-width="1.224" id="connector33pad" cx="46.8" stroke="black" cy="25.2" r="1.908"  fill="none"/>
     <circle stroke-width="1.224" id="connector34pad" cx="46.8" stroke="black" cy="32.4" r="1.908"  fill="none"/>
     <circle stroke-width="1.224" id="connector35pad" cx="46.8" stroke="black" cy="39.6" r="1.908"  fill="none"/>
     <circle stroke-width="1.224" id="connector36pad" cx="46.8" stroke="black" cy="46.8" r="1.908"  fill="none"/>
     <circle stroke-width="1.224" id="connector37pad" cx="46.8" stroke="black" cy="54" r="1.908"  fill="none"/>
     <circle stroke-width="1.224" id="connector38pad" cx="46.8" stroke="black" cy="61.2" r="1.908"  fill="none"/>
     <circle stroke-width="1.224" id="connector39pad" cx="46.8" stroke="black" cy="68.4" r="1.908"  fill="none"/>
     <circle stroke-width="1.224" id="connector40pad" cx="46.8" stroke="black" cy="75.6" r="1.908"  fill="none"/>
     <circle stroke-width="1.224" id="connector41pad" cx="46.8" stroke="black" cy="82.8" r="1.908"  fill="none"/>
     <circle stroke-width="1.224" id="connector42pad" cx="46.8" stroke="black" cy="90" r="1.908"  fill="none"/>
     <circle stroke-width="1.224" id="connector43pad" cx="46.8" stroke="black" cy="97.2" r="1.908"  fill="none"/>
     <circle stroke-width="1.224" id="connector44pad" cx="46.8" stroke="black" cy="104.4" r="1.908"  fill="none"/>
     <circle stroke-width="1.224" id="connector45pad" cx="46.8" stroke="black" cy="111.6" r="1.908"  fill="none"/>
    </g>
   </g>
  </g>
  <g partID="68100">
   <g transform="translate(179.387,74.9971)">
    <g id="copper0" >
     <circle stroke-width="1.224" id="connector16pad" cx="3.6" stroke="black" cy="10.8" r="1.908"  fill="none"/>
     <rect stroke-width="1.224" height="3.816" x="1.692" y="8.892" stroke="black"  fill="none" width="3.814"/>
     <circle stroke-width="1.224" id="connector17pad" cx="3.6" stroke="black" cy="18" r="1.908"  fill="none"/>
     <circle stroke-width="1.224" id="connector18pad" cx="3.6" stroke="black" cy="25.2" r="1.908"  fill="none"/>
     <circle stroke-width="1.224" id="connector19pad" cx="3.6" stroke="black" cy="32.4" r="1.908"  fill="none"/>
     <circle stroke-width="1.224" id="connector20pad" cx="3.6" stroke="black" cy="39.6" r="1.908"  fill="none"/>
     <circle stroke-width="1.224" id="connector21pad" cx="3.6" stroke="black" cy="46.8" r="1.908"  fill="none"/>
     <circle stroke-width="1.224" id="connector22pad" cx="3.6" stroke="black" cy="54" r="1.908"  fill="none"/>
     <circle stroke-width="1.224" id="connector23pad" cx="3.6" stroke="black" cy="61.2" r="1.908"  fill="none"/>
     <circle stroke-width="1.224" id="connector24pad" cx="3.6" stroke="black" cy="68.4" r="1.908"  fill="none"/>
     <circle stroke-width="1.224" id="connector25pad" cx="3.6" stroke="black" cy="75.6" r="1.908"  fill="none"/>
     <circle stroke-width="1.224" id="connector26pad" cx="3.6" stroke="black" cy="82.8" r="1.908"  fill="none"/>
     <circle stroke-width="1.224" id="connector27pad" cx="3.6" stroke="black" cy="90" r="1.908"  fill="none"/>
     <circle stroke-width="1.224" id="connector28pad" cx="3.6" stroke="black" cy="97.2" r="1.908"  fill="none"/>
     <circle stroke-width="1.224" id="connector29pad" cx="3.6" stroke="black" cy="104.4" r="1.908"  fill="none"/>
     <circle stroke-width="1.224" id="connector30pad" cx="3.6" stroke="black" cy="111.6" r="1.908"  fill="none"/>
     <circle stroke-width="1.224" id="connector31pad" cx="46.8" stroke="black" cy="10.8" r="1.908"  fill="none"/>
     <circle stroke-width="1.224" id="connector32pad" cx="46.8" stroke="black" cy="18" r="1.908"  fill="none"/>
     <circle stroke-width="1.224" id="connector33pad" cx="46.8" stroke="black" cy="25.2" r="1.908"  fill="none"/>
     <circle stroke-width="1.224" id="connector34pad" cx="46.8" stroke="black" cy="32.4" r="1.908"  fill="none"/>
     <circle stroke-width="1.224" id="connector35pad" cx="46.8" stroke="black" cy="39.6" r="1.908"  fill="none"/>
     <circle stroke-width="1.224" id="connector36pad" cx="46.8" stroke="black" cy="46.8" r="1.908"  fill="none"/>
     <circle stroke-width="1.224" id="connector37pad" cx="46.8" stroke="black" cy="54" r="1.908"  fill="none"/>
     <circle stroke-width="1.224" id="connector38pad" cx="46.8" stroke="black" cy="61.2" r="1.908"  fill="none"/>
     <circle stroke-width="1.224" id="connector39pad" cx="46.8" stroke="black" cy="68.4" r="1.908"  fill="none"/>
     <circle stroke-width="1.224" id="connector40pad" cx="46.8" stroke="black" cy="75.6" r="1.908"  fill="none"/>
     <circle stroke-width="1.224" id="connector41pad" cx="46.8" stroke="black" cy="82.8" r="1.908"  fill="none"/>
     <circle stroke-width="1.224" id="connector42pad" cx="46.8" stroke="black" cy="90" r="1.908"  fill="none"/>
     <circle stroke-width="1.224" id="connector43pad" cx="46.8" stroke="black" cy="97.2" r="1.908"  fill="none"/>
     <circle stroke-width="1.224" id="connector44pad" cx="46.8" stroke="black" cy="104.4" r="1.908"  fill="none"/>
     <circle stroke-width="1.224" id="connector45pad" cx="46.8" stroke="black" cy="111.6" r="1.908"  fill="none"/>
    </g>
   </g>
  </g>
  <g partID="100560">
   <g transform="translate(10.466,225.39)">
    <g id="copper0" >
     <g id="copper1" >
      <!-- <rect width="55" x="10" y="15.5" fill="none" height="55" stroke="rgb(255, 191, 0)" stroke-width="20" />  -->
      <circle stroke-width="1.44" id="connector0pin" cx="2.7" cy="3.096" stroke="black" r="1.98"  fill="none"/>
      <circle stroke-width="1.44" id="connector1pin" cx="31.5" cy="3.096" stroke="black" r="1.98"  fill="none"/>
     </g>
    </g>
   </g>
  </g>
  <g partID="87830">
   <g transform="translate(11.17,149.269)">
    <g id="copper0" >
     <g id="copper1" >
      <!-- <rect width="55" x="10" y="15.5" fill="none" height="55" stroke="rgb(255, 191, 0)" stroke-width="20" />  -->
      <circle stroke-width="1.44" id="connector0pin" cx="2.7" cy="3.096" stroke="black" r="1.98"  fill="none"/>
      <circle stroke-width="1.44" id="connector1pin" cx="31.5" cy="3.096" stroke="black" r="1.98"  fill="none"/>
     </g>
    </g>
   </g>
  </g>
  <g partID="75390">
   <g transform="translate(11.403,125.328)">
    <g id="copper0" >
     <g id="copper1" >
      <!-- <rect width="55" x="10" y="15.5" fill="none" height="55" stroke="rgb(255, 191, 0)" stroke-width="20" />  -->
      <circle stroke-width="1.44" id="connector0pin" cx="2.7" cy="3.096" stroke="black" r="1.98"  fill="none"/>
      <circle stroke-width="1.44" id="connector1pin" cx="31.5" cy="3.096" stroke="black" r="1.98"  fill="none"/>
     </g>
    </g>
   </g>
  </g>
  <g partID="75780">
   <g transform="translate(10.9208,193.091)">
    <g id="copper0" >
     <g id="copper1" >
      <!-- <rect width="55" x="10" y="15.5" fill="none" height="55" stroke="rgb(255, 191, 0)" stroke-width="20" />  -->
      <circle stroke-width="1.44" id="connector0pin" cx="2.7" cy="3.096" stroke="black" r="1.98"  fill="none"/>
      <circle stroke-width="1.44" id="connector1pin" cx="31.5" cy="3.096" stroke="black" r="1.98"  fill="none"/>
     </g>
    </g>
   </g>
  </g>
  <g partID="259010">
   <g transform="translate(360.185,190.592)">
    <g id="copper0" >
     <g id="copper1" >
      <!-- <rect width="55" x="10" y="15.5" fill="none" height="55" stroke="rgb(255, 191, 0)" stroke-width="20" />  -->
      <circle stroke-width="1.44" id="connector0pin" cx="2.7" cy="3.096" stroke="black" r="1.98"  fill="none"/>
      <circle stroke-width="1.44" id="connector1pin" cx="31.5" cy="3.096" stroke="black" r="1.98"  fill="none"/>
     </g>
    </g>
   </g>
  </g>
  <g partID="258990">
   <g transform="translate(360.536,235.305)">
    <g id="copper0" >
     <g id="copper1" >
      <!-- <rect width="55" x="10" y="15.5" fill="none" height="55" stroke="rgb(255, 191, 0)" stroke-width="20" />  -->
      <circle stroke-width="1.44" id="connector0pin" cx="2.7" cy="3.096" stroke="black" r="1.98"  fill="none"/>
      <circle stroke-width="1.44" id="connector1pin" cx="31.5" cy="3.096" stroke="black" r="1.98"  fill="none"/>
     </g>
    </g>
   </g>
  </g>
  <g partID="258820">
   <g transform="translate(360.024,140.385)">
    <g id="copper0" >
     <g id="copper1" >
      <!-- <rect width="55" x="10" y="15.5" fill="none" height="55" stroke="rgb(255, 191, 0)" stroke-width="20" />  -->
      <circle stroke-width="1.44" id="connector0pin" cx="2.7" cy="3.096" stroke="black" r="1.98"  fill="none"/>
      <circle stroke-width="1.44" id="connector1pin" cx="31.5" cy="3.096" stroke="black" r="1.98"  fill="none"/>
     </g>
    </g>
   </g>
  </g>
  <g partID="78530">
   <g transform="translate(79.0604,266.064)">
    <g id="copper0" >
     <g id="copper1" >
      <!-- <rect width="55" x="10" y="15.5" fill="none" height="55" stroke="rgb(255, 191, 0)" stroke-width="20" />  -->
      <circle stroke-width="1.44" id="connector0pin" cx="2.7" cy="3.096" stroke="black" r="1.98"  fill="none"/>
      <circle stroke-width="1.44" id="connector1pin" cx="31.5" cy="3.096" stroke="black" r="1.98"  fill="none"/>
     </g>
    </g>
   </g>
  </g>
  <g partID="247600">
   <g transform="translate(431.335,205.895)">
    <g transform="matrix(0,1,-1,0,0,0)">
     <g id="copper0" >
      <circle connectorname="1" stroke-width="1.224" id="connector0pad" cx="6.45336" cy="9.06746" r="2.052" stroke="black"  fill="none"/>
      <circle connectorname="2" stroke-width="1.224" id="connector1pad" cx="6.45336" cy="16.7715" r="2.052" stroke="black"  fill="none"/>
      <circle connectorname="3" stroke-width="1.224" id="connector2pad" cx="6.45336" cy="24.4755" r="2.052" stroke="black"  fill="none"/>
     </g>
    </g>
   </g>
  </g>
  <g partID="247580">
   <g transform="translate(428.297,161.005)">
    <g transform="matrix(0,1,-1,0,0,0)">
     <g id="copper0" >
      <circle connectorname="1" stroke-width="1.224" id="connector0pad" cx="6.45336" cy="9.06746" r="2.052" stroke="black"  fill="none"/>
      <circle connectorname="2" stroke-width="1.224" id="connector1pad" cx="6.45336" cy="16.7715" r="2.052" stroke="black"  fill="none"/>
      <circle connectorname="3" stroke-width="1.224" id="connector2pad" cx="6.45336" cy="24.4755" r="2.052" stroke="black"  fill="none"/>
     </g>
    </g>
   </g>
  </g>
  <g partID="75130">
   <g transform="translate(81.4697,220.942)">
    <g id="copper0" >
     <circle connectorname="1" stroke-width="1.224" id="connector0pad" cx="6.45336" cy="9.06746" r="2.052" stroke="black"  fill="none"/>
     <circle connectorname="2" stroke-width="1.224" id="connector1pad" cx="6.45336" cy="16.7715" r="2.052" stroke="black"  fill="none"/>
     <circle connectorname="3" stroke-width="1.224" id="connector2pad" cx="6.45336" cy="24.4755" r="2.052" stroke="black"  fill="none"/>
    </g>
   </g>
  </g>
  <g partID="75270">
   <g transform="translate(82.3042,172.276)">
    <g id="copper0" >
     <circle connectorname="1" stroke-width="1.224" id="connector0pad" cx="6.45336" cy="9.57146" r="2.052" stroke="black"  fill="none"/>
     <circle connectorname="2" stroke-width="1.224" id="connector1pad" cx="6.45336" cy="16.7715" r="2.052" stroke="black"  fill="none"/>
     <circle connectorname="3" stroke-width="1.224" id="connector2pad" cx="6.45336" cy="23.9715" r="2.052" stroke="black"  fill="none"/>
    </g>
   </g>
  </g>
  <g partID="76740">
   <g transform="translate(132.07,213.945)">
    <g id="copper0" >
     <rect stroke-width="1.44" id="square" height="4.176" x="2.952" y="2.952" stroke="black"  fill="none" width="4.176"/>
     <circle stroke-width="1.44" id="connector0pin" cx="5.04" cy="5.04" r="2.088" stroke="black"  fill="none"/>
     <circle stroke-width="1.44" id="connector1pin" cx="5.04" cy="12.24" r="2.088" stroke="black"  fill="none"/>
     <circle stroke-width="1.44" id="connector2pin" cx="5.04" cy="19.44" r="2.088" stroke="black"  fill="none"/>
    </g>
   </g>
  </g>
  <g partID="79210">
   <g transform="translate(42.2912,99.6953)">
    <g transform="matrix(0,-1,1,0,0,0)">
     <g transform="matrix(1, 0, 0, 1, -2.74415, 0.362573)">
      <g id="copper0">
       <g transform="matrix(1, 0, 0, 1, 18.3175, 7.26522)">
        <g id="control">
         <circle stroke-width="1.44" id="connector0pin" cx="2.808" r="2.088" stroke="black" cy="10.8026" fill="none" gorn="0.2.0.0"/>
         <circle stroke-width="1.44" id="connector1pin" cx="2.808" r="2.088" stroke="black" cy="18.0026" fill="none" gorn="0.2.0.1"/>
         <circle stroke-width="1.44" id="connector2pin" cx="2.808" r="2.088" stroke="black" cy="25.2026" fill="none" gorn="0.2.0.2"/>
         <circle stroke-width="1.44" id="connector3pin" cx="2.808" r="2.088" stroke="black" cy="32.4026" fill="none" gorn="0.2.0.3"/>
        </g>
       </g>
       <g transform="matrix(1, 0, 0, 1, 7.49903, 35.9911)">
        <g id="power">
         <g transform="rotate(-90)">
          <circle stroke-width="1.44" id="connector4pin" cx="-39.6026" r="2.088" stroke="black" cy="24.408" fill="none" gorn="0.2.0.4"/>
         </g>
         <g transform="rotate(-90)">
          <circle stroke-width="1.44" id="connector5pin" cx="-39.6026" r="2.088" stroke="black" cy="31.608" fill="none" gorn="0.2.0.5"/>
         </g>
         <g transform="rotate(-90)">
          <circle stroke-width="1.44" id="connector6pin" cx="-39.6026" r="2.088" stroke="black" cy="38.808" fill="none" gorn="0.2.0.6"/>
         </g>
         <g transform="rotate(-90)">
          <circle stroke-width="1.44" id="connector7pin" cx="-39.6026" r="2.088" stroke="black" cy="46.008" fill="none" gorn="0.2.0.7"/>
         </g>
        </g>
       </g>
       <g transform="matrix(1, 0, 0, 1, 3.94497, 6.85673)">
        <g id="motor">
         <circle stroke-width="1.44" id="connector8pin" cx="63.9587" r="2.088" stroke="black" cy="7.42934" fill="none" gorn="0.2.0.8"/>
         <circle stroke-width="1.44" id="connector9pin" cx="63.9587" r="2.088" stroke="black" cy="14.516" fill="none" gorn="0.2.0.9"/>
         <circle stroke-width="1.44" id="connector10pin" cx="64.008" r="2.088" stroke="black" cy="21.6026" fill="none" gorn="0.2.0.10"/>
         <circle stroke-width="1.44" id="connector11pin" cx="63.9587" r="2.088" stroke="black" cy="28.6892" fill="none" gorn="0.2.0.11"/>
         <circle stroke-width="1.44" id="connector12pin" cx="63.9587" r="2.088" stroke="black" cy="35.7758" fill="none" gorn="0.2.0.12"/>
        </g>
       </g>
      </g>
     </g>
    </g>
   </g>
  </g>
  <g partID="83900">
   <g transform="translate(186.942,230.303)">
    <g id="copper0"  gorn="0.4.0">
     <rect stroke-width="1.44" id="square" height="4.176" x="82.3725" y="10.7252" stroke="black"  fill="none" width="4.176" gorn="0.4.0.0"/>
     <circle stroke-width="1.44" id="connector0pin" cx="84.4605" r="2.088" cy="12.8132" stroke="black"  fill="none" gorn="0.4.0.1"/>
     <circle stroke-width="1.44" id="connector1pin" cx="84.4605" r="2.088" cy="20.0132" stroke="black"  fill="none" gorn="0.4.0.2"/>
     <circle stroke-width="1.44" id="connector2pin" cx="84.4605" r="2.088" cy="27.2132" stroke="black"  fill="none" gorn="0.4.0.3"/>
    </g>
   </g>
  </g>
  <g partID="84160">
   <g transform="translate(281.041,72.0012)">
    <g id="copper0"  gorn="0.2.0">
     <circle stroke-width="1" id="connector11pad" cx="9.228" cy="83.4359" stroke="black" r="2.063"  stroke-miterlimit="10" fill="none" gorn="0.2.0.0"/>
     <circle stroke-width="1" id="connector10pad" cx="16.427" cy="83.4359" stroke="black" r="2.063"  stroke-miterlimit="10" fill="none" gorn="0.2.0.1"/>
     <circle stroke-width="1" id="connector9pad" cx="23.627" cy="83.4359" stroke="black" r="2.063"  stroke-miterlimit="10" fill="none" gorn="0.2.0.2"/>
     <circle stroke-width="1" id="connector8pad" cx="30.827" cy="83.4359" stroke="black" r="2.063"  stroke-miterlimit="10" fill="none" gorn="0.2.0.3"/>
    </g>
   </g>
  </g>
  <g partID="84190">
   <g transform="translate(368.741,117.705)">
    <g transform="matrix(0,-1,1,0,0,0)">
     <g id="copper0"  gorn="0.3.0">
      <circle stroke-width="1" id="connector8pad" cx="53.3432" cy="7.82201" stroke="black" r="1.93501"  stroke-miterlimit="10" fill="none" gorn="0.3.0.0"/>
      <circle stroke-width="1" id="connector9pad" cx="60.5442" cy="7.82201" stroke="black" r="1.93501"  stroke-miterlimit="10" fill="none" gorn="0.3.0.1"/>
     </g>
    </g>
   </g>
  </g>
  <g partID="91830">
   <g transform="translate(296.292,249.336)">
    <g id="copper0" >
     <circle connectorname="PWR" stroke-width="1.41732" id="connector2pad" cx="5.66929" cy="2.83465" r="2.12598" stroke="black"  fill="none"/>
     <path d="m8.50393,0a2.83464,2.83465,0,0,1,2.83464,2.83465l0,0a2.83464,2.83465,0,0,1,-2.83464,2.83465l-5.66929,0a2.83464,2.83465,0,0,1,-2.83464,-2.83465l0,0a2.83464,2.83465,0,0,1,2.83464,-2.83465l5.66929,0zM4.25197,2.83465a1.41732,1.41732,0,1,0,2.83464,0,1.41732,1.41732,0,1,0,-2.83464,0z" stroke-width="0" stroke="none"  fill="black"/>
     <circle connectorname="GND@1" stroke-width="1.41732" id="connector0pad" cx="5.66929" cy="20.6929" r="2.12598" stroke="black"  fill="none"/>
     <path d="m8.50393,17.8583a2.83464,2.83465,0,0,1,2.83464,2.83465l0,0a2.83464,2.83465,0,0,1,-2.83464,2.83465l-5.66929,0a2.83464,2.83465,0,0,1,-2.83464,-2.83465l0,0a2.83464,2.83465,0,0,1,2.83464,-2.83465l5.66929,0zM4.25197,20.6929a1.41732,1.41732,0,1,0,2.83464,0,1.41732,1.41732,0,1,0,-2.83464,0z" stroke-width="0" stroke="none"  fill="black"/>
     <circle connectorname="GND@2" stroke-width="1.41732" id="connector1pad" cx="19.8425" cy="11.3386" r="2.12598" stroke="black"  fill="none"/>
     <path d="m19.8425,5.66929a2.83464,2.83465,0,0,1,2.83464,2.83465l0,5.66929a2.83464,2.83465,0,0,1,-2.83464,2.83465l0,0a2.83464,2.83465,0,0,1,-2.83464,-2.83465l0,-5.66929a2.83464,2.83465,0,0,1,2.83464,-2.83465l0,0zM18.4252,11.3386a1.41732,1.41732,0,1,0,2.83464,0,1.41732,1.41732,0,1,0,-2.83464,0z" stroke-width="0" stroke="none"  fill="black"/>
    </g>
   </g>
  </g>
  <g partID="177620">
   <g transform="translate(119.618,86.2702)">
    <g id="copper0" >
     <circle stroke-width="0" id="nonconn0" cx="6.13543" cy="6.13543" r="4.53543" stroke="black"  fill="black"/>
    </g>
   </g>
  </g>
  <g partID="177600">
   <g transform="translate(44.8674,86.3599)">
    <g id="copper0" >
     <circle stroke-width="0" id="nonconn0" cx="6.13543" cy="6.13543" r="4.53543" stroke="black"  fill="black"/>
    </g>
   </g>
  </g>
  <g partID="177580">
   <g transform="translate(44.7046,2.079)">
    <g id="copper0" >
     <circle stroke-width="0" id="nonconn0" cx="6.13543" cy="6.13543" r="4.53543" stroke="black"  fill="black"/>
    </g>
   </g>
  </g>
  <g partID="177560">
   <g transform="translate(509.459,4.54865)">
    <g id="copper0" >
     <circle stroke-width="0" id="nonconn0" cx="6.13543" cy="6.13543" r="4.53543" stroke="black"  fill="black"/>
    </g>
   </g>
  </g>
  <g partID="173260">
   <g transform="translate(119.461,2.39304)">
    <g id="copper0" >
     <circle stroke-width="0" id="nonconn0" cx="6.13543" cy="6.13543" r="4.53543" stroke="black"  fill="black"/>
    </g>
   </g>
  </g>
  <g partID="173240">
   <g transform="translate(368.822,4.46337)">
    <g id="copper0" >
     <circle stroke-width="0" id="nonconn0" cx="6.13543" cy="6.13543" r="4.53543" stroke="black"  fill="black"/>
    </g>
   </g>
  </g>
  <g partID="173220">
   <g transform="translate(509.271,105.24)">
    <g id="copper0" >
     <circle stroke-width="0" id="nonconn0" cx="6.13543" cy="6.13543" r="4.53543" stroke="black"  fill="black"/>
    </g>
   </g>
  </g>
  <g partID="173170">
   <g transform="translate(368.88,105.101)">
    <g id="copper0" >
     <circle stroke-width="0" id="nonconn0" cx="6.13543" cy="6.13543" r="4.53543" stroke="black"  fill="black"/>
    </g>
   </g>
  </g>
  <g partID="365120">
   <g transform="translate(151.349,255.776)">
    <g transform="matrix(0,-1,1,0,0,0)">
     <g id="copper0" >
      <g id="copper1" >
       <circle stroke-width="1.13384" id="connector1pad" cx="8.7872" stroke="black" cy="10.6336" r="1.7008"  fill="none"/>
       <rect stroke-width="1.13384" height="3.4016" x="7.0864" y="8.9328" stroke="black"  fill="none" width="3.4016"/>
       <circle stroke-width="1.13384" id="connector0pad" cx="8.7872" stroke="black" cy="3.5464" r="1.7008"  fill="none"/>
      </g>
     </g>
    </g>
   </g>
  </g>
  <g partID="313480">
   <line y2="116.401" stroke-width="3.456" stroke-linecap="round" y1="122.772" x2="82.159" stroke="black" x1="73.6638"/>
  </g>
  <g partID="313390">
   <line y2="122.772" stroke-width="3.456" stroke-linecap="round" y1="127.15" x2="73.6638" stroke="black" x1="73.6327"/>
  </g>
  <g partID="313430">
   <line y2="114.62" stroke-width="3.456" stroke-linecap="round" y1="116.401" x2="181.691" stroke="black" x1="82.159"/>
  </g>
  <g partID="313760">
   <line y2="121.848" stroke-width="3.456" stroke-linecap="round" y1="122.543" x2="181.692" stroke="black" x1="163.924"/>
  </g>
  <g partID="313710">
   <line y2="122.543" stroke-width="3.456" stroke-linecap="round" y1="139.399" x2="163.924" stroke="black" x1="146.962"/>
  </g>
  <g partID="313640">
   <line y2="139.399" stroke-width="3.456" stroke-linecap="round" y1="139.232" x2="146.962" stroke="black" x1="82.69"/>
  </g>
  <g partID="313590">
   <line y2="139.232" stroke-width="3.456" stroke-linecap="round" y1="145.603" x2="82.69" stroke="black" x1="74.1947"/>
  </g>
  <g partID="313550">
   <line y2="145.603" stroke-width="3.456" stroke-linecap="round" y1="150.451" x2="74.1947" stroke="black" x1="73.9352"/>
  </g>
  <g partID="314420">
   <line y2="129.046" stroke-width="3.456" stroke-linecap="round" y1="129.627" x2="181.692" stroke="black" x1="166.385"/>
  </g>
  <g partID="314370">
   <line y2="129.627" stroke-width="3.456" stroke-linecap="round" y1="196.513" x2="166.385" stroke="black" x1="100.042"/>
  </g>
  <g partID="314330">
   <line y2="196.513" stroke-width="3.456" stroke-linecap="round" y1="196.282" x2="100.042" stroke="black" x1="90.1971"/>
  </g>
  <g partID="314990">
   <line y2="245.417" stroke-width="3.456" stroke-linecap="round" y1="245.414" x2="89.3631" stroke="black" x1="96.2783"/>
  </g>
  <g partID="315060">
   <line y2="245.414" stroke-width="3.456" stroke-linecap="round" y1="137.047" x2="96.2783" stroke="black" x1="167.209"/>
  </g>
  <g partID="314950">
   <line y2="137.047" stroke-width="3.456" stroke-linecap="round" y1="136.267" x2="167.209" stroke="black" x1="181.693"/>
  </g>
  <g partID="317010">
   <line y2="227.227" stroke-width="3.456" stroke-linecap="round" y1="197.447" x2="13.1837" stroke="black" x1="13.6031"/>
  </g>
  <g partID="317450">
   <line y2="194.927" stroke-width="3.456" stroke-linecap="round" y1="129.684" x2="13.6298" stroke="black" x1="14.0941"/>
  </g>
  <g partID="318640">
   <line y2="269.139" stroke-width="3.456" stroke-linecap="round" y1="268.613" x2="80.5006" stroke="black" x1="49.5121"/>
  </g>
  <g partID="318250">
   <line y2="268.613" stroke-width="3.456" stroke-linecap="round" y1="237.765" x2="49.5121" stroke="black" x1="13.2777"/>
  </g>
  <g partID="317870">
   <line y2="237.765" stroke-width="3.456" stroke-linecap="round" y1="229.746" x2="13.2777" stroke="black" x1="13.1811"/>
  </g>
  <g partID="319390">
   <line y2="127.167" stroke-width="3.456" stroke-linecap="round" y1="121.104" x2="14.1855" stroke="black" x1="14.5834"/>
  </g>
  <g partID="319760">
   <line y2="121.104" stroke-width="3.456" stroke-linecap="round" y1="70.9034" x2="14.5834" stroke="black" x1="29.4125"/>
  </g>
  <g partID="319030">
   <line y2="70.9034" stroke-width="3.456" stroke-linecap="round" y1="70.5381" x2="29.4125" stroke="black" x1="116.88"/>
  </g>
  <g partID="320490">
   <line y2="71.3902" stroke-width="3.456" stroke-linecap="round" y1="107.913" x2="119.313" stroke="black" x1="164.685"/>
  </g>
  <g partID="320150">
   <line y2="107.913" stroke-width="3.456" stroke-linecap="round" y1="107.434" x2="164.685" stroke="black" x1="181.692"/>
  </g>
  <g partID="329860">
   <line y2="84.5012" stroke-width="3.456" stroke-linecap="round" y1="74.2538" x2="226.176" stroke="black" x1="226.09"/>
  </g>
  <g partID="321590">
   <line y2="74.2538" stroke-width="3.456" stroke-linecap="round" y1="63.2771" x2="226.09" stroke="black" x1="195.284"/>
  </g>
  <g partID="321190">
   <line y2="63.2771" stroke-width="3.456" stroke-linecap="round" y1="63.3314" x2="195.284" stroke="black" x1="119.616"/>
  </g>
  <g partID="321680">
   <line y2="228.487" stroke-width="3.456" stroke-linecap="round" y1="228.492" x2="43.226" stroke="black" x1="51.0048"/>
  </g>
  <g partID="321710">
   <line y2="228.492" stroke-width="3.456" stroke-linecap="round" y1="245.258" x2="51.0048" stroke="black" x1="77.0199"/>
  </g>
  <g partID="321660">
   <line y2="245.258" stroke-width="3.456" stroke-linecap="round" y1="245.396" x2="77.0199" stroke="black" x1="86.4832"/>
  </g>
  <g partID="321760">
   <line y2="196.189" stroke-width="3.456" stroke-linecap="round" y1="196.246" x2="43.6808" stroke="black" x1="87.3175"/>
  </g>
  <g partID="321960">
   <line y2="152.364" stroke-width="3.456" stroke-linecap="round" y1="152.323" x2="43.93" stroke="black" x1="71.9631"/>
  </g>
  <g partID="321980">
   <line y2="128.449" stroke-width="3.456" stroke-linecap="round" y1="128.986" x2="44.1628" stroke="black" x1="71.7478"/>
  </g>
  <g partID="323010">
   <line y2="195.245" stroke-width="3.456" stroke-linecap="round" y1="217.618" x2="137.849" stroke="black" x1="137.153"/>
  </g>
  <g partID="323090">
   <line y2="150.638" stroke-width="3.456" stroke-linecap="round" y1="151.124" x2="181.692" stroke="black" x1="166.05"/>
  </g>
  <g partID="323180">
   <line y2="151.124" stroke-width="3.456" stroke-linecap="round" y1="195.245" x2="166.05" stroke="black" x1="137.849"/>
  </g>
  <g partID="367560">
   <line y2="209.365" stroke-width="3.456" stroke-linecap="round" y1="211.989" x2="182.698" stroke="black" x1="260.107"/>
  </g>
  <g partID="330740">
   <line y2="211.989" stroke-width="3.456" stroke-linecap="round" y1="227.877" x2="260.107" stroke="black" x1="270.911"/>
  </g>
  <g partID="330710">
   <line y2="187.893" stroke-width="3.456" stroke-linecap="round" y1="209.365" x2="182.971" stroke="black" x1="182.698"/>
  </g>
  <g partID="330690">
   <line y2="227.877" stroke-width="3.456" stroke-linecap="round" y1="241.749" x2="270.911" stroke="black" x1="271.358"/>
  </g>
  <g partID="330880">
   <line y2="203.727" stroke-width="3.456" stroke-linecap="round" y1="164.317" x2="288.07" stroke="black" x1="297.766"/>
  </g>
  <g partID="335460">
   <line y2="143.472" stroke-width="3.456" stroke-linecap="round" y1="143.767" x2="184.281" stroke="black" x1="189.425"/>
  </g>
  <g partID="330850">
   <line y2="202.559" stroke-width="3.456" stroke-linecap="round" y1="203.727" x2="194.737" stroke="black" x1="288.07"/>
  </g>
  <g partID="330820">
   <line y2="150.344" stroke-width="3.456" stroke-linecap="round" y1="202.559" x2="194.648" stroke="black" x1="194.737"/>
  </g>
  <g partID="330790">
   <line y2="143.767" stroke-width="3.456" stroke-linecap="round" y1="150.344" x2="189.425" stroke="black" x1="194.648"/>
  </g>
  <g partID="330770">
   <line y2="164.317" stroke-width="3.456" stroke-linecap="round" y1="156.999" x2="297.766" stroke="black" x1="297.52"/>
  </g>
  <g partID="331030">
   <line y2="107.832" stroke-width="3.456" stroke-linecap="round" y1="148.713" x2="234.846" stroke="black" x1="312.313"/>
  </g>
  <g partID="330980">
   <line y2="107.462" stroke-width="3.456" stroke-linecap="round" y1="107.832" x2="227.482" stroke="black" x1="234.846"/>
  </g>
  <g partID="330940">
   <line y2="148.713" stroke-width="3.456" stroke-linecap="round" y1="153.878" x2="312.313" stroke="black" x1="311.971"/>
  </g>
  <g partID="331690">
   <line y2="134.627" stroke-width="3.456" stroke-linecap="round" y1="85.4825" x2="326.706" stroke="black" x1="235.091"/>
  </g>
  <g partID="331440">
   <line y2="85.4825" stroke-width="3.456" stroke-linecap="round" y1="85.7514" x2="235.091" stroke="black" x1="227.482"/>
  </g>
  <g partID="331640">
   <line y2="197.373" stroke-width="3.456" stroke-linecap="round" y1="134.627" x2="326.756" stroke="black" x1="326.706"/>
  </g>
  <g partID="331880">
   <line y2="257.91" stroke-width="3.456" stroke-linecap="round" y1="169.213" x2="282.623" stroke="black" x1="311.477"/>
  </g>
  <g partID="331910">
   <line y2="257.564" stroke-width="3.456" stroke-linecap="round" y1="257.91" x2="272.77" stroke="black" x1="282.623"/>
  </g>
  <g partID="331860">
   <line y2="169.213" stroke-width="3.456" stroke-linecap="round" y1="156.999" x2="311.477" stroke="black" x1="311.823"/>
  </g>
  <g partID="335150">
   <line y2="255.926" stroke-width="3.456" stroke-linecap="round" y1="264.535" x2="259.346" stroke="black" x1="259.477"/>
  </g>
  <g partID="332830">
   <line y2="250.892" stroke-width="3.456" stroke-linecap="round" y1="255.926" x2="265.051" stroke="black" x1="259.346"/>
  </g>
  <g partID="333280">
   <line y2="250.44" stroke-width="3.456" stroke-linecap="round" y1="250.892" x2="270.04" stroke="black" x1="265.051"/>
  </g>
  <g partID="332240">
   <line y2="264.535" stroke-width="3.456" stroke-linecap="round" y1="269.632" x2="259.477" stroke="black" x1="264.998"/>
  </g>
  <g partID="331940">
   <line y2="269.632" stroke-width="3.456" stroke-linecap="round" y1="270.014" x2="264.998" stroke="black" x1="300.544"/>
  </g>
  <g partID="333800">
   <line y2="241.223" stroke-width="3.456" stroke-linecap="round" y1="215.087" x2="302.687" stroke="black" x1="310.378"/>
  </g>
  <g partID="333770">
   <line y2="250.757" stroke-width="3.456" stroke-linecap="round" y1="241.223" x2="302.055" stroke="black" x1="302.687"/>
  </g>
  <g partID="333730">
   <line y2="215.087" stroke-width="3.456" stroke-linecap="round" y1="214.892" x2="310.378" stroke="black" x1="324.396"/>
  </g>
  <g partID="335610">
   <line y2="139.929" stroke-width="3.456" stroke-linecap="round" y1="129.443" x2="516.525" stroke="black" x1="492.977"/>
  </g>
  <g partID="335580">
   <line y2="129.443" stroke-width="3.456" stroke-linecap="round" y1="129.818" x2="492.977" stroke="black" x1="341.51"/>
  </g>
  <g partID="335640">
   <line y2="145.459" stroke-width="3.456" stroke-linecap="round" y1="139.929" x2="516.227" stroke="black" x1="516.525"/>
  </g>
  <g partID="335550">
   <line y2="129.818" stroke-width="3.456" stroke-linecap="round" y1="144.573" x2="341.51" stroke="black" x1="326.923"/>
  </g>
  <g partID="335530">
   <line y2="144.573" stroke-width="3.456" stroke-linecap="round" y1="197.373" x2="326.923" stroke="black" x1="326.765"/>
  </g>
  <g partID="342760">
   <line y2="156.254" stroke-width="3.456" stroke-linecap="round" y1="161.959" x2="410.029" stroke="black" x1="403.988"/>
  </g>
  <g partID="340580">
   <line y2="218.653" stroke-width="3.456" stroke-linecap="round" y1="217.987" x2="471.665" stroke="black" x1="463.069"/>
  </g>
  <g partID="342090">
   <line y2="217.987" stroke-width="3.456" stroke-linecap="round" y1="156.589" x2="463.069" stroke="black" x1="444.595"/>
  </g>
  <g partID="340530">
   <line y2="156.589" stroke-width="3.456" stroke-linecap="round" y1="156.254" x2="444.595" stroke="black" x1="410.029"/>
  </g>
  <g partID="340490">
   <line y2="161.959" stroke-width="3.456" stroke-linecap="round" y1="166.019" x2="403.988" stroke="black" x1="403.865"/>
  </g>
  <g partID="342850">
   <line y2="161.876" stroke-width="3.456" stroke-linecap="round" y1="144.519" x2="404.184" stroke="black" x1="392.238"/>
  </g>
  <g partID="342870">
   <line y2="166.022" stroke-width="3.456" stroke-linecap="round" y1="161.876" x2="403.915" stroke="black" x1="404.184"/>
  </g>
  <g partID="345230">
   <line y2="237.141" stroke-width="3.456" stroke-linecap="round" y1="194.948" x2="363.226" stroke="black" x1="362.895"/>
  </g>
  <g partID="345510">
   <line y2="192.428" stroke-width="3.456" stroke-linecap="round" y1="144.741" x2="362.881" stroke="black" x1="362.728"/>
  </g>
  <g partID="351720">
   <line y2="265.913" stroke-width="3.456" stroke-linecap="round" y1="228.537" x2="452.111" stroke="black" x1="439.111"/>
  </g>
  <g partID="351670">
   <line y2="228.537" stroke-width="3.456" stroke-linecap="round" y1="222.455" x2="439.111" stroke="black" x1="414.953"/>
  </g>
  <g partID="351600">
   <line y2="265.913" stroke-width="3.456" stroke-linecap="round" y1="265.913" x2="495.226" stroke="black" x1="452.111"/>
  </g>
  <g partID="351500">
   <line y2="240.306" stroke-width="3.456" stroke-linecap="round" y1="239.978" x2="514.862" stroke="black" x1="505.753"/>
  </g>
  <g partID="351460">
   <line y2="222.455" stroke-width="3.456" stroke-linecap="round" y1="213.787" x2="414.953" stroke="black" x1="414.619"/>
  </g>
  <g partID="351550">
   <line y2="239.978" stroke-width="3.456" stroke-linecap="round" y1="265.913" x2="505.753" stroke="black" x1="495.226"/>
  </g>
  <g partID="351890">
   <line y2="168.894" stroke-width="3.456" stroke-linecap="round" y1="203.335" x2="411.644" stroke="black" x1="414.484"/>
  </g>
  <g partID="351870">
   <line y2="203.335" stroke-width="3.456" stroke-linecap="round" y1="210.908" x2="414.484" stroke="black" x1="414.551"/>
  </g>
  <g partID="353010">
   <line y2="247.459" stroke-width="3.456" stroke-linecap="round" y1="246.992" x2="517.449" stroke="black" x1="523.902"/>
  </g>
  <g partID="353040">
   <line y2="246.992" stroke-width="3.456" stroke-linecap="round" y1="201.684" x2="523.902" stroke="black" x1="543.158"/>
  </g>
  <g partID="352990">
   <line y2="201.684" stroke-width="3.456" stroke-linecap="round" y1="192.241" x2="543.158" stroke="black" x1="543.364"/>
  </g>
  <g partID="353440">
   <line y2="154.121" stroke-width="3.456" stroke-linecap="round" y1="182.999" x2="525.746" stroke="black" x1="558.021"/>
  </g>
  <g partID="353070">
   <line y2="182.999" stroke-width="3.456" stroke-linecap="round" y1="189.506" x2="558.021" stroke="black" x1="557.833"/>
  </g>
  <g partID="353250">
   <line y2="153.976" stroke-width="3.456" stroke-linecap="round" y1="154.121" x2="517.453" stroke="black" x1="525.746"/>
  </g>
  <g partID="353680">
   <line y2="168.56" stroke-width="3.456" stroke-linecap="round" y1="185.115" x2="531.692" stroke="black" x1="550.644"/>
  </g>
  <g partID="353650">
   <line y2="168.37" stroke-width="3.456" stroke-linecap="round" y1="168.56" x2="517.453" stroke="black" x1="531.692"/>
  </g>
  <g partID="353630">
   <line y2="185.115" stroke-width="3.456" stroke-linecap="round" y1="189.506" x2="550.644" stroke="black" x1="550.605"/>
  </g>
  <g partID="353710">
   <line y2="238.55" stroke-width="3.456" stroke-linecap="round" y1="238.42" x2="353.217" stroke="black" x1="361.976"/>
  </g>
  <g partID="354350">
   <line y2="269.833" stroke-width="3.456" stroke-linecap="round" y1="238.55" x2="326.176" stroke="black" x1="353.217"/>
  </g>
  <g partID="354180">
   <line y2="270.018" stroke-width="3.456" stroke-linecap="round" y1="269.833" x2="303.378" stroke="black" x1="326.176"/>
  </g>
  <g partID="364920">
   <line y2="219.365" stroke-width="3.456" stroke-linecap="round" y1="219.038" x2="127.242" stroke="black" x1="135.743"/>
  </g>
  <g partID="364940">
   <line y2="267.9" stroke-width="3.456" stroke-linecap="round" y1="244.06" x2="110.583" stroke="black" x1="111.014"/>
  </g>
  <g partID="364970">
   <line y2="244.06" stroke-width="3.456" stroke-linecap="round" y1="219.365" x2="111.014" stroke="black" x1="127.242"/>
  </g>
 </g>
</svg>
