<?xml version='1.0' encoding='UTF-8' standalone='no'?>
<!-- Created with Fritzing (http://www.fritzing.org/) -->
<svg xmlns="http://www.w3.org/2000/svg" baseProfile="tiny" xmlns:svg="http://www.w3.org/2000/svg" width="7.87402in" height="3.93701in" viewBox="0 0 566.929 283.465" version="1.2"  x="0in" y="0in">
 <g transform="matrix(-1, 0, 0, 1, 566.929, 0)">
  <g partID="57661">
   <g transform="translate(566.929,283.465)">
    <g transform="matrix(-1,0,0,-1,0,0)">
     <g id="silkscreen0">
      <rect fill="none" width="566.354" height="282.889" stroke-width="0.576" stroke="black" x="0.288" y="0.288"/>
     </g>
    </g>
   </g>
  </g>
  <g partID="57660">
   <g transform="translate(566.929,283.465)">
    <g transform="matrix(-1,0,0,-1,0,0)">
     <g id="board">
      <rect fill="none" width="566.354" height="282.889" stroke-width="0.5" id="boardoutline" fill-opacity="0.5" stroke="black" x="0.288" y="0.288"/>
     </g>
    </g>
   </g>
  </g>
  <g partID="246852">
   <g transform="translate(562.834,185.833)">
    <g transform="matrix(0,1,-1,0,0,0)">
     <g flipped="1" id="silkscreen0">
      <g transform="matrix(-1, 0, 0, 1, 10.08, 0)">
       <g>
        <g>
         <g>
          <line y2="23.04" y1="1.44" stroke-width="0.72" x1="1.44" stroke="black" x2="1.44"/>
          <line y2="23.04" y1="23.04" stroke-width="0.72" x1="1.44" stroke="black" x2="8.64"/>
          <line y2="1.44" y1="23.04" stroke-width="0.72" x1="8.64" stroke="black" x2="8.64"/>
          <line y2="1.44" y1="1.44" stroke-width="0.72" x1="8.64" stroke="black" x2="1.44"/>
          <line y2="1.44" y1="3.96" stroke-width="0.36" x1="1.44" stroke="black" x2="3.96"/>
          <!-- 120 -->
         </g>
        </g>
       </g>
      </g>
     </g>
    </g>
   </g>
  </g>
  <g partID="57661">
   <g transform="translate(566.929,283.465)">
    <g transform="matrix(-1,0,0,-1,0,0)">
     <g id="silkscreen0">
      <rect fill="none" width="566.354" height="282.889" stroke-width="0.576" stroke="black" x="0.288" y="0.288"/>
     </g>
    </g>
   </g>
  </g>
  <g partID="246850" id="partLabel">
   <g transform="translate(533.821,180.306)">
    <g transform="matrix(1,0,0,1,0,0)">
     <g font-family="'OCRA'" font-size="5" fill="#000000" font-weight="normal" id="silkscreen0Label" fill-opacity="1" stroke="none" font-style="normal">
      <text x="0" y="3.75">sweepServo</text>
     </g>
    </g>
   </g>
  </g>
  <g partID="365120">
   <g transform="translate(151.349,255.775)">
    <g transform="matrix(0,-1,1,0,0,0)">
     <g id="copper0">
      <g id="copper1">
       <circle fill="white" cy="10.6336" r="1.7008" cx="8.7872" stroke-width="1.85384" id="connector1pad" stroke="white"/>
       <rect fill="white" width="3.4016" height="3.4016" stroke-width="1.85384" stroke="white" x="7.0864" y="8.9328"/>
       <circle fill="white" cy="3.5464" r="1.7008" cx="8.7872" stroke-width="1.85384" id="connector0pad" stroke="white"/>
      </g>
     </g>
    </g>
   </g>
  </g>
  <g partID="213900">
   <g transform="translate(308.916,194.226)">
    <g transform="matrix(1, 0, 0, 1, 0.54, -104.076)">
     <g id="copper0">
      <g gorn="0.3.0.0.0">
       <g gorn="0.3.0.0.0.0" id="copper1">
        <circle style="fill-rule:evenodd;stroke-linecap:butt;stroke-linejoin:miter;stroke-miterlimit:4;stroke-dasharray:none;" fill="white" gorn="0.3.0.0.0.0.0" r="3.8016" cy="124.709" cx="17.3016" stroke-width="3.6" id="connector0pin" fill-opacity="1" stroke="white" stroke-opacity="1"/>
        <circle style="fill-rule:evenodd;stroke-linecap:butt;stroke-linejoin:miter;stroke-miterlimit:4;stroke-dasharray:none;" fill="white" gorn="0.3.0.0.0.0.1" r="3.8016" cy="109.584" cx="17.3016" stroke-width="3.6" id="connector1pin" fill-opacity="1" stroke="white" stroke-opacity="1"/>
       </g>
      </g>
     </g>
    </g>
   </g>
  </g>
  <g partID="246850">
   <g transform="translate(562.834,185.833)">
    <g transform="matrix(0,1,-1,0,0,0)">
     <g flipped="1" id="copper0">
      <g transform="matrix(-1, 0, 0, 1, 10.08, 0)">
       <g>
        <g>
         <g>
          <g id="copper0">
           <rect fill="white" height="4.176" width="4.176" stroke-width="2.16" id="square" stroke="white" x="2.952" y="2.952"/>
           <circle fill="white" cy="5.04" r="2.088" cx="5.04" stroke-width="2.16" id="connector0pin" stroke="white"/>
           <circle fill="white" cy="12.24" r="2.088" cx="5.04" stroke-width="2.16" id="connector1pin" stroke="white"/>
           <circle fill="white" cy="19.44" r="2.088" cx="5.04" stroke-width="2.16" id="connector2pin" stroke="white"/>
          </g>
         </g>
         <g>
          <rect fill="white" height="4.176" width="4.176" stroke-width="2.16" id="square" stroke="white" x="2.952" y="2.952"/>
          <circle fill="white" cy="5.04" r="2.088" cx="5.04" stroke-width="2.16" id="connector0pin" stroke="white"/>
          <circle fill="white" cy="12.24" r="2.088" cx="5.04" stroke-width="2.16" id="connector1pin" stroke="white"/>
          <circle fill="white" cy="19.44" r="2.088" cx="5.04" stroke-width="2.16" id="connector2pin" stroke="white"/>
         </g>
        </g>
       </g>
      </g>
     </g>
    </g>
   </g>
  </g>
  <g partID="186240">
   <g transform="translate(70.5235,149.008)">
    <g id="copper0">
     <rect fill="white" height="5.184" width="5.184" stroke-width="2.16" id="rect20" stroke="white" x="0.72" y="0.72"/>
     <circle fill="white" cy="3.312" r="2.592" cx="3.312" stroke-width="2.16" id="connector0pin" stroke="white"/>
     <circle fill="white" cy="3.312" r="2.592" cx="24.912" stroke-width="2.16" id="connector1pin" stroke="white"/>
    </g>
   </g>
  </g>
  <g partID="184470">
   <g transform="translate(70.3075,125.71)">
    <g id="copper0">
     <rect fill="white" height="5.184" width="5.184" stroke-width="2.16" id="rect20" stroke="white" x="0.72" y="0.72"/>
     <circle fill="white" cy="3.312" r="2.592" cx="3.312" stroke-width="2.16" id="connector0pin" stroke="white"/>
     <circle fill="white" cy="3.312" r="2.592" cx="24.912" stroke-width="2.16" id="connector1pin" stroke="white"/>
    </g>
   </g>
  </g>
  <g partID="240650">
   <g transform="translate(469.357,135.953)">
    <g id="copper0">
     <circle fill="white" cy="10.8" r="1.908" cx="3.6" stroke-width="1.944" id="connector16pad" stroke="white"/>
     <rect fill="white" width="3.814" height="3.816" stroke-width="1.944" stroke="white" x="1.692" y="8.892"/>
     <circle fill="white" cy="18" r="1.908" cx="3.6" stroke-width="1.944" id="connector17pad" stroke="white"/>
     <circle fill="white" cy="25.2" r="1.908" cx="3.6" stroke-width="1.944" id="connector18pad" stroke="white"/>
     <circle fill="white" cy="32.4" r="1.908" cx="3.6" stroke-width="1.944" id="connector19pad" stroke="white"/>
     <circle fill="white" cy="39.6" r="1.908" cx="3.6" stroke-width="1.944" id="connector20pad" stroke="white"/>
     <circle fill="white" cy="46.8" r="1.908" cx="3.6" stroke-width="1.944" id="connector21pad" stroke="white"/>
     <circle fill="white" cy="54" r="1.908" cx="3.6" stroke-width="1.944" id="connector22pad" stroke="white"/>
     <circle fill="white" cy="61.2" r="1.908" cx="3.6" stroke-width="1.944" id="connector23pad" stroke="white"/>
     <circle fill="white" cy="68.4" r="1.908" cx="3.6" stroke-width="1.944" id="connector24pad" stroke="white"/>
     <circle fill="white" cy="75.6" r="1.908" cx="3.6" stroke-width="1.944" id="connector25pad" stroke="white"/>
     <circle fill="white" cy="82.8" r="1.908" cx="3.6" stroke-width="1.944" id="connector26pad" stroke="white"/>
     <circle fill="white" cy="90" r="1.908" cx="3.6" stroke-width="1.944" id="connector27pad" stroke="white"/>
     <circle fill="white" cy="97.2" r="1.908" cx="3.6" stroke-width="1.944" id="connector28pad" stroke="white"/>
     <circle fill="white" cy="104.4" r="1.908" cx="3.6" stroke-width="1.944" id="connector29pad" stroke="white"/>
     <circle fill="white" cy="111.6" r="1.908" cx="3.6" stroke-width="1.944" id="connector30pad" stroke="white"/>
     <circle fill="white" cy="10.8" r="1.908" cx="46.8" stroke-width="1.944" id="connector31pad" stroke="white"/>
     <circle fill="white" cy="18" r="1.908" cx="46.8" stroke-width="1.944" id="connector32pad" stroke="white"/>
     <circle fill="white" cy="25.2" r="1.908" cx="46.8" stroke-width="1.944" id="connector33pad" stroke="white"/>
     <circle fill="white" cy="32.4" r="1.908" cx="46.8" stroke-width="1.944" id="connector34pad" stroke="white"/>
     <circle fill="white" cy="39.6" r="1.908" cx="46.8" stroke-width="1.944" id="connector35pad" stroke="white"/>
     <circle fill="white" cy="46.8" r="1.908" cx="46.8" stroke-width="1.944" id="connector36pad" stroke="white"/>
     <circle fill="white" cy="54" r="1.908" cx="46.8" stroke-width="1.944" id="connector37pad" stroke="white"/>
     <circle fill="white" cy="61.2" r="1.908" cx="46.8" stroke-width="1.944" id="connector38pad" stroke="white"/>
     <circle fill="white" cy="68.4" r="1.908" cx="46.8" stroke-width="1.944" id="connector39pad" stroke="white"/>
     <circle fill="white" cy="75.6" r="1.908" cx="46.8" stroke-width="1.944" id="connector40pad" stroke="white"/>
     <circle fill="white" cy="82.8" r="1.908" cx="46.8" stroke-width="1.944" id="connector41pad" stroke="white"/>
     <circle fill="white" cy="90" r="1.908" cx="46.8" stroke-width="1.944" id="connector42pad" stroke="white"/>
     <circle fill="white" cy="97.2" r="1.908" cx="46.8" stroke-width="1.944" id="connector43pad" stroke="white"/>
     <circle fill="white" cy="104.4" r="1.908" cx="46.8" stroke-width="1.944" id="connector44pad" stroke="white"/>
     <circle fill="white" cy="111.6" r="1.908" cx="46.8" stroke-width="1.944" id="connector45pad" stroke="white"/>
    </g>
   </g>
  </g>
  <g partID="68100">
   <g transform="translate(179.388,74.9966)">
    <g id="copper0">
     <circle fill="white" cy="10.8" r="1.908" cx="3.6" stroke-width="1.944" id="connector16pad" stroke="white"/>
     <rect fill="white" width="3.814" height="3.816" stroke-width="1.944" stroke="white" x="1.692" y="8.892"/>
     <circle fill="white" cy="18" r="1.908" cx="3.6" stroke-width="1.944" id="connector17pad" stroke="white"/>
     <circle fill="white" cy="25.2" r="1.908" cx="3.6" stroke-width="1.944" id="connector18pad" stroke="white"/>
     <circle fill="white" cy="32.4" r="1.908" cx="3.6" stroke-width="1.944" id="connector19pad" stroke="white"/>
     <circle fill="white" cy="39.6" r="1.908" cx="3.6" stroke-width="1.944" id="connector20pad" stroke="white"/>
     <circle fill="white" cy="46.8" r="1.908" cx="3.6" stroke-width="1.944" id="connector21pad" stroke="white"/>
     <circle fill="white" cy="54" r="1.908" cx="3.6" stroke-width="1.944" id="connector22pad" stroke="white"/>
     <circle fill="white" cy="61.2" r="1.908" cx="3.6" stroke-width="1.944" id="connector23pad" stroke="white"/>
     <circle fill="white" cy="68.4" r="1.908" cx="3.6" stroke-width="1.944" id="connector24pad" stroke="white"/>
     <circle fill="white" cy="75.6" r="1.908" cx="3.6" stroke-width="1.944" id="connector25pad" stroke="white"/>
     <circle fill="white" cy="82.8" r="1.908" cx="3.6" stroke-width="1.944" id="connector26pad" stroke="white"/>
     <circle fill="white" cy="90" r="1.908" cx="3.6" stroke-width="1.944" id="connector27pad" stroke="white"/>
     <circle fill="white" cy="97.2" r="1.908" cx="3.6" stroke-width="1.944" id="connector28pad" stroke="white"/>
     <circle fill="white" cy="104.4" r="1.908" cx="3.6" stroke-width="1.944" id="connector29pad" stroke="white"/>
     <circle fill="white" cy="111.6" r="1.908" cx="3.6" stroke-width="1.944" id="connector30pad" stroke="white"/>
     <circle fill="white" cy="10.8" r="1.908" cx="46.8" stroke-width="1.944" id="connector31pad" stroke="white"/>
     <circle fill="white" cy="18" r="1.908" cx="46.8" stroke-width="1.944" id="connector32pad" stroke="white"/>
     <circle fill="white" cy="25.2" r="1.908" cx="46.8" stroke-width="1.944" id="connector33pad" stroke="white"/>
     <circle fill="white" cy="32.4" r="1.908" cx="46.8" stroke-width="1.944" id="connector34pad" stroke="white"/>
     <circle fill="white" cy="39.6" r="1.908" cx="46.8" stroke-width="1.944" id="connector35pad" stroke="white"/>
     <circle fill="white" cy="46.8" r="1.908" cx="46.8" stroke-width="1.944" id="connector36pad" stroke="white"/>
     <circle fill="white" cy="54" r="1.908" cx="46.8" stroke-width="1.944" id="connector37pad" stroke="white"/>
     <circle fill="white" cy="61.2" r="1.908" cx="46.8" stroke-width="1.944" id="connector38pad" stroke="white"/>
     <circle fill="white" cy="68.4" r="1.908" cx="46.8" stroke-width="1.944" id="connector39pad" stroke="white"/>
     <circle fill="white" cy="75.6" r="1.908" cx="46.8" stroke-width="1.944" id="connector40pad" stroke="white"/>
     <circle fill="white" cy="82.8" r="1.908" cx="46.8" stroke-width="1.944" id="connector41pad" stroke="white"/>
     <circle fill="white" cy="90" r="1.908" cx="46.8" stroke-width="1.944" id="connector42pad" stroke="white"/>
     <circle fill="white" cy="97.2" r="1.908" cx="46.8" stroke-width="1.944" id="connector43pad" stroke="white"/>
     <circle fill="white" cy="104.4" r="1.908" cx="46.8" stroke-width="1.944" id="connector44pad" stroke="white"/>
     <circle fill="white" cy="111.6" r="1.908" cx="46.8" stroke-width="1.944" id="connector45pad" stroke="white"/>
    </g>
   </g>
  </g>
  <g partID="100560">
   <g transform="translate(10.4659,225.39)">
    <g id="copper0">
     <g id="copper1">
      <!-- <rect width="55" x="10" y="15.5" fill="none" height="55" stroke="rgb(255, 191, 0)" stroke-width="20" />  -->
      <circle fill="white" cy="3.096" r="1.98" cx="2.7" stroke-width="2.16" id="connector0pin" stroke="white"/>
      <circle fill="white" cy="3.096" r="1.98" cx="31.5" stroke-width="2.16" id="connector1pin" stroke="white"/>
     </g>
    </g>
   </g>
  </g>
  <g partID="87830">
   <g transform="translate(11.1707,149.269)">
    <g id="copper0">
     <g id="copper1">
      <!-- <rect width="55" x="10" y="15.5" fill="none" height="55" stroke="rgb(255, 191, 0)" stroke-width="20" />  -->
      <circle fill="white" cy="3.096" r="1.98" cx="2.7" stroke-width="2.16" id="connector0pin" stroke="white"/>
      <circle fill="white" cy="3.096" r="1.98" cx="31.5" stroke-width="2.16" id="connector1pin" stroke="white"/>
     </g>
    </g>
   </g>
  </g>
  <g partID="75390">
   <g transform="translate(11.4035,125.328)">
    <g id="copper0">
     <g id="copper1">
      <!-- <rect width="55" x="10" y="15.5" fill="none" height="55" stroke="rgb(255, 191, 0)" stroke-width="20" />  -->
      <circle fill="white" cy="3.096" r="1.98" cx="2.7" stroke-width="2.16" id="connector0pin" stroke="white"/>
      <circle fill="white" cy="3.096" r="1.98" cx="31.5" stroke-width="2.16" id="connector1pin" stroke="white"/>
     </g>
    </g>
   </g>
  </g>
  <g partID="75780">
   <g transform="translate(10.9211,193.091)">
    <g id="copper0">
     <g id="copper1">
      <!-- <rect width="55" x="10" y="15.5" fill="none" height="55" stroke="rgb(255, 191, 0)" stroke-width="20" />  -->
      <circle fill="white" cy="3.096" r="1.98" cx="2.7" stroke-width="2.16" id="connector0pin" stroke="white"/>
      <circle fill="white" cy="3.096" r="1.98" cx="31.5" stroke-width="2.16" id="connector1pin" stroke="white"/>
     </g>
    </g>
   </g>
  </g>
  <g partID="259010">
   <g transform="translate(360.185,190.592)">
    <g id="copper0">
     <g id="copper1">
      <!-- <rect width="55" x="10" y="15.5" fill="none" height="55" stroke="rgb(255, 191, 0)" stroke-width="20" />  -->
      <circle fill="white" cy="3.096" r="1.98" cx="2.7" stroke-width="2.16" id="connector0pin" stroke="white"/>
      <circle fill="white" cy="3.096" r="1.98" cx="31.5" stroke-width="2.16" id="connector1pin" stroke="white"/>
     </g>
    </g>
   </g>
  </g>
  <g partID="258990">
   <g transform="translate(360.536,235.305)">
    <g id="copper0">
     <g id="copper1">
      <!-- <rect width="55" x="10" y="15.5" fill="none" height="55" stroke="rgb(255, 191, 0)" stroke-width="20" />  -->
      <circle fill="white" cy="3.096" r="1.98" cx="2.7" stroke-width="2.16" id="connector0pin" stroke="white"/>
      <circle fill="white" cy="3.096" r="1.98" cx="31.5" stroke-width="2.16" id="connector1pin" stroke="white"/>
     </g>
    </g>
   </g>
  </g>
  <g partID="258820">
   <g transform="translate(360.024,140.385)">
    <g id="copper0">
     <g id="copper1">
      <!-- <rect width="55" x="10" y="15.5" fill="none" height="55" stroke="rgb(255, 191, 0)" stroke-width="20" />  -->
      <circle fill="white" cy="3.096" r="1.98" cx="2.7" stroke-width="2.16" id="connector0pin" stroke="white"/>
      <circle fill="white" cy="3.096" r="1.98" cx="31.5" stroke-width="2.16" id="connector1pin" stroke="white"/>
     </g>
    </g>
   </g>
  </g>
  <g partID="78530">
   <g transform="translate(79.0611,266.064)">
    <g id="copper0">
     <g id="copper1">
      <!-- <rect width="55" x="10" y="15.5" fill="none" height="55" stroke="rgb(255, 191, 0)" stroke-width="20" />  -->
      <circle fill="white" cy="3.096" r="1.98" cx="2.7" stroke-width="2.16" id="connector0pin" stroke="white"/>
      <circle fill="white" cy="3.096" r="1.98" cx="31.5" stroke-width="2.16" id="connector1pin" stroke="white"/>
     </g>
    </g>
   </g>
  </g>
  <g partID="247600">
   <g transform="translate(431.336,205.895)">
    <g transform="matrix(0,1,-1,0,0,0)">
     <g id="copper0">
      <circle connectorname="1" fill="white" cy="9.06746" r="2.052" cx="6.45336" stroke-width="1.944" id="connector0pad" stroke="white"/>
      <circle connectorname="2" fill="white" cy="16.7715" r="2.052" cx="6.45336" stroke-width="1.944" id="connector1pad" stroke="white"/>
      <circle connectorname="3" fill="white" cy="24.4755" r="2.052" cx="6.45336" stroke-width="1.944" id="connector2pad" stroke="white"/>
     </g>
    </g>
   </g>
  </g>
  <g partID="247580">
   <g transform="translate(428.298,161.005)">
    <g transform="matrix(0,1,-1,0,0,0)">
     <g id="copper0">
      <circle connectorname="1" fill="white" cy="9.06746" r="2.052" cx="6.45336" stroke-width="1.944" id="connector0pad" stroke="white"/>
      <circle connectorname="2" fill="white" cy="16.7715" r="2.052" cx="6.45336" stroke-width="1.944" id="connector1pad" stroke="white"/>
      <circle connectorname="3" fill="white" cy="24.4755" r="2.052" cx="6.45336" stroke-width="1.944" id="connector2pad" stroke="white"/>
     </g>
    </g>
   </g>
  </g>
  <g partID="75130">
   <g transform="translate(81.4699,220.942)">
    <g id="copper0">
     <circle connectorname="1" fill="white" cy="9.06746" r="2.052" cx="6.45336" stroke-width="1.944" id="connector0pad" stroke="white"/>
     <circle connectorname="2" fill="white" cy="16.7715" r="2.052" cx="6.45336" stroke-width="1.944" id="connector1pad" stroke="white"/>
     <circle connectorname="3" fill="white" cy="24.4755" r="2.052" cx="6.45336" stroke-width="1.944" id="connector2pad" stroke="white"/>
    </g>
   </g>
  </g>
  <g partID="75270">
   <g transform="translate(82.3043,172.276)">
    <g id="copper0">
     <circle connectorname="1" fill="white" cy="9.57146" r="2.052" cx="6.45336" stroke-width="1.944" id="connector0pad" stroke="white"/>
     <circle connectorname="2" fill="white" cy="16.7715" r="2.052" cx="6.45336" stroke-width="1.944" id="connector1pad" stroke="white"/>
     <circle connectorname="3" fill="white" cy="23.9715" r="2.052" cx="6.45336" stroke-width="1.944" id="connector2pad" stroke="white"/>
    </g>
   </g>
  </g>
  <g partID="76740">
   <g transform="translate(132.07,213.945)">
    <g id="copper0">
     <rect fill="white" height="4.176" width="4.176" stroke-width="2.16" id="square" stroke="white" x="2.952" y="2.952"/>
     <circle fill="white" cy="5.04" r="2.088" cx="5.04" stroke-width="2.16" id="connector0pin" stroke="white"/>
     <circle fill="white" cy="12.24" r="2.088" cx="5.04" stroke-width="2.16" id="connector1pin" stroke="white"/>
     <circle fill="white" cy="19.44" r="2.088" cx="5.04" stroke-width="2.16" id="connector2pin" stroke="white"/>
    </g>
   </g>
  </g>
  <g partID="79210">
   <g transform="translate(42.2916,99.695)">
    <g transform="matrix(0,-1,1,0,0,0)">
     <g transform="matrix(1, 0, 0, 1, -2.74415, 0.362573)">
      <g id="copper0">
       <g transform="matrix(1, 0, 0, 1, 18.3175, 7.26522)">
        <g id="control">
         <circle fill="white" gorn="0.2.0.0" r="2.088" cy="10.8026" cx="2.808" stroke-width="2.16" id="connector0pin" stroke="white"/>
         <circle fill="white" gorn="0.2.0.1" r="2.088" cy="18.0026" cx="2.808" stroke-width="2.16" id="connector1pin" stroke="white"/>
         <circle fill="white" gorn="0.2.0.2" r="2.088" cy="25.2026" cx="2.808" stroke-width="2.16" id="connector2pin" stroke="white"/>
         <circle fill="white" gorn="0.2.0.3" r="2.088" cy="32.4026" cx="2.808" stroke-width="2.16" id="connector3pin" stroke="white"/>
        </g>
       </g>
       <g transform="matrix(1, 0, 0, 1, 7.49903, 35.9911)">
        <g id="power">
         <g transform="rotate(-90)">
          <circle fill="white" gorn="0.2.0.4" r="2.088" cy="24.408" cx="-39.6026" stroke-width="2.16" id="connector4pin" stroke="white"/>
         </g>
         <g transform="rotate(-90)">
          <circle fill="white" gorn="0.2.0.5" r="2.088" cy="31.608" cx="-39.6026" stroke-width="2.16" id="connector5pin" stroke="white"/>
         </g>
         <g transform="rotate(-90)">
          <circle fill="white" gorn="0.2.0.6" r="2.088" cy="38.808" cx="-39.6026" stroke-width="2.16" id="connector6pin" stroke="white"/>
         </g>
         <g transform="rotate(-90)">
          <circle fill="white" gorn="0.2.0.7" r="2.088" cy="46.008" cx="-39.6026" stroke-width="2.16" id="connector7pin" stroke="white"/>
         </g>
        </g>
       </g>
       <g transform="matrix(1, 0, 0, 1, 3.94497, 6.85673)">
        <g id="motor">
         <circle fill="white" gorn="0.2.0.8" r="2.088" cy="7.42934" cx="63.9587" stroke-width="2.16" id="connector8pin" stroke="white"/>
         <circle fill="white" gorn="0.2.0.9" r="2.088" cy="14.516" cx="63.9587" stroke-width="2.16" id="connector9pin" stroke="white"/>
         <circle fill="white" gorn="0.2.0.10" r="2.088" cy="21.6026" cx="64.008" stroke-width="2.16" id="connector10pin" stroke="white"/>
         <circle fill="white" gorn="0.2.0.11" r="2.088" cy="28.6892" cx="63.9587" stroke-width="2.16" id="connector11pin" stroke="white"/>
         <circle fill="white" gorn="0.2.0.12" r="2.088" cy="35.7758" cx="63.9587" stroke-width="2.16" id="connector12pin" stroke="white"/>
        </g>
       </g>
      </g>
     </g>
    </g>
   </g>
  </g>
  <g partID="83900">
   <g transform="translate(186.942,230.303)">
    <g gorn="0.4.0" id="copper0">
     <rect fill="white" gorn="0.4.0.0" width="4.176" height="4.176" stroke-width="2.16" id="square" stroke="white" x="82.3725" y="10.7252"/>
     <circle fill="white" gorn="0.4.0.1" r="2.088" cy="12.8132" cx="84.4605" stroke-width="2.16" id="connector0pin" stroke="white"/>
     <circle fill="white" gorn="0.4.0.2" r="2.088" cy="20.0132" cx="84.4605" stroke-width="2.16" id="connector1pin" stroke="white"/>
     <circle fill="white" gorn="0.4.0.3" r="2.088" cy="27.2132" cx="84.4605" stroke-width="2.16" id="connector2pin" stroke="white"/>
    </g>
   </g>
  </g>
  <g partID="84160">
   <g transform="translate(281.041,72.0014)">
    <g gorn="0.2.0" id="copper0">
     <circle fill="white" gorn="0.2.0.0" cy="83.4359" r="2.063" cx="9.228" stroke-width="1.72" id="connector11pad" stroke-miterlimit="10" stroke="white"/>
     <circle fill="white" gorn="0.2.0.1" cy="83.4359" r="2.063" cx="16.427" stroke-width="1.72" id="connector10pad" stroke-miterlimit="10" stroke="white"/>
     <circle fill="white" gorn="0.2.0.2" cy="83.4359" r="2.063" cx="23.627" stroke-width="1.72" id="connector9pad" stroke-miterlimit="10" stroke="white"/>
     <circle fill="white" gorn="0.2.0.3" cy="83.4359" r="2.063" cx="30.827" stroke-width="1.72" id="connector8pad" stroke-miterlimit="10" stroke="white"/>
    </g>
   </g>
  </g>
  <g partID="84190">
   <g transform="translate(368.741,117.705)">
    <g transform="matrix(0,-1,1,0,0,0)">
     <g gorn="0.3.0" id="copper0">
      <circle fill="white" gorn="0.3.0.0" cy="7.82201" r="1.93501" cx="53.3432" stroke-width="1.72" id="connector8pad" stroke-miterlimit="10" stroke="white"/>
      <circle fill="white" gorn="0.3.0.1" cy="7.82201" r="1.93501" cx="60.5442" stroke-width="1.72" id="connector9pad" stroke-miterlimit="10" stroke="white"/>
     </g>
    </g>
   </g>
  </g>
  <g partID="91830">
   <g transform="translate(296.292,249.336)">
    <g id="copper0">
     <circle connectorname="PWR" fill="white" cy="2.83465" r="2.12598" cx="5.66929" stroke-width="2.13732" id="connector2pad" stroke="white"/>
     <path fill="white" stroke-width="0.72" stroke="white" d="m8.50393,0a2.83464,2.83465,0,0,1,2.83464,2.83465l0,0a2.83464,2.83465,0,0,1,-2.83464,2.83465l-5.66929,0a2.83464,2.83465,0,0,1,-2.83464,-2.83465l0,0a2.83464,2.83465,0,0,1,2.83464,-2.83465l5.66929,0zM4.25197,2.83465a1.41732,1.41732,0,1,0,2.83464,0,1.41732,1.41732,0,1,0,-2.83464,0z"/>
     <circle connectorname="GND@1" fill="white" cy="20.6929" r="2.12598" cx="5.66929" stroke-width="2.13732" id="connector0pad" stroke="white"/>
     <path fill="white" stroke-width="0.72" stroke="white" d="m8.50393,17.8583a2.83464,2.83465,0,0,1,2.83464,2.83465l0,0a2.83464,2.83465,0,0,1,-2.83464,2.83465l-5.66929,0a2.83464,2.83465,0,0,1,-2.83464,-2.83465l0,0a2.83464,2.83465,0,0,1,2.83464,-2.83465l5.66929,0zM4.25197,20.6929a1.41732,1.41732,0,1,0,2.83464,0,1.41732,1.41732,0,1,0,-2.83464,0z"/>
     <circle connectorname="GND@2" fill="white" cy="11.3386" r="2.12598" cx="19.8425" stroke-width="2.13732" id="connector1pad" stroke="white"/>
     <path fill="white" stroke-width="0.72" stroke="white" d="m19.8425,5.66929a2.83464,2.83465,0,0,1,2.83464,2.83465l0,5.66929a2.83464,2.83465,0,0,1,-2.83464,2.83465l0,0a2.83464,2.83465,0,0,1,-2.83464,-2.83465l0,-5.66929a2.83464,2.83465,0,0,1,2.83464,-2.83465l0,0zM18.4252,11.3386a1.41732,1.41732,0,1,0,2.83464,0,1.41732,1.41732,0,1,0,-2.83464,0z"/>
    </g>
   </g>
  </g>
  <g partID="177620">
   <g transform="translate(119.619,86.2702)">
    <g id="copper0">
     <circle fill="white" cy="6.13543" r="4.53543" cx="6.13543" stroke-width="0.72" id="nonconn0" stroke="white"/>
    </g>
   </g>
  </g>
  <g partID="177600">
   <g transform="translate(44.8675,86.3598)">
    <g id="copper0">
     <circle fill="white" cy="6.13543" r="4.53543" cx="6.13543" stroke-width="0.72" id="nonconn0" stroke="white"/>
    </g>
   </g>
  </g>
  <g partID="177580">
   <g transform="translate(44.7051,2.07897)">
    <g id="copper0">
     <circle fill="white" cy="6.13543" r="4.53543" cx="6.13543" stroke-width="0.72" id="nonconn0" stroke="white"/>
    </g>
   </g>
  </g>
  <g partID="177560">
   <g transform="translate(509.459,4.54857)">
    <g id="copper0">
     <circle fill="white" cy="6.13543" r="4.53543" cx="6.13543" stroke-width="0.72" id="nonconn0" stroke="white"/>
    </g>
   </g>
  </g>
  <g partID="173260">
   <g transform="translate(119.461,2.39257)">
    <g id="copper0">
     <circle fill="white" cy="6.13543" r="4.53543" cx="6.13543" stroke-width="0.72" id="nonconn0" stroke="white"/>
    </g>
   </g>
  </g>
  <g partID="173240">
   <g transform="translate(368.823,4.46297)">
    <g id="copper0">
     <circle fill="white" cy="6.13543" r="4.53543" cx="6.13543" stroke-width="0.72" id="nonconn0" stroke="white"/>
    </g>
   </g>
  </g>
  <g partID="173220">
   <g transform="translate(509.272,105.24)">
    <g id="copper0">
     <circle fill="white" cy="6.13543" r="4.53543" cx="6.13543" stroke-width="0.72" id="nonconn0" stroke="white"/>
    </g>
   </g>
  </g>
  <g partID="173170">
   <g transform="translate(368.88,105.101)">
    <g id="copper0">
     <circle fill="white" cy="6.13543" r="4.53543" cx="6.13543" stroke-width="0.72" id="nonconn0" stroke="white"/>
    </g>
   </g>
  </g>
 </g>
</svg>
