<?xml version='1.0' encoding='UTF-8' standalone='no'?>
<!-- Created with Fritzing (http://www.fritzing.org/) -->
<svg xmlns="http://www.w3.org/2000/svg" baseProfile="tiny" xmlns:svg="http://www.w3.org/2000/svg" width="7.87402in" height="3.93701in" viewBox="0 0 566.929 283.465" version="1.2"  x="0in" y="0in">
 <g partID="57660">
  <g transform="translate(566.929,283.465)">
   <g transform="matrix(-1,0,0,-1,0,0)">
    <g id="board" >
     <rect fill="none" width="566.354" height="282.889" stroke-width="0.5" id="boardoutline" fill-opacity="0.5" stroke="black"  x="0.288" y="0.288"/>
    </g>
   </g>
  </g>
 </g>
 <g partID="365121">
  <g transform="translate(151.349,255.775)">
   <g transform="matrix(0,-1,1,0,0,0)">
    <g id="copper1" >
     <circle fill="none" cy="10.6336" r="1.7008" cx="8.7872" stroke-width="1.13384" id="connector1pad" stroke="black" />
     <rect fill="none" width="3.4016" height="3.4016" stroke-width="1.13384" stroke="black"  x="7.0864" y="8.9328"/>
     <circle fill="none" cy="3.5464" r="1.7008" cx="8.7872" stroke-width="1.13384" id="connector0pad" stroke="black" />
    </g>
   </g>
  </g>
 </g>
 <g partID="213901">
  <g transform="translate(308.916,194.226)">
   <g transform="matrix(1, 0, 0, 1, 0.54, -104.076)">
    <g id="copper1">
     <g gorn="0.3.0.0.0.0">
      <circle style="fill-rule:evenodd;stroke-linecap:butt;stroke-linejoin:miter;stroke-miterlimit:4;stroke-dasharray:none;" fill="none" gorn="0.3.0.0.0.0.0" r="3.8016" cy="124.709" cx="17.3016" stroke-width="2.88" id="connector0pin" fill-opacity="1" stroke="black" stroke-opacity="1"/>
      <circle style="fill-rule:evenodd;stroke-linecap:butt;stroke-linejoin:miter;stroke-miterlimit:4;stroke-dasharray:none;" fill="none" gorn="0.3.0.0.0.0.1" r="3.8016" cy="109.584" cx="17.3016" stroke-width="2.88" id="connector1pin" fill-opacity="1" stroke="black" stroke-opacity="1"/>
     </g>
    </g>
   </g>
  </g>
 </g>
 <g partID="246851">
  <g transform="translate(562.834,185.833)">
   <g transform="matrix(0,1,-1,0,0,0)">
    <g flipped="1" id="copper1">
     <g transform="matrix(-1, 0, 0, 1, 10.08, 0)">
      <g>
       <g>
        <g>
         <rect fill="none" height="4.176" width="4.176" stroke-width="1.44" id="square" stroke="black" x="2.952" y="2.952"/>
         <circle fill="none" cy="5.04" r="2.088" cx="5.04" stroke-width="1.44" id="connector0pin" stroke="black"/>
         <circle fill="none" cy="12.24" r="2.088" cx="5.04" stroke-width="1.44" id="connector1pin" stroke="black"/>
         <circle fill="none" cy="19.44" r="2.088" cx="5.04" stroke-width="1.44" id="connector2pin" stroke="black"/>
        </g>
        <g>
         <g id="copper0">
          <rect fill="none" height="4.176" width="4.176" stroke-width="1.44" id="square" stroke="black" x="2.952" y="2.952"/>
          <circle fill="none" cy="5.04" r="2.088" cx="5.04" stroke-width="1.44" id="connector0pin" stroke="black"/>
          <circle fill="none" cy="12.24" r="2.088" cx="5.04" stroke-width="1.44" id="connector1pin" stroke="black"/>
          <circle fill="none" cy="19.44" r="2.088" cx="5.04" stroke-width="1.44" id="connector2pin" stroke="black"/>
         </g>
        </g>
       </g>
      </g>
     </g>
    </g>
   </g>
  </g>
 </g>
 <g partID="271030">
  <g transform="translate(436.125,236.507)">
   <g transform="matrix(0,1,-1,0,0,0)">
    <g id="copper1" >
     <rect fill="black" width="4.53543" height="5.38583" id="connector0pad" fill-opacity="1" stroke="none"  x="0.566929" y="0.566929"/>
     <rect fill="black" width="4.53543" height="5.38583" id="connector1pad" fill-opacity="1" stroke="none"  x="9.35433" y="0.566929"/>
    </g>
   </g>
  </g>
 </g>
 <g partID="186241">
  <g transform="translate(70.5235,149.008)">
   <g id="copper1" >
    <g id="copper0" >
     <rect fill="none" height="5.184" width="5.184" stroke-width="1.44" id="rect20" stroke="black"  x="0.72" y="0.72"/>
     <circle fill="none" cy="3.312" r="2.592" cx="3.312" stroke-width="1.44" id="connector0pin" stroke="black" />
     <circle fill="none" cy="3.312" r="2.592" cx="24.912" stroke-width="1.44" id="connector1pin" stroke="black" />
    </g>
   </g>
  </g>
 </g>
 <g partID="184471">
  <g transform="translate(70.3075,125.71)">
   <g id="copper1" >
    <g id="copper0" >
     <rect fill="none" height="5.184" width="5.184" stroke-width="1.44" id="rect20" stroke="black"  x="0.72" y="0.72"/>
     <circle fill="none" cy="3.312" r="2.592" cx="3.312" stroke-width="1.44" id="connector0pin" stroke="black" />
     <circle fill="none" cy="3.312" r="2.592" cx="24.912" stroke-width="1.44" id="connector1pin" stroke="black" />
    </g>
   </g>
  </g>
 </g>
 <g partID="240651">
  <g transform="translate(469.357,135.953)">
   <g id="copper1" >
    <g id="copper0" >
     <circle fill="none" cy="10.8" r="1.908" cx="3.6" stroke-width="1.224" id="connector16pad" stroke="black" />
     <rect fill="none" width="3.814" height="3.816" stroke-width="1.224" stroke="black"  x="1.692" y="8.892"/>
     <circle fill="none" cy="18" r="1.908" cx="3.6" stroke-width="1.224" id="connector17pad" stroke="black" />
     <circle fill="none" cy="25.2" r="1.908" cx="3.6" stroke-width="1.224" id="connector18pad" stroke="black" />
     <circle fill="none" cy="32.4" r="1.908" cx="3.6" stroke-width="1.224" id="connector19pad" stroke="black" />
     <circle fill="none" cy="39.6" r="1.908" cx="3.6" stroke-width="1.224" id="connector20pad" stroke="black" />
     <circle fill="none" cy="46.8" r="1.908" cx="3.6" stroke-width="1.224" id="connector21pad" stroke="black" />
     <circle fill="none" cy="54" r="1.908" cx="3.6" stroke-width="1.224" id="connector22pad" stroke="black" />
     <circle fill="none" cy="61.2" r="1.908" cx="3.6" stroke-width="1.224" id="connector23pad" stroke="black" />
     <circle fill="none" cy="68.4" r="1.908" cx="3.6" stroke-width="1.224" id="connector24pad" stroke="black" />
     <circle fill="none" cy="75.6" r="1.908" cx="3.6" stroke-width="1.224" id="connector25pad" stroke="black" />
     <circle fill="none" cy="82.8" r="1.908" cx="3.6" stroke-width="1.224" id="connector26pad" stroke="black" />
     <circle fill="none" cy="90" r="1.908" cx="3.6" stroke-width="1.224" id="connector27pad" stroke="black" />
     <circle fill="none" cy="97.2" r="1.908" cx="3.6" stroke-width="1.224" id="connector28pad" stroke="black" />
     <circle fill="none" cy="104.4" r="1.908" cx="3.6" stroke-width="1.224" id="connector29pad" stroke="black" />
     <circle fill="none" cy="111.6" r="1.908" cx="3.6" stroke-width="1.224" id="connector30pad" stroke="black" />
     <circle fill="none" cy="10.8" r="1.908" cx="46.8" stroke-width="1.224" id="connector31pad" stroke="black" />
     <circle fill="none" cy="18" r="1.908" cx="46.8" stroke-width="1.224" id="connector32pad" stroke="black" />
     <circle fill="none" cy="25.2" r="1.908" cx="46.8" stroke-width="1.224" id="connector33pad" stroke="black" />
     <circle fill="none" cy="32.4" r="1.908" cx="46.8" stroke-width="1.224" id="connector34pad" stroke="black" />
     <circle fill="none" cy="39.6" r="1.908" cx="46.8" stroke-width="1.224" id="connector35pad" stroke="black" />
     <circle fill="none" cy="46.8" r="1.908" cx="46.8" stroke-width="1.224" id="connector36pad" stroke="black" />
     <circle fill="none" cy="54" r="1.908" cx="46.8" stroke-width="1.224" id="connector37pad" stroke="black" />
     <circle fill="none" cy="61.2" r="1.908" cx="46.8" stroke-width="1.224" id="connector38pad" stroke="black" />
     <circle fill="none" cy="68.4" r="1.908" cx="46.8" stroke-width="1.224" id="connector39pad" stroke="black" />
     <circle fill="none" cy="75.6" r="1.908" cx="46.8" stroke-width="1.224" id="connector40pad" stroke="black" />
     <circle fill="none" cy="82.8" r="1.908" cx="46.8" stroke-width="1.224" id="connector41pad" stroke="black" />
     <circle fill="none" cy="90" r="1.908" cx="46.8" stroke-width="1.224" id="connector42pad" stroke="black" />
     <circle fill="none" cy="97.2" r="1.908" cx="46.8" stroke-width="1.224" id="connector43pad" stroke="black" />
     <circle fill="none" cy="104.4" r="1.908" cx="46.8" stroke-width="1.224" id="connector44pad" stroke="black" />
     <circle fill="none" cy="111.6" r="1.908" cx="46.8" stroke-width="1.224" id="connector45pad" stroke="black" />
    </g>
   </g>
  </g>
 </g>
 <g partID="68101">
  <g transform="translate(179.388,74.9966)">
   <g id="copper1" >
    <g id="copper0" >
     <circle fill="none" cy="10.8" r="1.908" cx="3.6" stroke-width="1.224" id="connector16pad" stroke="black" />
     <rect fill="none" width="3.814" height="3.816" stroke-width="1.224" stroke="black"  x="1.692" y="8.892"/>
     <circle fill="none" cy="18" r="1.908" cx="3.6" stroke-width="1.224" id="connector17pad" stroke="black" />
     <circle fill="none" cy="25.2" r="1.908" cx="3.6" stroke-width="1.224" id="connector18pad" stroke="black" />
     <circle fill="none" cy="32.4" r="1.908" cx="3.6" stroke-width="1.224" id="connector19pad" stroke="black" />
     <circle fill="none" cy="39.6" r="1.908" cx="3.6" stroke-width="1.224" id="connector20pad" stroke="black" />
     <circle fill="none" cy="46.8" r="1.908" cx="3.6" stroke-width="1.224" id="connector21pad" stroke="black" />
     <circle fill="none" cy="54" r="1.908" cx="3.6" stroke-width="1.224" id="connector22pad" stroke="black" />
     <circle fill="none" cy="61.2" r="1.908" cx="3.6" stroke-width="1.224" id="connector23pad" stroke="black" />
     <circle fill="none" cy="68.4" r="1.908" cx="3.6" stroke-width="1.224" id="connector24pad" stroke="black" />
     <circle fill="none" cy="75.6" r="1.908" cx="3.6" stroke-width="1.224" id="connector25pad" stroke="black" />
     <circle fill="none" cy="82.8" r="1.908" cx="3.6" stroke-width="1.224" id="connector26pad" stroke="black" />
     <circle fill="none" cy="90" r="1.908" cx="3.6" stroke-width="1.224" id="connector27pad" stroke="black" />
     <circle fill="none" cy="97.2" r="1.908" cx="3.6" stroke-width="1.224" id="connector28pad" stroke="black" />
     <circle fill="none" cy="104.4" r="1.908" cx="3.6" stroke-width="1.224" id="connector29pad" stroke="black" />
     <circle fill="none" cy="111.6" r="1.908" cx="3.6" stroke-width="1.224" id="connector30pad" stroke="black" />
     <circle fill="none" cy="10.8" r="1.908" cx="46.8" stroke-width="1.224" id="connector31pad" stroke="black" />
     <circle fill="none" cy="18" r="1.908" cx="46.8" stroke-width="1.224" id="connector32pad" stroke="black" />
     <circle fill="none" cy="25.2" r="1.908" cx="46.8" stroke-width="1.224" id="connector33pad" stroke="black" />
     <circle fill="none" cy="32.4" r="1.908" cx="46.8" stroke-width="1.224" id="connector34pad" stroke="black" />
     <circle fill="none" cy="39.6" r="1.908" cx="46.8" stroke-width="1.224" id="connector35pad" stroke="black" />
     <circle fill="none" cy="46.8" r="1.908" cx="46.8" stroke-width="1.224" id="connector36pad" stroke="black" />
     <circle fill="none" cy="54" r="1.908" cx="46.8" stroke-width="1.224" id="connector37pad" stroke="black" />
     <circle fill="none" cy="61.2" r="1.908" cx="46.8" stroke-width="1.224" id="connector38pad" stroke="black" />
     <circle fill="none" cy="68.4" r="1.908" cx="46.8" stroke-width="1.224" id="connector39pad" stroke="black" />
     <circle fill="none" cy="75.6" r="1.908" cx="46.8" stroke-width="1.224" id="connector40pad" stroke="black" />
     <circle fill="none" cy="82.8" r="1.908" cx="46.8" stroke-width="1.224" id="connector41pad" stroke="black" />
     <circle fill="none" cy="90" r="1.908" cx="46.8" stroke-width="1.224" id="connector42pad" stroke="black" />
     <circle fill="none" cy="97.2" r="1.908" cx="46.8" stroke-width="1.224" id="connector43pad" stroke="black" />
     <circle fill="none" cy="104.4" r="1.908" cx="46.8" stroke-width="1.224" id="connector44pad" stroke="black" />
     <circle fill="none" cy="111.6" r="1.908" cx="46.8" stroke-width="1.224" id="connector45pad" stroke="black" />
    </g>
   </g>
  </g>
 </g>
 <g partID="100561">
  <g transform="translate(10.4659,225.39)">
   <g id="copper1" >
    <!-- <rect width="55" x="10" y="15.5" fill="none" height="55" stroke="rgb(255, 191, 0)" stroke-width="20" />  -->
    <circle fill="none" cy="3.096" r="1.98" cx="2.7" stroke-width="1.44" id="connector0pin" stroke="black" />
    <circle fill="none" cy="3.096" r="1.98" cx="31.5" stroke-width="1.44" id="connector1pin" stroke="black" />
   </g>
  </g>
 </g>
 <g partID="87831">
  <g transform="translate(11.1707,149.269)">
   <g id="copper1" >
    <!-- <rect width="55" x="10" y="15.5" fill="none" height="55" stroke="rgb(255, 191, 0)" stroke-width="20" />  -->
    <circle fill="none" cy="3.096" r="1.98" cx="2.7" stroke-width="1.44" id="connector0pin" stroke="black" />
    <circle fill="none" cy="3.096" r="1.98" cx="31.5" stroke-width="1.44" id="connector1pin" stroke="black" />
   </g>
  </g>
 </g>
 <g partID="75391">
  <g transform="translate(11.4035,125.328)">
   <g id="copper1" >
    <!-- <rect width="55" x="10" y="15.5" fill="none" height="55" stroke="rgb(255, 191, 0)" stroke-width="20" />  -->
    <circle fill="none" cy="3.096" r="1.98" cx="2.7" stroke-width="1.44" id="connector0pin" stroke="black" />
    <circle fill="none" cy="3.096" r="1.98" cx="31.5" stroke-width="1.44" id="connector1pin" stroke="black" />
   </g>
  </g>
 </g>
 <g partID="75781">
  <g transform="translate(10.9211,193.091)">
   <g id="copper1" >
    <!-- <rect width="55" x="10" y="15.5" fill="none" height="55" stroke="rgb(255, 191, 0)" stroke-width="20" />  -->
    <circle fill="none" cy="3.096" r="1.98" cx="2.7" stroke-width="1.44" id="connector0pin" stroke="black" />
    <circle fill="none" cy="3.096" r="1.98" cx="31.5" stroke-width="1.44" id="connector1pin" stroke="black" />
   </g>
  </g>
 </g>
 <g partID="259011">
  <g transform="translate(360.185,190.592)">
   <g id="copper1" >
    <!-- <rect width="55" x="10" y="15.5" fill="none" height="55" stroke="rgb(255, 191, 0)" stroke-width="20" />  -->
    <circle fill="none" cy="3.096" r="1.98" cx="2.7" stroke-width="1.44" id="connector0pin" stroke="black" />
    <circle fill="none" cy="3.096" r="1.98" cx="31.5" stroke-width="1.44" id="connector1pin" stroke="black" />
   </g>
  </g>
 </g>
 <g partID="258991">
  <g transform="translate(360.536,235.305)">
   <g id="copper1" >
    <!-- <rect width="55" x="10" y="15.5" fill="none" height="55" stroke="rgb(255, 191, 0)" stroke-width="20" />  -->
    <circle fill="none" cy="3.096" r="1.98" cx="2.7" stroke-width="1.44" id="connector0pin" stroke="black" />
    <circle fill="none" cy="3.096" r="1.98" cx="31.5" stroke-width="1.44" id="connector1pin" stroke="black" />
   </g>
  </g>
 </g>
 <g partID="258821">
  <g transform="translate(360.024,140.385)">
   <g id="copper1" >
    <!-- <rect width="55" x="10" y="15.5" fill="none" height="55" stroke="rgb(255, 191, 0)" stroke-width="20" />  -->
    <circle fill="none" cy="3.096" r="1.98" cx="2.7" stroke-width="1.44" id="connector0pin" stroke="black" />
    <circle fill="none" cy="3.096" r="1.98" cx="31.5" stroke-width="1.44" id="connector1pin" stroke="black" />
   </g>
  </g>
 </g>
 <g partID="78531">
  <g transform="translate(79.0611,266.064)">
   <g id="copper1" >
    <!-- <rect width="55" x="10" y="15.5" fill="none" height="55" stroke="rgb(255, 191, 0)" stroke-width="20" />  -->
    <circle fill="none" cy="3.096" r="1.98" cx="2.7" stroke-width="1.44" id="connector0pin" stroke="black" />
    <circle fill="none" cy="3.096" r="1.98" cx="31.5" stroke-width="1.44" id="connector1pin" stroke="black" />
   </g>
  </g>
 </g>
 <g partID="247601">
  <g transform="translate(431.336,205.895)">
   <g transform="matrix(0,1,-1,0,0,0)">
    <g id="copper1" >
     <circle connectorname="1" fill="none" cy="9.06746" r="2.052" cx="6.45336" stroke-width="1.224" id="connector0pad" stroke="black" />
     <circle connectorname="2" fill="none" cy="16.7715" r="2.052" cx="6.45336" stroke-width="1.224" id="connector1pad" stroke="black" />
     <circle connectorname="3" fill="none" cy="24.4755" r="2.052" cx="6.45336" stroke-width="1.224" id="connector2pad" stroke="black" />
     <g id="copper0" >
      <circle connectorname="1" fill="none" cy="9.06746" r="2.052" cx="6.45336" stroke-width="1.224" id="connector0pad" stroke="black" />
      <circle connectorname="2" fill="none" cy="16.7715" r="2.052" cx="6.45336" stroke-width="1.224" id="connector1pad" stroke="black" />
      <circle connectorname="3" fill="none" cy="24.4755" r="2.052" cx="6.45336" stroke-width="1.224" id="connector2pad" stroke="black" />
     </g>
    </g>
   </g>
  </g>
 </g>
 <g partID="247581">
  <g transform="translate(428.298,161.005)">
   <g transform="matrix(0,1,-1,0,0,0)">
    <g id="copper1" >
     <circle connectorname="1" fill="none" cy="9.06746" r="2.052" cx="6.45336" stroke-width="1.224" id="connector0pad" stroke="black" />
     <circle connectorname="2" fill="none" cy="16.7715" r="2.052" cx="6.45336" stroke-width="1.224" id="connector1pad" stroke="black" />
     <circle connectorname="3" fill="none" cy="24.4755" r="2.052" cx="6.45336" stroke-width="1.224" id="connector2pad" stroke="black" />
     <g id="copper0" >
      <circle connectorname="1" fill="none" cy="9.06746" r="2.052" cx="6.45336" stroke-width="1.224" id="connector0pad" stroke="black" />
      <circle connectorname="2" fill="none" cy="16.7715" r="2.052" cx="6.45336" stroke-width="1.224" id="connector1pad" stroke="black" />
      <circle connectorname="3" fill="none" cy="24.4755" r="2.052" cx="6.45336" stroke-width="1.224" id="connector2pad" stroke="black" />
     </g>
    </g>
   </g>
  </g>
 </g>
 <g partID="75131">
  <g transform="translate(81.4699,220.942)">
   <g id="copper1" >
    <circle connectorname="1" fill="none" cy="9.06746" r="2.052" cx="6.45336" stroke-width="1.224" id="connector0pad" stroke="black" />
    <circle connectorname="2" fill="none" cy="16.7715" r="2.052" cx="6.45336" stroke-width="1.224" id="connector1pad" stroke="black" />
    <circle connectorname="3" fill="none" cy="24.4755" r="2.052" cx="6.45336" stroke-width="1.224" id="connector2pad" stroke="black" />
    <g id="copper0" >
     <circle connectorname="1" fill="none" cy="9.06746" r="2.052" cx="6.45336" stroke-width="1.224" id="connector0pad" stroke="black" />
     <circle connectorname="2" fill="none" cy="16.7715" r="2.052" cx="6.45336" stroke-width="1.224" id="connector1pad" stroke="black" />
     <circle connectorname="3" fill="none" cy="24.4755" r="2.052" cx="6.45336" stroke-width="1.224" id="connector2pad" stroke="black" />
    </g>
   </g>
  </g>
 </g>
 <g partID="75271">
  <g transform="translate(82.3043,172.276)">
   <g id="copper1" >
    <circle connectorname="1" fill="none" cy="9.57146" r="2.052" cx="6.45336" stroke-width="1.224" id="connector0pad" stroke="black" />
    <circle connectorname="2" fill="none" cy="16.7715" r="2.052" cx="6.45336" stroke-width="1.224" id="connector1pad" stroke="black" />
    <circle connectorname="3" fill="none" cy="23.9715" r="2.052" cx="6.45336" stroke-width="1.224" id="connector2pad" stroke="black" />
    <g id="copper0" >
     <circle connectorname="1" fill="none" cy="9.57146" r="2.052" cx="6.45336" stroke-width="1.224" id="connector0pad" stroke="black" />
     <circle connectorname="2" fill="none" cy="16.7715" r="2.052" cx="6.45336" stroke-width="1.224" id="connector1pad" stroke="black" />
     <circle connectorname="3" fill="none" cy="23.9715" r="2.052" cx="6.45336" stroke-width="1.224" id="connector2pad" stroke="black" />
    </g>
   </g>
  </g>
 </g>
 <g partID="76741">
  <g transform="translate(132.07,213.945)">
   <g id="copper1" >
    <g id="copper0" >
     <rect fill="none" height="4.176" width="4.176" stroke-width="1.44" id="square" stroke="black"  x="2.952" y="2.952"/>
     <circle fill="none" cy="5.04" r="2.088" cx="5.04" stroke-width="1.44" id="connector0pin" stroke="black" />
     <circle fill="none" cy="12.24" r="2.088" cx="5.04" stroke-width="1.44" id="connector1pin" stroke="black" />
     <circle fill="none" cy="19.44" r="2.088" cx="5.04" stroke-width="1.44" id="connector2pin" stroke="black" />
    </g>
   </g>
  </g>
 </g>
 <g partID="79211">
  <g transform="translate(42.2916,99.695)">
   <g transform="matrix(0,-1,1,0,0,0)">
    <g id="copper1">
     <g transform="matrix(1, 0, 0, 1, -2.74415, 0.362573)">
      <g id="copper0">
       <g transform="matrix(1, 0, 0, 1, 18.3175, 7.26522)">
        <g id="control">
         <circle fill="none" gorn="0.2.0.0" r="2.088" cy="10.8026" cx="2.808" stroke-width="1.44" id="connector0pin" stroke="black"/>
         <circle fill="none" gorn="0.2.0.1" r="2.088" cy="18.0026" cx="2.808" stroke-width="1.44" id="connector1pin" stroke="black"/>
         <circle fill="none" gorn="0.2.0.2" r="2.088" cy="25.2026" cx="2.808" stroke-width="1.44" id="connector2pin" stroke="black"/>
         <circle fill="none" gorn="0.2.0.3" r="2.088" cy="32.4026" cx="2.808" stroke-width="1.44" id="connector3pin" stroke="black"/>
        </g>
       </g>
       <g transform="matrix(1, 0, 0, 1, 7.49903, 35.9911)">
        <g id="power">
         <g transform="rotate(-90)">
          <circle fill="none" gorn="0.2.0.4" r="2.088" cy="24.408" cx="-39.6026" stroke-width="1.44" id="connector4pin" stroke="black"/>
         </g>
         <g transform="rotate(-90)">
          <circle fill="none" gorn="0.2.0.5" r="2.088" cy="31.608" cx="-39.6026" stroke-width="1.44" id="connector5pin" stroke="black"/>
         </g>
         <g transform="rotate(-90)">
          <circle fill="none" gorn="0.2.0.6" r="2.088" cy="38.808" cx="-39.6026" stroke-width="1.44" id="connector6pin" stroke="black"/>
         </g>
         <g transform="rotate(-90)">
          <circle fill="none" gorn="0.2.0.7" r="2.088" cy="46.008" cx="-39.6026" stroke-width="1.44" id="connector7pin" stroke="black"/>
         </g>
        </g>
       </g>
       <g transform="matrix(1, 0, 0, 1, 3.94497, 6.85673)">
        <g id="motor">
         <circle fill="none" gorn="0.2.0.8" r="2.088" cy="7.42934" cx="63.9587" stroke-width="1.44" id="connector8pin" stroke="black"/>
         <circle fill="none" gorn="0.2.0.9" r="2.088" cy="14.516" cx="63.9587" stroke-width="1.44" id="connector9pin" stroke="black"/>
         <circle fill="none" gorn="0.2.0.10" r="2.088" cy="21.6026" cx="64.008" stroke-width="1.44" id="connector10pin" stroke="black"/>
         <circle fill="none" gorn="0.2.0.11" r="2.088" cy="28.6892" cx="63.9587" stroke-width="1.44" id="connector11pin" stroke="black"/>
         <circle fill="none" gorn="0.2.0.12" r="2.088" cy="35.7758" cx="63.9587" stroke-width="1.44" id="connector12pin" stroke="black"/>
        </g>
       </g>
      </g>
     </g>
    </g>
   </g>
  </g>
 </g>
 <g partID="83901">
  <g transform="translate(186.942,230.303)">
   <g gorn="0.4" id="copper1" >
    <g gorn="0.4.0" id="copper0" >
     <rect fill="none" gorn="0.4.0.0" width="4.176" height="4.176" stroke-width="1.44" id="square" stroke="black"  x="82.3725" y="10.7252"/>
     <circle fill="none" gorn="0.4.0.1" r="2.088" cy="12.8132" cx="84.4605" stroke-width="1.44" id="connector0pin" stroke="black" />
     <circle fill="none" gorn="0.4.0.2" r="2.088" cy="20.0132" cx="84.4605" stroke-width="1.44" id="connector1pin" stroke="black" />
     <circle fill="none" gorn="0.4.0.3" r="2.088" cy="27.2132" cx="84.4605" stroke-width="1.44" id="connector2pin" stroke="black" />
    </g>
   </g>
  </g>
 </g>
 <g partID="84161">
  <g transform="translate(281.041,72.0014)">
   <g gorn="0.2" id="copper1" >
    <g gorn="0.2.0" id="copper0" >
     <circle fill="none" gorn="0.2.0.0" cy="83.4359" r="2.063" cx="9.228" stroke-width="1" id="connector11pad" stroke-miterlimit="10" stroke="black" />
     <circle fill="none" gorn="0.2.0.1" cy="83.4359" r="2.063" cx="16.427" stroke-width="1" id="connector10pad" stroke-miterlimit="10" stroke="black" />
     <circle fill="none" gorn="0.2.0.2" cy="83.4359" r="2.063" cx="23.627" stroke-width="1" id="connector9pad" stroke-miterlimit="10" stroke="black" />
     <circle fill="none" gorn="0.2.0.3" cy="83.4359" r="2.063" cx="30.827" stroke-width="1" id="connector8pad" stroke-miterlimit="10" stroke="black" />
    </g>
    <g gorn="0.2.1" id="copper0_2_" >
     <g gorn="0.2.1.0" id="copper0_1_" >
      <circle fill="none" gorn="0.2.1.0.0" cy="5.186" r="2.063" cx="15.926" stroke-width="1" id="connector13pad" stroke-miterlimit="10" stroke="black" />
      <circle fill="none" gorn="0.2.1.0.1" cy="5.186" r="2.063" cx="23.125" stroke-width="1" id="connector12pad" stroke-miterlimit="10" stroke="black" />
     </g>
    </g>
   </g>
  </g>
 </g>
 <g partID="84191">
  <g transform="translate(368.741,117.705)">
   <g transform="matrix(0,-1,1,0,0,0)">
    <g gorn="0.3" id="copper1" >
     <g gorn="0.3.0" id="copper0" >
      <circle fill="none" gorn="0.3.0.0" cy="7.82201" r="1.93501" cx="53.3432" stroke-width="1" id="connector8pad" stroke-miterlimit="10" stroke="black" />
      <circle fill="none" gorn="0.3.0.1" cy="7.82201" r="1.93501" cx="60.5442" stroke-width="1" id="connector9pad" stroke-miterlimit="10" stroke="black" />
     </g>
    </g>
   </g>
  </g>
 </g>
 <g partID="91831">
  <g transform="translate(296.292,249.336)">
   <g id="copper1" >
    <circle connectorname="PWR" fill="none" cy="2.83465" r="2.12598" cx="5.66929" stroke-width="1.41732" id="connector2pad" stroke="black" />
    <path fill="black" stroke-width="0" stroke="none"  d="m8.50393,0a2.83464,2.83465,0,0,1,2.83464,2.83465l0,0a2.83464,2.83465,0,0,1,-2.83464,2.83465l-5.66929,0a2.83464,2.83465,0,0,1,-2.83464,-2.83465l0,0a2.83464,2.83465,0,0,1,2.83464,-2.83465l5.66929,0zM4.25197,2.83465a1.41732,1.41732,0,1,0,2.83464,0,1.41732,1.41732,0,1,0,-2.83464,0z"/>
    <circle connectorname="GND@1" fill="none" cy="20.6929" r="2.12598" cx="5.66929" stroke-width="1.41732" id="connector0pad" stroke="black" />
    <path fill="black" stroke-width="0" stroke="none"  d="m8.50393,17.8583a2.83464,2.83465,0,0,1,2.83464,2.83465l0,0a2.83464,2.83465,0,0,1,-2.83464,2.83465l-5.66929,0a2.83464,2.83465,0,0,1,-2.83464,-2.83465l0,0a2.83464,2.83465,0,0,1,2.83464,-2.83465l5.66929,0zM4.25197,20.6929a1.41732,1.41732,0,1,0,2.83464,0,1.41732,1.41732,0,1,0,-2.83464,0z"/>
    <circle connectorname="GND@2" fill="none" cy="11.3386" r="2.12598" cx="19.8425" stroke-width="1.41732" id="connector1pad" stroke="black" />
    <path fill="black" stroke-width="0" stroke="none"  d="m19.8425,5.66929a2.83464,2.83465,0,0,1,2.83464,2.83465l0,5.66929a2.83464,2.83465,0,0,1,-2.83464,2.83465l0,0a2.83464,2.83465,0,0,1,-2.83464,-2.83465l0,-5.66929a2.83464,2.83465,0,0,1,2.83464,-2.83465l0,0zM18.4252,11.3386a1.41732,1.41732,0,1,0,2.83464,0,1.41732,1.41732,0,1,0,-2.83464,0z"/>
    <g id="copper0" >
     <circle connectorname="PWR" fill="none" cy="2.83465" r="2.12598" cx="5.66929" stroke-width="1.41732" id="connector2pad" stroke="black" />
     <path fill="black" stroke-width="0" stroke="none"  d="m8.50393,0a2.83464,2.83465,0,0,1,2.83464,2.83465l0,0a2.83464,2.83465,0,0,1,-2.83464,2.83465l-5.66929,0a2.83464,2.83465,0,0,1,-2.83464,-2.83465l0,0a2.83464,2.83465,0,0,1,2.83464,-2.83465l5.66929,0zM4.25197,2.83465a1.41732,1.41732,0,1,0,2.83464,0,1.41732,1.41732,0,1,0,-2.83464,0z"/>
     <circle connectorname="GND@1" fill="none" cy="20.6929" r="2.12598" cx="5.66929" stroke-width="1.41732" id="connector0pad" stroke="black" />
     <path fill="black" stroke-width="0" stroke="none"  d="m8.50393,17.8583a2.83464,2.83465,0,0,1,2.83464,2.83465l0,0a2.83464,2.83465,0,0,1,-2.83464,2.83465l-5.66929,0a2.83464,2.83465,0,0,1,-2.83464,-2.83465l0,0a2.83464,2.83465,0,0,1,2.83464,-2.83465l5.66929,0zM4.25197,20.6929a1.41732,1.41732,0,1,0,2.83464,0,1.41732,1.41732,0,1,0,-2.83464,0z"/>
     <circle connectorname="GND@2" fill="none" cy="11.3386" r="2.12598" cx="19.8425" stroke-width="1.41732" id="connector1pad" stroke="black" />
     <path fill="black" stroke-width="0" stroke="none"  d="m19.8425,5.66929a2.83464,2.83465,0,0,1,2.83464,2.83465l0,5.66929a2.83464,2.83465,0,0,1,-2.83464,2.83465l0,0a2.83464,2.83465,0,0,1,-2.83464,-2.83465l0,-5.66929a2.83464,2.83465,0,0,1,2.83464,-2.83465l0,0zM18.4252,11.3386a1.41732,1.41732,0,1,0,2.83464,0,1.41732,1.41732,0,1,0,-2.83464,0z"/>
    </g>
   </g>
  </g>
 </g>
 <g partID="177621">
  <g transform="translate(119.619,86.2702)">
   <g id="copper1" >
    <circle fill="black" cy="6.13543" r="4.53543" cx="6.13543" stroke-width="0" id="nonconn0" stroke="black" />
   </g>
  </g>
 </g>
 <g partID="177601">
  <g transform="translate(44.8675,86.3598)">
   <g id="copper1" >
    <circle fill="black" cy="6.13543" r="4.53543" cx="6.13543" stroke-width="0" id="nonconn0" stroke="black" />
   </g>
  </g>
 </g>
 <g partID="177581">
  <g transform="translate(44.7051,2.07897)">
   <g id="copper1" >
    <circle fill="black" cy="6.13543" r="4.53543" cx="6.13543" stroke-width="0" id="nonconn0" stroke="black" />
   </g>
  </g>
 </g>
 <g partID="177561">
  <g transform="translate(509.459,4.54857)">
   <g id="copper1" >
    <circle fill="black" cy="6.13543" r="4.53543" cx="6.13543" stroke-width="0" id="nonconn0" stroke="black" />
   </g>
  </g>
 </g>
 <g partID="173261">
  <g transform="translate(119.461,2.39257)">
   <g id="copper1" >
    <circle fill="black" cy="6.13543" r="4.53543" cx="6.13543" stroke-width="0" id="nonconn0" stroke="black" />
   </g>
  </g>
 </g>
 <g partID="173241">
  <g transform="translate(368.823,4.46297)">
   <g id="copper1" >
    <circle fill="black" cy="6.13543" r="4.53543" cx="6.13543" stroke-width="0" id="nonconn0" stroke="black" />
   </g>
  </g>
 </g>
 <g partID="173221">
  <g transform="translate(509.272,105.24)">
   <g id="copper1" >
    <circle fill="black" cy="6.13543" r="4.53543" cx="6.13543" stroke-width="0" id="nonconn0" stroke="black" />
   </g>
  </g>
 </g>
 <g partID="173171">
  <g transform="translate(368.88,105.101)">
   <g id="copper1" >
    <circle fill="black" cy="6.13543" r="4.53543" cx="6.13543" stroke-width="0" id="nonconn0" stroke="black" />
   </g>
  </g>
 </g>
 <g partID="327850">
  <line y2="154.03" y1="160.143" x1="98.9165" stroke-width="3.456" stroke="black" stroke-linecap="round" x2="96.1964"/>
 </g>
 <g partID="327740">
  <line y2="160.143" y1="182.059" x1="98.9165" stroke-width="3.456" stroke="black" stroke-linecap="round" x2="98.9165"/>
 </g>
 <g partID="327640">
  <line y2="182.059" y1="188.231" x1="89.9442" stroke-width="3.456" stroke="black" stroke-linecap="round" x2="98.9165"/>
 </g>
 <g partID="327510">
  <line y2="189.056" y1="189.097" x1="96.8222" stroke-width="3.456" stroke="black" stroke-linecap="round" x2="90.1978"/>
 </g>
 <g partID="327260">
  <line y2="227.589" y1="237.833" x1="93.6191" stroke-width="3.456" stroke="black" stroke-linecap="round" x2="98.9518"/>
 </g>
 <g partID="327090">
  <line y2="189.097" y1="194.252" x1="99.0316" stroke-width="3.456" stroke="black" stroke-linecap="round" x2="96.8222"/>
 </g>
 <g partID="326960">
  <line y2="194.252" y1="227.589" x1="98.9519" stroke-width="3.456" stroke="black" stroke-linecap="round" x2="99.0316"/>
 </g>
 <g partID="326840">
  <line y2="237.833" y1="237.743" x1="89.3631" stroke-width="3.456" stroke="black" stroke-linecap="round" x2="93.6191"/>
 </g>
 <g partID="326650">
  <line y2="237.672" y1="237.392" x1="99.1229" stroke-width="3.456" stroke="black" stroke-linecap="round" x2="89.3628"/>
 </g>
 <g partID="326500">
  <line y2="237.392" y1="226.315" x1="129.528" stroke-width="3.456" stroke="black" stroke-linecap="round" x2="99.1229"/>
 </g>
 <g partID="326360">
  <line y2="226.315" y1="226.208" x1="135.743" stroke-width="3.456" stroke="black" stroke-linecap="round" x2="129.528"/>
 </g>
 <g partID="326110">
  <line y2="180.026" y1="225.97" x1="145.078" stroke-width="3.456" stroke="black" stroke-linecap="round" x2="208.942"/>
 </g>
 <g partID="325940">
  <line y2="179.444" y1="180.025" x1="208.942" stroke-width="3.456" stroke="black" stroke-linecap="round" x2="224.892"/>
 </g>
 <g partID="325780">
  <line y2="225.97" y1="226.148" x1="138.478" stroke-width="3.456" stroke="black" stroke-linecap="round" x2="145.078"/>
 </g>
 <g partID="330910">
  <line y2="157.666" y1="85.3238" x1="82.3899" stroke-width="3.456" stroke="black" stroke-linecap="round" x2="176.516"/>
 </g>
 <g partID="330530">
  <line y2="157.771" y1="157.666" x1="176.516" stroke-width="3.456" stroke="black" stroke-linecap="round" x2="181.692"/>
 </g>
 <g partID="330500">
  <line y2="164.769" y1="86.9894" x1="75.5339" stroke-width="3.456" stroke="black" stroke-linecap="round" x2="175.602"/>
 </g>
 <g partID="330470">
  <line y2="164.957" y1="164.769" x1="175.602" stroke-width="3.456" stroke="black" stroke-linecap="round" x2="181.692"/>
 </g>
 <g partID="330440">
  <line y2="86.9894" y1="172.047" x1="173.328" stroke-width="3.456" stroke="black" stroke-linecap="round" x2="67.802"/>
 </g>
 <g partID="330410">
  <line y2="82.6813" y1="86.9894" x1="67.8019" stroke-width="3.456" stroke="black" stroke-linecap="round" x2="67.8933"/>
 </g>
 <g partID="329960">
  <line y2="82.6794" y1="88.6982" x1="61.1891" stroke-width="3.456" stroke="black" stroke-linecap="round" x2="60.8085"/>
 </g>
 <g partID="329930">
  <line y2="88.6974" y1="179.325" x1="172.873" stroke-width="3.456" stroke="black" stroke-linecap="round" x2="61.1887"/>
 </g>
 <g partID="328180">
  <line y2="85.3235" y1="82.6812" x1="82.345" stroke-width="3.456" stroke="black" stroke-linecap="round" x2="82.3896"/>
 </g>
 <g partID="328160">
  <line y2="86.9891" y1="82.6778" x1="75.221" stroke-width="3.456" stroke="black" stroke-linecap="round" x2="75.5341"/>
 </g>
 <g partID="328140">
  <line y2="172.047" y1="172.177" x1="181.692" stroke-width="3.456" stroke="black" stroke-linecap="round" x2="173.328"/>
 </g>
 <g partID="328060">
  <line y2="179.325" y1="179.388" x1="181.692" stroke-width="3.456" stroke="black" stroke-linecap="round" x2="172.873"/>
 </g>
 <g partID="327980">
  <line y2="130.894" y1="150.448" x1="95.4181" stroke-width="3.456" stroke="black" stroke-linecap="round" x2="95.2372"/>
 </g>
 <g partID="341350">
  <line y2="238.475" y1="238.411" x1="393.296" stroke-width="3.456" stroke="black" stroke-linecap="round" x2="401.639"/>
 </g>
 <g partID="331110">
  <line y2="134.448" y1="93.6059" x1="227.332" stroke-width="3.456" stroke="black" stroke-linecap="round" x2="304.132"/>
 </g>
 <g partID="331100">
  <line y2="153.875" y1="134.448" x1="304.132" stroke-width="3.456" stroke="black" stroke-linecap="round" x2="304.628"/>
 </g>
 <g partID="344700">
  <line y2="153.875" y1="147.326" x1="304.493" stroke-width="3.456" stroke="black" stroke-linecap="round" x2="304.634"/>
 </g>
 <g partID="344270">
  <line y2="143.504" y1="143.481" x1="361.464" stroke-width="3.456" stroke="black" stroke-linecap="round" x2="314.685"/>
 </g>
 <g partID="344260">
  <line y2="147.326" y1="143.504" x1="314.685" stroke-width="3.456" stroke="black" stroke-linecap="round" x2="304.493"/>
 </g>
 <g partID="342040">
  <line y2="194.825" y1="212.122" x1="400.51" stroke-width="3.456" stroke="black" stroke-linecap="round" x2="392.23"/>
 </g>
 <g partID="342000">
  <line y2="212.122" y1="212.297" x1="405.421" stroke-width="3.456" stroke="black" stroke-linecap="round" x2="400.51"/>
 </g>
 <g partID="341950">
  <line y2="182.614" y1="204.529" x1="422.378" stroke-width="3.456" stroke="black" stroke-linecap="round" x2="466.764"/>
 </g>
 <g partID="341920">
  <line y2="182.724" y1="182.614" x1="466.764" stroke-width="3.456" stroke="black" stroke-linecap="round" x2="471.662"/>
 </g>
 <g partID="341870">
  <line y2="175.529" y1="175.401" x1="464.544" stroke-width="3.456" stroke="black" stroke-linecap="round" x2="471.662"/>
 </g>
 <g partID="341810">
  <line y2="204.529" y1="210.908" x1="422.288" stroke-width="3.456" stroke="black" stroke-linecap="round" x2="422.378"/>
 </g>
 <g partID="341760">
  <line y2="175.401" y1="202.587" x1="406.565" stroke-width="3.456" stroke="black" stroke-linecap="round" x2="464.544"/>
 </g>
 <g partID="341720">
  <line y2="202.587" y1="210.909" x1="406.817" stroke-width="3.456" stroke="black" stroke-linecap="round" x2="406.565"/>
 </g>
 <g partID="341480">
  <line y2="213.788" y1="220.017" x1="422.111" stroke-width="3.456" stroke="black" stroke-linecap="round" x2="422.239"/>
 </g>
 <g partID="341390">
  <line y2="220.017" y1="238.475" x1="401.64" stroke-width="3.456" stroke="black" stroke-linecap="round" x2="422.111"/>
 </g>
 <g partID="351010">
  <line y2="175.462" y1="257.809" x1="489.406" stroke-width="3.456" stroke="black" stroke-linecap="round" x2="489.425"/>
 </g>
 <g partID="350720">
  <line y2="271.911" y1="253.205" x1="424.948" stroke-width="3.456" stroke="black" stroke-linecap="round" x2="435.99"/>
 </g>
 <g partID="350350">
  <line y2="168.866" y1="175.462" x1="489.426" stroke-width="3.456" stroke="black" stroke-linecap="round" x2="474.147"/>
 </g>
 <g partID="350140">
  <line y2="271.622" y1="271.911" x1="435.99" stroke-width="3.456" stroke="black" stroke-linecap="round" x2="479.49"/>
 </g>
 <g partID="349930">
  <line y2="253.205" y1="239.529" x1="425.099" stroke-width="3.456" stroke="black" stroke-linecap="round" x2="424.948"/>
 </g>
 <g partID="349720">
  <line y2="257.809" y1="271.622" x1="479.489" stroke-width="3.456" stroke="black" stroke-linecap="round" x2="489.406"/>
 </g>
 <g partID="349500">
  <line y2="239.529" y1="239.397" x1="430.573" stroke-width="3.456" stroke="black" stroke-linecap="round" x2="425.098"/>
 </g>
 <g partID="349430">
  <line y2="257.559" y1="261.121" x1="478.415" stroke-width="3.456" stroke="black" stroke-linecap="round" x2="483.083"/>
 </g>
 <g partID="349400">
  <line y2="190.488" y1="194.335" x1="482.628" stroke-width="3.456" stroke="black" stroke-linecap="round" x2="474.137"/>
 </g>
 <g partID="349370">
  <line y2="261.121" y1="261.121" x1="458.996" stroke-width="3.456" stroke="black" stroke-linecap="round" x2="478.414"/>
 </g>
 <g partID="349340">
  <line y2="261.121" y1="248.462" x1="440.327" stroke-width="3.456" stroke="black" stroke-linecap="round" x2="458.996"/>
 </g>
 <g partID="349310">
  <line y2="194.335" y1="257.559" x1="483.083" stroke-width="3.456" stroke="black" stroke-linecap="round" x2="482.628"/>
 </g>
 <g partID="349290">
  <line y2="248.462" y1="248.231" x1="435.158" stroke-width="3.456" stroke="black" stroke-linecap="round" x2="440.326"/>
 </g>
 <g partID="348940">
  <line y2="257.559" y1="239.707" x1="425.099" stroke-width="3.456" stroke="black" stroke-linecap="round" x2="404.848"/>
 </g>
 <g partID="348710">
  <line y2="239.659" y1="251.646" x1="363.911" stroke-width="3.456" stroke="black" stroke-linecap="round" x2="363.3"/>
 </g>
 <g partID="348280">
  <line y2="257.559" y1="257.559" x1="404.848" stroke-width="3.456" stroke="black" stroke-linecap="round" x2="372.553"/>
 </g>
 <g partID="348050">
  <line y2="239.707" y1="239.449" x1="430.573" stroke-width="3.456" stroke="black" stroke-linecap="round" x2="425.098"/>
 </g>
 <g partID="348040">
  <line y2="251.646" y1="257.559" x1="372.553" stroke-width="3.456" stroke="black" stroke-linecap="round" x2="363.911"/>
 </g>
 <g partID="354750">
  <line y2="277.91" y1="270.411" x1="531.593" stroke-width="3.456" stroke="black" stroke-linecap="round" x2="522.22"/>
 </g>
 <g partID="354720">
  <line y2="179.577" y1="260.289" x1="338.276" stroke-width="3.456" stroke="black" stroke-linecap="round" x2="338.912"/>
 </g>
 <g partID="354690">
  <line y2="167.502" y1="179.577" x1="338.912" stroke-width="3.456" stroke="black" stroke-linecap="round" x2="290.612"/>
 </g>
 <g partID="354660">
  <line y2="156.999" y1="167.502" x1="290.612" stroke-width="3.456" stroke="black" stroke-linecap="round" x2="290.314"/>
 </g>
 <g partID="354630">
  <line y2="260.289" y1="277.643" x1="354.822" stroke-width="3.456" stroke="black" stroke-linecap="round" x2="338.276"/>
 </g>
 <g partID="354600">
  <line y2="229.93" y1="219.647" x1="524.476" stroke-width="3.456" stroke="black" stroke-linecap="round" x2="532.311"/>
 </g>
 <g partID="354570">
  <line y2="270.411" y1="229.93" x1="532.311" stroke-width="3.456" stroke="black" stroke-linecap="round" x2="531.594"/>
 </g>
 <g partID="354540">
  <line y2="277.643" y1="277.91" x1="522.22" stroke-width="3.456" stroke="black" stroke-linecap="round" x2="354.822"/>
 </g>
 <g partID="354520">
  <line y2="219.647" y1="218.891" x1="517.446" stroke-width="3.456" stroke="black" stroke-linecap="round" x2="524.476"/>
 </g>
 <g partID="367500">
  <line y2="64.3786" y1="65.1678" x1="308.679" stroke-width="3.456" stroke="black" stroke-linecap="round" x2="375.128"/>
 </g>
 <g partID="367450">
  <line y2="57.1829" y1="58.275" x1="304.968" stroke-width="3.456" stroke="black" stroke-linecap="round" x2="375.129"/>
 </g>
 <g partID="367420">
  <line y2="58.2749" y1="75.7475" x1="297.576" stroke-width="3.456" stroke="black" stroke-linecap="round" x2="304.967"/>
 </g>
 <g partID="367390">
  <line y2="65.1678" y1="75.7237" x1="304.715" stroke-width="3.456" stroke="black" stroke-linecap="round" x2="308.679"/>
 </g>
 <g partID="367230">
  <line y2="246.998" y1="247.068" x1="145.484" stroke-width="3.456" stroke="black" stroke-linecap="round" x2="153.762"/>
 </g>
 <g partID="367140">
  <line y2="247.068" y1="261.268" x1="81.8299" stroke-width="3.456" stroke="black" stroke-linecap="round" x2="145.485"/>
 </g>
 <g partID="367060">
  <line y2="261.268" y1="267.9" x1="81.7721" stroke-width="3.456" stroke="black" stroke-linecap="round" x2="81.8299"/>
 </g>
 <g partID="367030">
  <line y2="159.546" y1="151.063" x1="232.327" stroke-width="3.456" stroke="black" stroke-linecap="round" x2="240.811"/>
 </g>
 <g partID="367000">
  <line y2="218.931" y1="218.931" x1="241.341" stroke-width="3.456" stroke="black" stroke-linecap="round" x2="193.091"/>
 </g>
 <g partID="366970">
  <line y2="218.932" y1="159.547" x1="240.811" stroke-width="3.456" stroke="black" stroke-linecap="round" x2="241.341"/>
 </g>
 <g partID="366940">
  <line y2="245.855" y1="237.489" x1="161.808" stroke-width="3.456" stroke="black" stroke-linecap="round" x2="161.962"/>
 </g>
 <g partID="366890">
  <line y2="237.489" y1="218.931" x1="193.091" stroke-width="3.456" stroke="black" stroke-linecap="round" x2="161.808"/>
 </g>
 <g partID="366870">
  <line y2="151.064" y1="150.696" x1="227.48" stroke-width="3.456" stroke="black" stroke-linecap="round" x2="232.327"/>
 </g>
</svg>
